<?xml version="1.0" standalone="no"?>
<!DOCTYPE svg PUBLIC "-//W3C//DTD SVG 20010904//EN"
 "http://www.w3.org/TR/2001/REC-SVG-20010904/DTD/svg10.dtd">
<svg version="1.0" xmlns="http://www.w3.org/2000/svg"
 width="1503.000000pt" height="1503.000000pt" viewBox="0 0 1503.000000 1503.000000"
 preserveAspectRatio="xMidYMid meet">

<g transform="translate(0.000000,1503.000000) scale(0.100000,-0.100000)"
fill="#000000" stroke="none">
<path d="M11805 12340 c-16 -6 -50 -12 -75 -14 -40 -4 -139 -32 -195 -55 -11
-5 -47 -16 -80 -26 -51 -15 -247 -104 -295 -134 -29 -19 -81 -40 -138 -56 -31
-9 -111 -41 -177 -71 -118 -54 -135 -62 -267 -133 -106 -57 -455 -379 -515
-476 -17 -27 -43 -75 -58 -106 -32 -68 -81 -117 -160 -159 -33 -17 -96 -53
-140 -80 -44 -27 -84 -49 -88 -50 -8 0 -104 -72 -144 -108 -12 -11 -32 -23
-45 -27 -13 -4 -39 -17 -58 -29 -19 -11 -55 -30 -80 -42 -25 -11 -60 -35 -77
-52 -17 -18 -36 -32 -42 -32 -6 0 -21 -11 -33 -25 -18 -21 -30 -25 -63 -23
-39 3 -40 2 -43 -29 -3 -25 -8 -33 -23 -33 -29 0 -92 35 -107 60 -17 29 -32
16 -32 -28 0 -20 -7 -50 -16 -67 -12 -23 -13 -34 -3 -52 6 -12 9 -32 6 -45 -4
-15 0 -29 13 -43 17 -18 18 -25 8 -53 -7 -19 -19 -32 -30 -32 -9 0 -20 -4 -23
-10 -11 -18 -25 -10 -25 15 0 36 -33 65 -75 65 -26 0 -33 4 -29 14 8 21 -14
56 -34 56 -9 0 -30 -8 -47 -18 -32 -19 -50 -19 -305 -10 -75 3 -127 10 -150
20 -24 11 -61 15 -116 14 -66 -1 -85 -5 -108 -24 -36 -27 -57 -28 -79 -1 -12
13 -24 18 -37 14 -11 -3 -31 1 -45 11 -37 24 -145 20 -205 -8 -25 -12 -55 -20
-67 -19 -11 1 -24 -3 -28 -9 -5 -7 -18 -5 -41 9 -36 22 -90 20 -109 -4 -10
-12 -77 -23 -179 -29 -41 -2 -61 -8 -68 -19 -7 -13 -18 -15 -53 -10 -29 4 -50
1 -59 -7 -9 -7 -27 -9 -45 -5 -16 3 -32 2 -35 -3 -6 -10 -72 -27 -92 -24 -6 1
-17 -5 -24 -13 -16 -19 -29 -19 -70 1 -26 13 -37 14 -51 5 -10 -6 -25 -11 -34
-11 -8 0 -19 -9 -25 -20 -6 -11 -20 -20 -31 -20 -25 0 -59 -17 -59 -30 0 -6 7
-10 15 -10 8 0 15 -9 15 -20 0 -27 -30 -38 -42 -17 -5 10 -17 17 -26 17 -26 0
-45 36 -29 52 11 10 8 17 -15 40 -27 27 -38 68 -18 68 6 0 10 7 10 16 0 13
-10 15 -67 9 -38 -3 -84 -8 -103 -11 -50 -7 -71 12 -75 69 -2 35 -10 53 -31
75 -25 24 -64 48 -64 38 0 -2 5 -17 11 -35 8 -24 8 -35 -1 -46 -7 -9 -9 -26
-5 -45 5 -23 3 -30 -9 -30 -9 0 -16 7 -16 15 0 8 -9 15 -21 15 -11 0 -17 -5
-14 -10 4 -6 11 -8 16 -5 5 4 9 -2 9 -12 0 -11 5 -24 12 -31 9 -9 4 -15 -22
-25 -38 -17 -62 -13 -86 14 -32 35 -52 24 -108 -63 -29 -46 -56 -95 -60 -111
-15 -63 -104 -123 -290 -197 -58 -23 -111 -49 -117 -57 -19 -22 -187 -137
-239 -163 -25 -12 -79 -55 -120 -96 -41 -40 -99 -92 -129 -114 -57 -42 -91
-83 -91 -111 0 -21 -38 -106 -50 -114 -6 -3 -10 -15 -10 -26 0 -10 -5 -19 -11
-19 -16 0 -49 -40 -49 -59 0 -9 -7 -25 -15 -35 -8 -11 -15 -28 -15 -37 0 -10
-4 -19 -10 -21 -5 -1 -14 -23 -19 -48 -6 -25 -15 -65 -21 -90 -27 -110 -33
-139 -40 -195 -4 -33 -12 -78 -18 -100 -6 -22 -18 -76 -27 -120 -10 -44 -30
-118 -45 -165 -16 -47 -32 -103 -35 -125 -16 -86 -90 -253 -160 -360 -29 -43
-68 -110 -112 -190 -58 -104 -88 -181 -104 -263 -24 -125 -11 -156 75 -185 99
-34 345 -8 473 49 17 8 36 14 42 14 6 0 39 17 73 38 35 21 85 49 112 63 83 41
332 267 398 362 23 31 44 57 49 57 4 0 6 -25 3 -55 -2 -31 0 -64 5 -74 7 -12
5 -33 -4 -66 -8 -26 -12 -51 -9 -56 3 -5 -2 -23 -10 -40 -9 -17 -13 -35 -10
-40 10 -16 -38 -192 -72 -268 -19 -41 -34 -87 -34 -102 0 -16 -4 -29 -9 -29
-11 0 -11 0 -11 -135 0 -88 3 -102 22 -122 12 -13 19 -25 16 -28 -3 -3 -11 1
-18 10 -20 24 -31 18 -18 -10 9 -19 8 -34 -2 -65 -11 -32 -11 -45 -1 -63 7
-13 13 -31 15 -40 1 -9 8 -23 14 -29 18 -18 15 -27 -13 -38 -33 -13 -42 -36
-21 -59 9 -10 16 -30 16 -44 0 -17 5 -27 14 -27 15 0 32 -37 22 -47 -3 -4 -6
2 -6 13 0 17 -1 17 -21 -3 -21 -21 -21 -23 -7 -67 9 -26 11 -49 7 -52 -17 -10
-9 -22 21 -27 22 -5 30 -12 30 -28 0 -15 -4 -19 -16 -15 -11 4 -15 2 -11 -8 3
-7 9 -35 13 -62 4 -27 15 -56 24 -64 9 -8 20 -26 23 -40 4 -14 27 -47 52 -75
25 -27 45 -59 45 -70 0 -11 7 -33 15 -49 18 -34 18 -31 0 -50 -12 -11 -13 -21
-5 -41 11 -30 6 -45 -16 -45 -8 0 -13 -4 -10 -9 6 -8 -14 -21 -41 -27 -7 -1
-13 7 -14 19 -1 12 -2 29 -3 37 -2 8 -3 23 -4 33 -3 32 -22 17 -22 -18 0 -19
-4 -35 -10 -35 -5 0 -10 6 -10 14 0 8 -7 16 -16 18 -10 2 -27 31 -43 72 -14
38 -31 71 -37 73 -6 2 -30 -33 -52 -79 -35 -72 -50 -126 -54 -188 -1 -21 -18
-41 -30 -34 -5 3 -31 -17 -58 -45 -47 -50 -78 -66 -67 -36 4 8 2 17 -3 20 -13
8 -13 52 1 60 6 4 8 14 5 22 -4 9 10 33 34 60 22 25 40 53 40 63 0 9 29 47 64
85 70 75 76 89 68 164 -4 47 -6 50 -25 40 -18 -10 -19 -9 -13 14 8 34 -3 87
-18 81 -8 -3 -10 10 -7 42 l3 47 -42 -24 c-47 -26 -218 -201 -283 -289 -84
-112 -129 -159 -216 -224 -114 -85 -126 -110 -142 -301 -13 -163 -9 -203 25
-255 26 -40 27 -77 4 -124 -7 -13 -6 -21 3 -27 19 -12 -3 -48 -49 -79 -43 -30
-199 -185 -261 -261 -128 -155 -246 -379 -322 -613 -38 -115 -108 -367 -119
-426 -5 -25 -17 -85 -28 -135 -11 -49 -25 -124 -32 -165 -6 -41 -20 -118 -30
-170 -10 -52 -26 -156 -35 -230 -9 -74 -23 -175 -30 -225 -8 -49 -17 -137 -20
-195 -4 -58 -10 -130 -15 -160 -5 -30 -12 -104 -15 -165 -3 -60 -10 -157 -15
-215 -5 -58 -16 -217 -25 -355 -8 -137 -17 -270 -20 -295 -4 -42 -7 -141 -21
-655 -2 -110 -9 -256 -14 -325 -9 -118 -10 -140 -7 -200 2 -58 -4 -100 -14
-100 -10 0 -7 238 6 492 3 58 1 76 -8 72 -8 -3 -12 12 -12 50 0 30 1 53 4 50
2 -2 10 13 18 33 15 44 18 147 4 138 -6 -3 -7 17 -4 50 7 70 -8 72 -30 4 -20
-60 -21 -89 -5 -89 6 0 9 -2 6 -5 -9 -10 -68 17 -68 31 0 8 -5 14 -11 14 -6 0
-8 12 -4 33 20 96 20 94 -19 99 -20 2 -36 0 -36 -5 0 -9 -12 -7 -55 8 -18 6
-18 5 -3 -5 10 -6 15 -17 11 -26 -3 -9 0 -33 7 -55 12 -36 12 -41 -6 -54 -19
-15 -19 -15 0 -30 11 -8 15 -15 9 -15 -7 0 -18 7 -26 15 -13 13 -16 13 -21 0
-3 -8 -1 -15 4 -15 6 0 10 -8 10 -19 0 -25 23 -44 37 -30 19 19 25 -9 6 -30
-12 -15 -20 -18 -30 -9 -10 8 -13 7 -13 -5 0 -8 6 -17 13 -20 9 -4 9 -7 0 -18
-11 -11 -13 -11 -13 1 0 13 -1 13 -9 1 -6 -9 -6 -22 -1 -31 5 -9 4 -22 -1 -31
-9 -11 -12 -11 -16 -1 -8 21 -53 34 -69 21 -15 -12 -20 -59 -6 -59 4 0 13 -19
20 -41 12 -39 11 -43 -13 -73 -14 -17 -40 -52 -58 -78 -36 -53 -51 -56 -55
-12 -1 16 -12 50 -23 75 l-21 47 21 65 c23 68 25 138 4 144 -6 3 -16 -11 -21
-31 -13 -44 -49 -96 -68 -96 -8 0 -14 5 -14 10 0 19 -15 10 -32 -21 -10 -17
-18 -41 -18 -53 0 -12 -6 -34 -12 -50 -10 -20 -19 -26 -35 -23 -15 3 -23 -1
-23 -10 0 -10 -6 -13 -16 -9 -14 6 -15 4 -4 -9 11 -13 15 -13 22 -3 6 10 10
10 18 -2 6 -9 6 -18 0 -24 -6 -6 -10 -19 -10 -29 0 -25 -39 -79 -51 -71 -5 3
-7 14 -4 24 3 11 0 20 -10 24 -13 5 -15 17 -12 58 3 29 6 58 7 63 1 6 2 25 1
43 -1 25 -5 32 -21 32 -14 0 -20 -7 -20 -22 0 -13 -7 -36 -16 -53 -9 -16 -22
-50 -30 -75 -14 -45 -84 -154 -84 -131 0 10 -7 9 -26 -4 -16 -10 -35 -14 -49
-11 -18 5 -25 1 -30 -14 -4 -12 -14 -19 -23 -18 -12 2 -20 -7 -27 -30 -11 -38
-17 -40 -33 -9 -13 22 -11 121 1 133 4 4 7 16 7 25 0 16 8 18 51 17 33 0 54 4
60 13 4 7 18 14 31 14 17 0 22 5 20 20 -2 11 -3 39 -2 63 1 43 -15 72 -36 65
-6 -2 -14 5 -17 17 -3 11 -13 20 -22 20 -9 0 -13 -5 -9 -11 3 -6 0 -15 -7 -20
-8 -4 -14 -12 -15 -16 -3 -25 -42 -109 -56 -120 -17 -14 -78 -4 -78 12 0 7 7
26 15 41 8 16 15 36 15 45 0 19 24 42 33 33 3 -3 5 6 3 22 -4 38 -36 51 -70
29 -14 -10 -26 -25 -26 -34 -1 -23 -24 -51 -44 -51 -12 0 -16 10 -16 39 0 36
-2 39 -33 44 -17 2 -35 3 -39 1 -3 -2 -14 -30 -23 -62 -9 -31 -23 -81 -31
-109 -10 -34 -20 -53 -30 -53 -11 0 -14 6 -9 23 4 12 3 17 -2 11 -4 -7 -19
-14 -32 -15 -20 -4 -23 -10 -25 -52 -2 -53 10 -70 30 -43 8 11 14 13 19 7 3
-6 20 -11 37 -11 29 0 30 -1 16 -17 -9 -10 -21 -52 -27 -93 -13 -79 -45 -130
-82 -130 -22 0 -35 20 -20 29 6 4 9 15 5 25 -5 13 -13 16 -35 11 -18 -4 -29
-2 -29 4 0 6 -5 11 -11 11 -8 0 -8 -4 0 -14 10 -12 8 -17 -9 -26 -13 -7 -19
-18 -16 -26 3 -8 1 -14 -3 -14 -5 0 -18 -3 -28 -6 -17 -6 -17 -6 1 8 15 12 17
19 8 34 -11 18 -11 18 -12 -3 0 -13 -5 -23 -11 -23 -7 0 -9 9 -6 21 6 23 -12
49 -35 49 -9 1 -8 5 4 13 9 7 20 25 23 40 8 29 35 38 35 11 0 -12 9 -14 42
-12 42 3 43 4 46 41 4 49 -36 108 -67 100 -15 -4 -22 1 -27 20 -6 27 -1 109
10 164 8 37 -7 52 -32 30 -9 -8 -23 -12 -29 -10 -7 3 -13 0 -13 -5 0 -5 -8
-12 -18 -14 -16 -4 -67 -95 -85 -150 -3 -9 -27 -26 -52 -38 -25 -11 -61 -35
-80 -53 -48 -45 -58 -52 -78 -60 -9 -4 -20 -15 -23 -24 -3 -10 -10 -26 -15
-36 -8 -14 -5 -17 21 -17 23 0 28 4 23 16 -3 9 -2 19 3 23 5 3 15 19 22 34 10
22 17 27 39 24 15 -2 34 2 41 10 16 15 46 18 37 2 -4 -6 2 -13 14 -16 18 -5
16 -9 -25 -49 -25 -25 -50 -42 -56 -38 -7 4 -8 3 -4 -4 5 -8 0 -12 -14 -12
-11 0 -24 -8 -27 -17 -10 -25 -34 -42 -61 -43 -15 0 -26 -7 -29 -20 -4 -14
-11 -19 -22 -15 -9 3 -32 -6 -51 -20 l-34 -25 128 0 c86 0 125 3 121 10 -4 6
5 23 19 37 14 14 26 30 26 34 0 12 37 11 45 0 3 -5 -11 -26 -31 -45 l-37 -36
951 0 951 0 4 32 4 33 1 -32 2 -33 534 0 c478 0 535 2 540 16 9 23 8 24 -14
24 -24 0 -27 31 -5 54 13 13 12 15 -17 14 -18 0 -38 -5 -45 -10 -7 -6 -14 -5
-19 3 -4 7 0 18 10 25 14 9 16 20 11 43 -6 27 -4 31 14 31 12 0 21 6 21 15 0
23 31 35 49 18 12 -12 12 -19 2 -35 -19 -31 -4 -34 25 -5 15 15 24 27 20 27
-7 0 17 31 69 86 29 31 51 45 79 50 30 5 37 4 31 -6 -6 -10 -2 -11 19 -6 21 5
26 3 26 -11 0 -15 2 -16 10 -3 5 8 10 10 10 5 0 -6 -5 -16 -12 -23 -9 -9 -4
-12 25 -12 20 0 37 5 37 10 0 6 -7 10 -15 10 -8 0 -15 6 -15 13 1 23 38 57 64
57 22 0 26 4 26 30 0 20 5 30 15 30 8 0 15 -4 15 -10 0 -22 33 -8 71 30 44 43
78 55 59 21 -5 -11 -23 -29 -40 -41 -16 -12 -30 -27 -31 -33 0 -7 -20 -28 -44
-47 -43 -34 -52 -55 -24 -55 8 0 19 4 26 10 7 5 19 16 27 22 8 7 22 13 31 13
17 0 21 -25 5 -35 -6 -4 -8 -10 -5 -15 3 -4 -2 -10 -10 -14 -9 -3 -12 -12 -8
-22 5 -13 2 -16 -9 -11 -12 4 -18 -2 -23 -21 -5 -19 -9 -22 -15 -13 -6 11 -15
11 -41 2 -23 -8 -35 -8 -37 -1 -7 19 -33 10 -69 -25 -20 -19 -42 -35 -50 -35
-29 0 -72 -30 -66 -46 3 -8 0 -26 -7 -40 -8 -13 -10 -27 -7 -30 4 -4 9 0 13 9
10 26 85 97 96 91 5 -3 4 -12 -3 -20 -19 -23 -4 -27 34 -9 19 9 37 25 40 36 3
11 14 19 26 19 21 0 21 -1 6 -30 -8 -16 -26 -35 -39 -42 -13 -7 -40 -34 -60
-60 l-36 -48 2263 3 2262 2 2 30 c3 36 33 172 43 200 5 11 20 52 34 92 14 40
37 91 51 113 28 45 26 60 -9 60 -23 0 -70 24 -145 73 -45 30 -78 88 -65 116 6
12 9 10 12 -12 2 -15 7 -27 12 -27 14 0 19 27 10 57 -4 15 -9 24 -10 18 -2
-16 -30 55 -30 76 0 11 -7 19 -15 19 -8 0 -15 -7 -15 -15 0 -20 -19 -19 -26 0
-5 11 -10 13 -19 5 -8 -7 -18 -3 -34 14 -19 20 -20 25 -7 35 14 11 13 16 -2
39 -21 34 -34 43 -51 37 -22 -8 -82 6 -75 17 4 6 1 9 -7 6 -8 -3 -20 2 -27 11
-12 14 -13 14 -7 -4 4 -11 9 -29 10 -41 2 -11 15 -33 29 -49 14 -15 24 -30 21
-33 -3 -3 2 -13 11 -23 9 -10 14 -25 11 -33 -3 -8 -1 -17 6 -20 7 -2 -3 -2
-20 1 -26 4 -33 2 -33 -11 0 -9 -6 -16 -12 -16 -9 -1 -8 -4 2 -13 15 -12 40
-52 40 -63 0 -3 -10 -2 -21 1 -19 6 -21 4 -17 -13 6 -23 -17 -38 -36 -23 -6 5
-28 12 -48 16 -44 8 -50 -7 -19 -47 18 -23 19 -26 3 -59 -9 -19 -20 -35 -24
-37 -12 -5 -10 -32 2 -32 6 0 10 -7 10 -15 0 -11 -11 -15 -35 -15 -22 0 -38
-6 -41 -15 -3 -8 -15 -17 -27 -21 -21 -7 -21 -7 5 -28 33 -26 51 -83 24 -73
-10 4 -20 7 -22 7 -2 0 -4 7 -4 15 0 8 -4 15 -10 15 -5 0 -10 6 -10 13 0 7 -9
18 -20 25 -27 17 -25 6 5 -30 42 -50 30 -64 -35 -42 -24 8 -46 11 -49 7 -3 -4
-18 -14 -34 -22 -19 -10 -24 -17 -15 -22 7 -4 10 -11 6 -14 -3 -4 -25 3 -47
15 -39 19 -43 19 -72 4 -17 -8 -33 -13 -36 -10 -3 2 -16 0 -30 -5 -16 -6 -30
-6 -37 0 -18 15 -98 6 -108 -13 -6 -11 -17 -14 -33 -10 -16 4 -26 0 -33 -13
-8 -13 -14 -15 -22 -7 -14 14 -16 247 -3 289 9 30 2 149 -16 255 -7 43 -5 72
10 135 10 44 19 98 19 120 0 42 14 74 26 62 5 -4 2 -63 -4 -130 -16 -163 -17
-157 14 -157 25 0 26 -2 22 -50 -3 -28 -1 -53 3 -55 4 -3 5 -15 2 -27 -4 -13
0 -25 11 -34 10 -7 18 -27 19 -48 2 -34 19 -48 32 -26 3 5 11 10 18 10 6 0 4
-6 -5 -13 -13 -10 -13 -16 -2 -36 l12 -24 17 33 c16 30 15 33 -2 52 -10 11
-16 29 -15 40 3 17 0 20 -18 15 -20 -5 -22 -3 -15 26 3 18 6 42 7 55 0 27 3
27 29 3 14 -13 20 -33 22 -67 1 -29 9 -57 18 -67 9 -10 19 -32 23 -48 3 -18
12 -29 22 -29 17 0 16 33 -1 118 -4 17 -3 32 2 32 12 0 14 68 2 76 -5 3 -9 18
-9 33 0 15 -7 36 -15 47 -19 25 -19 39 1 58 14 15 14 16 0 16 -9 0 -16 9 -16
20 0 11 -7 23 -15 26 -8 4 -15 15 -15 25 0 10 -4 19 -10 19 -5 0 -10 9 -10 20
0 10 -7 35 -16 53 -13 26 -14 39 -6 53 11 18 11 18 12 -2 0 -11 9 -38 20 -60
11 -21 19 -32 18 -24 -3 25 13 60 28 60 22 0 17 15 -11 30 -18 10 -22 17 -14
26 7 9 7 30 0 70 -6 32 -9 60 -6 62 5 5 -25 31 -37 32 -14 0 -9 -50 5 -56 8
-3 12 -18 10 -41 -3 -44 -4 -46 -37 -37 -25 6 -30 18 -27 56 1 9 -3 19 -9 23
-5 3 -10 17 -10 31 0 19 5 24 25 24 14 0 25 4 25 9 0 5 -11 12 -25 15 -29 7
-32 22 -9 47 22 24 11 67 -19 78 -51 20 -57 55 -39 226 6 50 11 94 11 98 2 15
19 -3 36 -38 13 -29 14 -39 5 -51 -9 -10 -9 -18 -1 -27 8 -10 7 -17 -1 -25 -6
-6 -9 -15 -5 -18 11 -11 18 1 23 38 2 18 7 50 10 70 6 34 3 39 -25 55 -37 22
-39 32 -6 63 33 31 32 40 -8 40 -39 0 -57 15 -57 47 0 32 -29 103 -56 135 -17
21 -21 36 -17 65 5 44 -20 160 -39 179 -7 8 -22 15 -33 17 -27 4 -112 35 -153
55 -26 12 -38 13 -51 5 -10 -7 -36 -15 -57 -18 -60 -11 -107 -27 -130 -47 -11
-10 -28 -18 -37 -18 -9 0 -26 -9 -37 -20 -24 -24 -26 -74 -6 -241 15 -127 22
-148 61 -173 14 -9 23 -21 20 -26 -10 -16 -91 -12 -128 6 -44 21 -64 55 -76
135 -23 142 -4 246 67 363 23 37 42 81 42 96 0 47 25 63 84 56 36 -4 72 0 126
15 60 17 89 20 152 14 53 -4 78 -3 78 4 0 6 -7 11 -15 11 -10 0 -15 10 -15 29
0 22 -5 30 -17 30 -34 -1 -58 9 -55 21 2 7 -5 21 -14 31 -10 11 -12 19 -6 19
8 0 10 14 6 44 -8 54 9 68 31 26 8 -16 22 -30 30 -30 9 0 15 -10 15 -25 0 -14
5 -25 11 -25 7 0 8 11 4 31 -7 29 -5 30 21 27 23 -2 30 -9 34 -32 6 -35 19
-41 45 -21 11 8 14 15 8 15 -7 0 -13 5 -13 11 0 6 8 9 18 7 9 -2 22 3 28 11
15 20 34 5 34 -26 0 -15 3 -23 7 -19 4 4 8 15 8 24 0 13 9 17 35 17 47 1 61
11 54 39 -4 18 -1 25 18 30 13 3 26 6 31 6 11 0 8 -58 -3 -65 -6 -4 -8 -15 -5
-26 4 -11 2 -19 -4 -19 -19 0 -12 -18 10 -23 12 -3 18 -10 15 -16 -4 -5 -2
-12 3 -15 5 -3 12 11 17 32 7 34 9 52 13 111 1 24 29 53 42 46 15 -10 10 -35
-11 -62 -26 -33 -25 -43 1 -43 17 0 20 5 16 26 -4 21 -1 25 17 22 11 -2 27
-15 34 -30 7 -16 17 -28 23 -28 5 0 9 -4 9 -10 0 -5 -7 -7 -15 -4 -9 4 -15 0
-15 -10 0 -9 6 -16 14 -16 8 0 16 -16 20 -40 4 -27 11 -40 22 -40 12 0 15 6
11 22 -3 12 0 48 8 80 8 34 9 60 4 64 -5 3 -3 15 6 27 8 12 15 29 15 39 0 13
8 18 26 18 14 0 23 4 20 9 -4 5 -1 11 5 13 16 5 0 35 -22 41 -12 3 -17 11 -13
20 3 8 1 18 -5 22 -16 9 -13 35 4 35 8 0 15 -6 15 -14 0 -7 6 -19 14 -25 12
-10 16 -8 22 11 8 26 34 49 47 41 4 -2 13 0 20 5 7 5 24 11 39 14 25 5 26 3
21 -23 -4 -22 -2 -29 11 -29 9 0 16 -8 16 -18 0 -28 63 -94 83 -86 9 3 17 13
17 20 0 8 6 17 14 20 8 3 16 14 19 24 3 10 15 20 28 22 13 1 24 8 25 13 0 6 3
24 7 40 4 17 9 59 11 94 2 35 8 66 12 70 5 3 9 11 9 16 1 33 19 77 36 85 18
10 18 13 4 41 -19 36 -12 51 20 43 20 -5 27 -1 35 20 5 14 13 26 18 26 20 0
30 46 16 73 -12 23 -12 32 2 69 9 24 25 60 35 80 19 35 19 39 4 69 -23 44 -46
107 -55 151 -5 28 -4 35 7 31 15 -6 18 18 4 45 -32 65 -31 138 2 151 12 5 39
25 59 45 36 35 37 35 72 21 36 -15 36 -15 47 12 6 16 19 46 30 67 19 38 19 41
2 57 -21 20 -118 35 -128 19 -10 -16 -45 -12 -45 6 0 10 -7 14 -22 12 -16 -2
-29 7 -46 32 -13 19 -32 38 -43 42 -10 4 -19 12 -19 17 0 6 7 8 15 5 8 -4 15
-1 15 5 0 6 -5 11 -11 11 -5 0 -7 5 -3 11 4 7 1 10 -7 7 -20 -7 -24 -69 -6
-83 12 -8 3 -10 -35 -9 -27 2 -52 5 -55 8 -10 9 19 37 33 32 13 -5 27 20 19
34 -3 5 -1 11 5 15 5 3 10 17 10 31 0 15 6 24 15 24 8 0 15 -5 15 -12 0 -6 9
-3 20 7 11 10 23 15 27 12 3 -4 12 2 20 13 14 20 60 29 48 10 -3 -6 1 -10 9
-10 9 0 16 8 16 18 1 9 8 33 18 53 15 31 20 35 40 28 24 -9 52 -2 52 13 0 5 9
6 20 3 14 -5 20 -2 20 10 0 9 4 13 10 10 20 -12 44 13 44 46 1 29 5 34 26 37
34 4 127 48 137 65 13 22 79 67 97 67 22 0 66 29 66 44 0 7 -6 20 -13 30 -12
16 -18 17 -58 5 -24 -7 -53 -21 -65 -31 -11 -10 -27 -18 -35 -18 -8 0 -27 -9
-43 -19 -18 -12 -40 -18 -55 -15 -23 5 -60 9 -98 13 -7 0 -13 7 -13 15 0 14
-61 56 -81 56 -6 0 -17 7 -26 15 -8 9 -28 19 -44 22 -16 3 -29 9 -29 14 0 5
-8 9 -18 9 -11 0 -29 9 -41 19 -13 11 -35 23 -51 26 -19 4 -30 14 -34 31 -4
13 -11 24 -17 24 -8 0 -8 5 1 15 15 18 4 55 -17 55 -8 0 -28 9 -44 21 -23 16
-29 28 -29 58 0 23 7 45 20 59 19 20 19 22 2 32 -14 8 -11 10 17 8 30 -3 35
-7 38 -32 7 -53 22 -66 23 -19 0 23 -5 43 -11 45 -19 6 8 48 30 48 10 0 24 6
30 14 6 7 31 19 56 26 24 7 52 21 61 31 9 11 24 19 33 19 8 0 32 12 52 26 21
14 46 27 56 28 12 2 17 10 15 25 -3 18 17 51 31 51 5 0 16 -31 23 -64 6 -29 8
-29 47 -7 49 27 77 18 77 -25 0 -28 4 -34 20 -34 26 0 37 27 21 52 -10 17 -9
22 6 33 15 12 20 12 30 -2 15 -19 43 -10 43 15 0 27 -9 32 -36 20 -20 -9 -28
-8 -41 5 -16 16 -15 19 5 47 19 25 20 33 10 50 -23 36 -59 19 -63 -30 -4 -46
-20 -58 -53 -40 -15 9 -28 25 -30 35 -2 22 48 85 68 85 6 0 20 10 31 23 14 16
18 18 19 6 0 -8 6 -23 13 -34 13 -17 14 -17 19 3 5 19 0 29 -42 79 -16 19 -12
36 8 28 20 -8 21 -8 45 -6 15 1 17 6 12 32 -5 20 -4 29 3 25 6 -3 8 1 5 12 -3
13 5 21 31 30 36 13 51 41 48 86 0 11 8 26 18 33 14 10 18 21 14 42 -5 24 1
36 34 70 22 23 45 41 51 41 6 0 11 7 11 15 0 8 18 42 40 76 22 34 40 68 40 76
0 7 4 13 8 13 10 0 62 109 62 129 0 8 6 19 14 25 7 6 16 23 20 38 5 22 3 25
-13 21 -28 -7 -36 16 -13 40 24 26 27 111 4 102 -18 -7 -27 22 -11 41 18 22
-19 59 -50 49 -26 -8 -27 -22 -3 -27 12 -3 9 -6 -10 -10 -15 -3 -25 -1 -22 3
3 5 -4 9 -14 9 -22 0 -37 26 -21 36 6 4 6 11 -2 20 -9 11 -8 14 5 14 9 0 16
-4 16 -10 0 -15 27 -12 33 4 3 8 22 20 41 27 20 7 36 17 36 22 0 16 -30 38
-41 31 -8 -4 -7 -9 2 -15 22 -13 1 -23 -56 -26 -43 -1 -53 1 -48 13 8 20 -15
44 -35 37 -15 -6 -15 -5 -3 10 7 9 23 17 35 17 12 0 27 5 33 11 8 8 16 8 30
-1 17 -11 17 -11 -1 -6 -16 6 -17 4 -6 -9 12 -14 15 -13 32 5 10 11 25 20 32
20 7 0 25 13 41 30 l29 30 -27 0 c-30 0 -38 26 -12 36 23 9 18 26 -7 22 -11
-2 -23 3 -25 10 -3 6 2 12 11 12 22 0 20 23 -4 38 -22 13 -27 33 -7 29 6 -1
12 5 12 15 0 9 9 26 19 37 11 12 16 21 12 21 -4 0 -2 9 4 21 11 19 9 20 -24
13 -41 -7 -49 11 -17 40 14 13 24 14 45 6 34 -13 46 -13 46 0 0 6 -13 10 -30
10 -23 0 -30 4 -30 20 0 12 7 20 16 20 24 0 8 79 -22 108 -13 13 -24 34 -24
47 0 21 3 23 23 16 12 -4 23 -18 25 -30 2 -11 10 -21 18 -21 17 0 18 14 3 41
-7 14 -7 24 -1 32 15 17 -12 51 -33 43 -25 -9 -13 17 13 29 27 12 29 35 2 35
-26 0 -47 38 -25 46 10 4 22 -1 30 -12 17 -24 30 -12 16 15 -7 13 -8 22 -1 26
5 3 10 27 10 53 0 71 20 240 36 305 25 99 157 347 185 347 6 0 19 -5 30 -10
16 -9 27 -5 63 25 39 32 56 58 85 130 50 121 59 134 126 165 90 41 132 58 165
65 19 4 61 20 93 36 32 16 66 29 76 29 10 0 21 3 25 8 4 4 26 12 49 18 41 10
42 12 40 49 -2 21 1 43 6 49 4 6 11 35 15 65 8 64 21 90 76 160 52 66 115 196
142 292 11 41 27 99 35 129 18 65 26 76 72 100 45 23 131 136 161 210 12 30
26 62 31 70 10 17 44 88 83 175 39 86 166 335 186 365 9 14 45 78 79 142 33
65 75 139 91 165 17 26 30 51 30 55 0 12 71 107 115 154 97 102 112 131 199
382 20 57 36 113 36 126 0 21 30 127 49 171 18 41 34 217 27 293 -6 60 -14 87
-38 126 -61 99 -115 127 -258 132 -58 2 -118 -1 -135 -6z m-2886 -2052 c-8
-16 -46 -38 -65 -38 -7 0 6 42 17 56 5 6 20 9 34 6 21 -4 23 -7 14 -24z
m-1375 1 c-30 -12 -37 -10 -24 5 6 8 19 12 27 9 14 -6 14 -8 -3 -14z m-1586
-7 c2 -7 -7 -12 -22 -12 -27 0 -35 15 -13 23 17 7 30 3 35 -11z m409 2 c-3 -3
-12 -4 -19 -1 -8 3 -5 6 6 6 11 1 17 -2 13 -5z m2693 -189 c0 -10 -10 -15 -32
-15 l-33 1 25 14 c32 18 40 18 40 0z m-3217 -130 c-10 -13 -22 -25 -28 -25
-15 -1 -116 -98 -161 -155 -22 -27 -49 -70 -61 -95 -11 -25 -32 -70 -47 -100
-14 -30 -26 -60 -26 -66 0 -5 -7 -19 -16 -30 -31 -39 -7 50 40 147 57 116 82
157 125 206 19 21 41 48 49 61 13 20 113 80 135 82 4 0 0 -11 -10 -25z m2892
-19 c18 -13 17 -14 -11 -14 -16 0 -38 7 -49 14 -18 13 -18 14 11 14 17 0 39
-6 49 -14z m95 -16 c0 -5 -4 -10 -10 -10 -5 0 -10 5 -10 10 0 6 5 10 10 10 6
0 10 -4 10 -10z m400 -20 c-21 -13 -63 -13 -55 1 4 6 17 14 29 19 26 10 48 -6
26 -20z m-409 -6 c11 -14 10 -15 -11 -12 -13 1 -25 9 -28 16 -5 17 23 15 39
-4z m99 -4 c0 -24 29 -40 74 -40 49 0 54 -17 10 -35 -35 -14 -37 -17 -21 -32
13 -13 19 -14 31 -4 23 19 67 6 63 -19 -2 -11 -9 -26 -15 -32 -9 -9 -7 -17 10
-35 21 -22 21 -23 3 -43 -25 -28 -8 -46 32 -33 28 10 82 -1 93 -18 4 -5 20
-12 38 -15 32 -7 33 -6 36 36 1 8 4 14 8 12 4 -1 15 -5 23 -8 21 -9 19 -46 -5
-67 -12 -10 -37 -17 -61 -17 -28 0 -39 -4 -36 -12 2 -9 23 -12 67 -10 69 2 83
8 60 22 -11 7 -5 10 22 10 74 0 92 27 33 50 -22 9 -31 16 -23 21 16 10 -8 39
-34 39 -15 0 -17 3 -8 19 14 27 3 48 -28 55 -15 3 -34 10 -42 16 -13 9 -13 12
3 25 11 7 25 11 32 9 7 -3 15 4 18 15 8 31 25 26 40 -12 8 -18 22 -41 32 -51
15 -15 16 -21 6 -37 -17 -29 -5 -41 35 -33 27 5 34 3 34 -9 0 -9 -4 -19 -10
-22 -12 -7 -14 -26 -2 -23 12 2 60 -20 67 -32 10 -17 -6 -29 -43 -33 -68 -8
-65 -47 3 -47 24 0 33 -6 44 -32 7 -18 20 -38 29 -45 17 -14 8 -47 -11 -41 -6
3 -14 13 -15 24 -6 29 -15 35 -69 39 -37 3 -54 0 -63 -11 -17 -20 -9 -25 26
-15 34 9 54 4 54 -14 0 -7 12 -16 26 -19 22 -6 24 -9 13 -22 -10 -13 -10 -17
2 -25 19 -12 49 -11 49 2 0 5 4 8 10 4 5 -3 7 -11 4 -18 -2 -7 10 -23 27 -36
29 -22 31 -25 15 -36 -15 -11 -12 -16 24 -48 23 -22 37 -42 34 -51 -6 -15 25
-84 60 -131 47 -64 96 -186 96 -240 0 -18 -7 -46 -16 -64 -9 -18 -14 -33 -13
-34 48 -26 54 -34 40 -56 -8 -12 -12 -12 -25 -2 -9 8 -16 20 -16 27 0 8 -10
14 -24 14 -13 0 -30 7 -37 16 -30 37 -143 53 -191 28 -37 -19 -35 -27 8 -44
28 -12 32 -15 17 -21 -10 -3 -34 -6 -53 -5 -33 1 -35 3 -35 34 0 24 -4 32 -18
32 -9 0 -46 29 -82 65 -51 51 -76 68 -118 80 -35 10 -65 28 -87 50 -19 19 -39
35 -46 35 -6 0 -17 7 -24 15 -7 9 -28 23 -46 31 -19 9 -34 20 -34 25 0 4 -20
22 -44 39 -25 16 -47 38 -50 48 -7 22 -86 72 -115 72 -12 0 -21 6 -21 15 0 8
-13 21 -29 29 -30 16 -54 53 -27 43 8 -3 20 1 27 9 7 8 18 13 24 10 18 -6 87
28 109 54 l18 23 -36 -7 c-24 -5 -36 -3 -36 5 0 6 -7 8 -16 5 -18 -7 -53 29
-54 55 0 9 -11 21 -24 27 -14 6 -32 27 -41 46 -10 20 -20 36 -24 36 -3 0 -17
10 -31 21 -14 11 -20 18 -13 15 16 -8 29 14 14 24 -20 12 15 33 44 26 14 -4
25 -2 25 4 0 5 7 10 16 10 17 0 14 22 -4 28 -7 2 -12 -3 -12 -12 0 -23 -17
-20 -23 4 -4 16 0 20 18 20 12 0 28 7 35 16 26 30 48 35 80 19 16 -9 30 -20
30 -25 0 -17 -38 -30 -69 -24 -19 4 -31 2 -31 -4 0 -6 18 -13 40 -17 22 -4 50
-15 64 -26 13 -10 29 -19 34 -19 18 0 24 -20 12 -35 -9 -11 -5 -21 24 -51 19
-20 45 -56 56 -79 14 -28 33 -49 55 -59 24 -12 32 -21 28 -35 -3 -14 2 -20 24
-24 15 -3 28 -5 29 -4 1 1 4 14 8 30 5 22 2 29 -18 38 -15 7 -26 23 -30 41 -3
18 -14 32 -25 35 -11 3 -22 12 -25 21 -3 10 -9 22 -12 29 -3 8 10 14 40 18 25
4 45 10 44 14 -2 22 4 41 12 36 6 -3 7 1 4 10 -5 12 -14 14 -36 9 -26 -5 -44
-1 -86 22 -1 1 3 14 10 29 10 23 10 28 -5 36 -14 8 -15 13 -5 29 10 16 10 23
-2 34 -12 12 -23 13 -57 4 -25 -6 -58 -7 -80 -3 -23 5 -31 10 -20 12 9 3 17 9
17 14 0 5 3 8 8 7 8 -3 12 5 12 26 0 18 -29 29 -44 17 -16 -13 -67 -22 -88
-15 -30 9 -20 24 16 24 56 0 106 27 122 65 16 38 34 46 34 15z m194 -27 c-20
-14 -64 -18 -64 -5 0 17 14 22 48 20 30 -2 32 -4 16 -15z m-639 -23 c-3 -5
-10 -10 -16 -10 -5 0 -9 5 -9 10 0 6 7 10 16 10 8 0 12 -4 9 -10z m-1635 -40
c0 -5 -4 -10 -9 -10 -6 0 -13 5 -16 10 -3 6 1 10 9 10 9 0 16 -4 16 -10z
m1739 -16 c9 -8 -13 -24 -35 -24 -23 0 -32 18 -17 33 6 6 42 0 52 -9z m-1934
-4 c3 -5 1 -10 -4 -10 -6 0 -11 5 -11 10 0 6 2 10 4 10 3 0 8 -4 11 -10z m22
-57 c3 -7 -3 -9 -16 -6 -12 3 -21 10 -21 15 0 13 32 6 37 -9z m-227 -3 c0 -12
-28 -25 -36 -17 -9 9 6 27 22 27 8 0 14 -5 14 -10z m2764 -9 c18 -7 16 -9 -15
-21 -85 -34 -104 -30 -51 9 29 22 37 24 66 12z m-3054 -21 c-6 -11 -15 -18
-20 -15 -13 8 0 35 16 35 12 0 12 -4 4 -20z m640 11 c0 -5 3 -16 6 -25 4 -12
0 -16 -15 -16 -22 0 -25 8 -15 34 7 17 24 22 24 7z m2490 -21 c0 -14 -46 -31
-65 -24 -12 5 -13 9 -4 20 13 16 69 19 69 4z m-2910 -40 c0 -10 -26 -20 -48
-20 -23 0 -46 16 -39 27 7 10 87 4 87 -7z m-360 0 c0 -5 -2 -10 -4 -10 -3 0
-8 5 -11 10 -3 6 -1 10 4 10 6 0 11 -4 11 -10z m555 0 c-3 -5 -12 -7 -20 -3
-21 7 -19 13 6 13 11 0 18 -4 14 -10z m2369 -19 c6 -10 -16 -21 -41 -21 -13 0
-13 3 -3 15 14 17 36 20 44 6z m-2820 -10 c3 -5 -1 -11 -9 -15 -9 -3 -15 -18
-15 -39 0 -36 -19 -60 -57 -71 -24 -8 -28 -22 -14 -45 7 -11 13 -11 32 0 13 7
42 15 64 19 33 4 40 9 39 26 0 20 2 21 30 11 45 -14 52 -25 22 -33 -24 -6 -37
-24 -17 -24 5 0 11 -9 14 -20 6 -22 -8 -28 -16 -7 -4 9 -8 8 -16 -3 -16 -23
-13 -33 9 -27 11 3 22 2 25 -3 2 -4 23 -10 45 -14 62 -10 38 -26 -40 -26 -38
0 -72 -5 -75 -10 -4 -6 8 -24 25 -41 27 -28 33 -30 48 -17 9 8 30 20 46 28 16
8 34 27 40 43 7 19 17 27 35 27 23 0 23 1 7 13 -39 29 5 84 46 58 12 -8 44
-15 70 -16 39 -2 49 1 53 16 4 11 15 19 25 19 20 0 34 38 24 64 -7 19 17 22
47 5 11 -6 33 -11 50 -11 16 -1 29 -5 29 -10 0 -7 -18 -12 -47 -11 -7 1 -13
-6 -13 -14 0 -8 -5 -11 -12 -7 -7 4 -8 3 -4 -4 4 -6 13 -9 21 -5 8 3 15 0 15
-6 0 -6 9 -11 19 -11 11 0 23 -5 27 -11 5 -8 -1 -10 -18 -6 -17 5 -30 2 -38
-8 -7 -8 -20 -15 -30 -15 -9 0 -25 -9 -34 -19 -10 -11 -30 -21 -44 -23 l-27
-3 25 -23 c17 -16 21 -25 13 -33 -7 -7 -17 -2 -32 19 -11 17 -21 35 -21 41 0
18 -18 12 -34 -11 -9 -13 -12 -26 -7 -32 26 -31 16 -47 -39 -67 -30 -10 -64
-29 -75 -40 -11 -12 -15 -19 -9 -16 7 4 23 -2 36 -13 14 -11 28 -17 30 -14 14
13 48 11 62 -5 16 -18 8 -22 -126 -58 -14 -3 -16 -8 -8 -23 14 -26 -30 -75
-60 -67 -11 3 -23 1 -26 -4 -3 -5 0 -9 5 -9 26 0 8 -20 -24 -26 -25 -4 -35
-11 -33 -22 2 -11 -19 -28 -65 -52 -40 -21 -73 -46 -80 -60 -8 -16 -28 -30
-55 -38 -27 -9 -42 -20 -42 -30 0 -10 -17 -29 -38 -44 -41 -29 -62 -65 -86
-148 -21 -74 -30 -203 -16 -230 9 -16 8 -22 -5 -26 -12 -5 -14 -15 -9 -41 6
-29 3 -35 -15 -40 -11 -3 -21 -8 -21 -12 0 -3 -3 -16 -6 -28 -5 -19 -2 -23 18
-23 17 0 27 8 35 28 l11 27 1 -36 c1 -20 -6 -53 -14 -73 -9 -20 -13 -41 -10
-46 8 -13 -6 -41 -17 -34 -5 3 -8 0 -7 -7 5 -28 -22 -67 -42 -62 -23 6 -24 -5
-4 -31 20 -26 19 -53 -2 -64 -16 -10 -14 -22 9 -53 9 -14 8 -23 -7 -45 -11
-17 -18 -42 -16 -62 2 -22 -2 -34 -13 -38 -23 -9 -20 -29 6 -41 18 -8 22 -19
25 -72 l3 -63 -53 7 c-71 10 -87 19 -58 34 19 10 21 18 15 44 -3 17 -12 40
-18 50 -8 15 -8 21 2 24 6 3 12 13 12 23 0 10 3 21 8 23 5 4 6 183 1 257 -4
43 13 246 21 255 10 12 11 18 13 118 1 45 7 71 16 76 14 9 7 51 -12 62 -11 8
-17 227 -6 249 4 9 10 51 13 94 4 61 10 84 26 101 11 12 20 28 20 36 0 8 7 25
16 37 8 12 12 26 9 32 -3 5 3 27 15 49 11 22 22 63 24 92 3 42 8 54 25 61 14
5 21 16 21 34 0 17 6 28 20 31 10 3 29 24 40 48 11 24 30 45 40 48 13 3 20 14
20 30 0 14 5 29 11 32 6 4 8 13 5 21 -3 8 6 26 19 40 14 15 25 31 25 35 0 5 8
9 18 9 10 0 29 11 42 25 24 26 45 32 54 16z m2493 -7 c2 -6 -16 -10 -47 -11
-27 0 -47 3 -45 7 3 5 -5 10 -17 12 -13 2 6 4 41 4 36 -1 66 -6 68 -12z
m-2122 -21 c30 -16 55 -32 55 -36 0 -16 -33 -20 -44 -5 -6 8 -28 21 -48 28
-38 14 -59 40 -32 40 8 0 39 -12 69 -27z m-285 2 c10 -12 7 -15 -14 -21 -35
-8 -52 4 -29 22 23 17 28 17 43 -1z m395 5 c4 -6 -5 -10 -20 -10 -15 0 -24 4
-20 10 3 6 12 10 20 10 8 0 17 -4 20 -10z m65 -4 c0 -3 -4 -8 -10 -11 -5 -3
-10 -1 -10 4 0 6 5 11 10 11 6 0 10 -2 10 -4z m-360 -18 c0 -29 -13 -58 -25
-58 -20 0 -37 27 -30 50 7 22 55 29 55 8z m2118 -56 c7 -5 10 -16 6 -25 -4
-12 -14 -15 -37 -11 -59 10 -64 15 -32 29 36 16 46 17 63 7z m-2034 -9 c8 -8
13 -9 41 -12 24 -2 17 -20 -10 -27 -25 -6 -65 17 -65 38 0 10 24 11 34 1z
m-454 -18 c0 -8 -9 -15 -20 -15 -22 0 -27 15 -7 23 21 9 27 7 27 -8z m367 9
c-3 -3 -12 -4 -19 -1 -8 3 -5 6 6 6 11 1 17 -2 13 -5z m-810 -66 c-3 -8 -6 -5
-6 6 -1 11 2 17 5 13 3 -3 4 -12 1 -19z m3071 2 c3 -9 -2 -11 -19 -7 -13 4
-37 7 -54 7 -17 0 -25 4 -18 8 18 12 87 6 91 -8z m-3083 -87 c-4 -27 -10 -52
-15 -58 -4 -5 -13 -27 -19 -47 -10 -31 -41 -72 -41 -55 0 3 14 46 31 94 17 48
32 94 35 101 9 31 16 7 9 -35z m3230 -13 c9 -15 -36 -23 -51 -9 -11 12 -9 14
16 16 16 1 32 -2 35 -7z m93 -9 c3 -8 -1 -12 -9 -9 -7 2 -15 10 -17 17 -3 8 1
12 9 9 7 -2 15 -10 17 -17z m-3407 -184 c-8 -8 -11 -7 -11 4 0 9 3 19 7 23 4
4 9 2 11 -4 3 -7 -1 -17 -7 -23z m-20 -50 c-8 -8 -11 -7 -11 4 0 9 3 19 7 23
4 4 9 2 11 -4 3 -7 -1 -17 -7 -23z m-33 -89 c-6 -18 -13 -27 -15 -21 -4 11 13
53 22 53 2 0 -1 -15 -7 -32z m-31 -110 c-3 -8 -6 -5 -6 6 -1 11 2 17 5 13 3
-3 4 -12 1 -19z m4403 -229 c0 -13 6 -18 23 -16 19 2 22 -2 19 -30 -2 -25 1
-33 12 -33 9 0 16 -4 16 -10 0 -15 -9 -13 -46 11 -19 11 -34 26 -34 33 0 7 -9
21 -20 31 -28 25 -26 43 5 37 16 -3 25 -11 25 -23z m-4461 -133 c-8 -8 -10 2
-5 44 9 87 10 88 13 26 3 -36 0 -63 -8 -70z m4342 28 c4 -16 7 -26 8 -22 0 4
13 -5 28 -20 29 -29 39 -64 16 -55 -8 3 -13 -3 -13 -16 0 -34 -28 -24 -45 16
-9 21 -21 40 -27 44 -9 6 -8 12 1 23 8 10 11 26 7 42 -5 19 -3 25 6 22 7 -3
16 -18 19 -34z m139 -48 c0 -3 -4 -8 -10 -11 -5 -3 -10 -1 -10 4 0 6 5 11 10
11 6 0 10 -2 10 -4z m-4474 -118 c-3 -40 -12 -104 -20 -143 -13 -59 -15 -62
-10 -20 2 28 7 99 11 159 4 72 9 103 15 92 5 -9 7 -48 4 -88z m4509 7 c9 -27
20 -57 24 -65 5 -9 12 -40 16 -69 4 -29 13 -55 21 -58 11 -4 10 -10 -4 -31 -9
-15 -20 -30 -25 -33 -5 -4 -6 -15 -3 -26 4 -13 -1 -26 -13 -37 -19 -18 -21
-17 -44 8 -14 15 -35 26 -49 26 -14 0 -31 7 -38 15 -7 8 -19 15 -26 15 -8 0
-14 3 -14 8 0 14 38 31 59 25 15 -4 21 -1 21 12 0 14 -3 15 -14 6 -10 -9 -15
-8 -20 4 -3 8 -14 15 -25 15 -26 0 -35 27 -11 35 10 3 31 3 47 0 25 -6 26 -5
11 8 -10 8 -18 19 -18 25 0 5 -7 13 -16 16 -9 4 -14 9 -11 12 3 3 18 -1 34 -9
26 -14 31 -14 53 4 21 16 23 20 10 28 -12 8 -12 14 -1 34 8 15 10 31 5 38 -10
16 -13 51 -6 63 7 12 19 -11 37 -69z m-80 -25 c8 -13 -5 -13 -25 0 -13 8 -13
10 2 10 9 0 20 -4 23 -10z m-4468 -252 c-3 -8 -6 -5 -6 6 -1 11 2 17 5 13 3
-3 4 -12 1 -19z m4573 -123 c0 -33 -4 -45 -15 -45 -16 0 -38 34 -28 43 3 4 0
13 -7 22 -11 13 -10 14 4 9 9 -3 16 -1 16 5 0 6 7 11 15 11 11 0 15 -12 15
-45z m-34 -187 c9 -30 25 -40 41 -26 19 15 17 -10 -2 -29 -13 -13 -18 -13 -32
-2 -14 12 -15 11 -8 -9 6 -20 4 -23 -12 -20 -13 2 -18 12 -19 38 -1 67 17 94
32 48z m-26 -148 c0 -5 -2 -10 -4 -10 -3 0 -8 5 -11 10 -3 6 -1 10 4 10 6 0
11 -4 11 -10z m30 -30 c0 -5 -2 -10 -4 -10 -3 0 -8 5 -11 10 -3 6 -1 10 4 10
6 0 11 -4 11 -10z m-4072 -126 c26 -7 29 -30 6 -56 -16 -16 -18 -16 -29 -2 -9
13 -16 14 -31 6 -14 -7 -24 -6 -38 4 -23 16 -17 24 27 40 41 15 38 15 65 8z
m-118 -64 c0 -5 -2 -10 -4 -10 -3 0 -8 5 -11 10 -3 6 -1 10 4 10 6 0 11 -4 11
-10z m48 -26 c22 -6 22 -8 7 -31 -20 -30 -13 -53 12 -47 13 4 23 -2 30 -18 22
-46 22 -56 0 -62 -24 -6 -47 16 -47 46 0 10 -6 18 -13 18 -7 0 -31 8 -52 19
l-39 19 34 31 c38 34 36 33 68 25z m-98 -169 c-7 -8 -16 -15 -21 -15 -5 0 -9
7 -9 15 0 9 9 15 21 15 18 0 19 -2 9 -15z m310 5 c0 -5 -4 -10 -10 -10 -5 0
-10 5 -10 10 0 6 5 10 10 10 6 0 10 -4 10 -10z m-95 -24 c26 -7 27 -9 12 -17
-22 -13 -99 -7 -104 7 -5 14 39 34 52 24 6 -4 23 -10 40 -14z m-132 -2 c10
-10 -44 -53 -59 -47 -18 7 -18 13 4 34 17 18 44 24 55 13z m-247 -72 c-3 -5 6
-25 19 -44 13 -20 25 -52 27 -72 1 -25 7 -36 18 -36 9 0 23 -20 34 -48 10 -26
29 -58 41 -72 12 -14 40 -50 60 -80 47 -68 76 -100 93 -100 6 0 12 -4 12 -10
0 -5 -6 -10 -14 -10 -23 0 -28 -17 -11 -33 8 -9 15 -20 15 -25 0 -5 20 -31 45
-58 44 -48 55 -77 35 -89 -17 -11 -11 -20 14 -21 27 -2 66 -36 66 -58 0 -8 5
-18 11 -21 6 -4 8 -13 5 -21 -3 -8 -1 -14 4 -14 6 0 10 5 10 12 0 6 2 9 5 6 3
-3 1 -17 -4 -32 -9 -23 -8 -26 10 -26 16 0 34 -8 77 -36 4 -3 -19 -43 -36 -66
-18 -21 -8 -38 22 -38 22 0 35 -21 36 -56 0 -14 -48 -15 -72 -3 -28 15 -68 -6
-68 -36 0 -25 0 -25 31 -10 42 22 125 35 139 21 17 -17 11 -49 -15 -88 -29
-43 -30 -51 -10 -68 10 -8 15 -9 15 -2 0 6 12 24 26 39 l27 28 -8 -50 c-4 -30
-18 -65 -36 -89 -20 -28 -27 -46 -23 -63 5 -18 1 -25 -21 -33 -14 -5 -28 -10
-31 -10 -8 0 -34 72 -29 80 3 5 -3 11 -13 14 -9 3 -28 26 -42 51 -14 25 -28
45 -33 45 -4 0 -6 12 -5 27 2 21 -2 28 -22 33 -18 4 -27 16 -35 44 -7 25 -20
43 -38 53 -15 7 -27 19 -27 26 0 7 -16 25 -35 40 -19 15 -35 35 -35 43 0 8
-22 42 -50 75 -27 33 -50 66 -50 74 0 7 -4 15 -9 17 -14 5 -91 125 -91 142 0
8 -11 27 -24 41 -13 14 -26 39 -30 57 -3 17 -25 60 -47 96 -23 36 -43 78 -44
93 -1 16 -7 34 -13 41 -8 11 -9 111 -1 138 1 3 0 13 -1 23 -1 10 10 29 24 42
16 15 23 30 20 39 -4 11 -1 16 10 16 12 0 16 10 16 35 0 32 2 35 31 35 16 0
28 -4 25 -8z m249 -53 c-4 -5 -16 -9 -28 -9 -20 0 -20 0 -2 14 21 15 40 12 30
-5z m100 10 c10 -15 -1 -22 -24 -14 -12 3 -19 11 -16 16 8 12 32 11 40 -2z
m128 -46 c-7 -2 -19 -2 -25 0 -7 3 -2 5 12 5 14 0 19 -2 13 -5z m-257 -25 c7
-5 16 -2 24 7 14 17 40 20 40 6 0 -6 -4 -13 -10 -16 -6 -4 -4 -15 6 -30 17
-25 2 -47 -19 -26 -6 6 -22 11 -36 11 -30 1 -85 45 -76 60 7 11 52 3 71 -12z
m4163 13 c9 -6 10 -10 2 -16 -15 -8 -41 1 -41 15 0 12 20 13 39 1z m-169 -31
c0 -5 -4 -10 -9 -10 -6 0 -13 5 -16 10 -3 6 1 10 9 10 9 0 16 -4 16 -10z
m-3920 -121 c0 -5 -9 -9 -20 -9 -19 0 -26 11 -14 23 8 8 34 -3 34 -14z m3945
-19 c3 -5 -3 -10 -14 -10 -12 0 -21 5 -21 10 0 6 6 10 14 10 8 0 18 -4 21 -10z
m-3938 -76 c-3 -3 -12 -4 -19 -1 -8 3 -5 6 6 6 11 1 17 -2 13 -5z m-502 -64
c3 -5 1 -10 -4 -10 -6 0 -11 5 -11 10 0 6 2 10 4 10 3 0 8 -4 11 -10z m4525
-10 c0 -5 -7 -10 -16 -10 -8 0 -12 5 -9 10 3 6 10 10 16 10 5 0 9 -4 9 -10z
m-3780 -124 c0 -9 -30 -14 -35 -6 -4 6 3 10 14 10 12 0 21 -2 21 -4z m3475
-36 c3 -5 1 -10 -4 -10 -6 0 -11 5 -11 10 0 6 2 10 4 10 3 0 8 -4 11 -10z
m-4135 -65 c0 -8 -7 -15 -15 -15 -8 0 -15 7 -15 15 0 8 7 15 15 15 8 0 15 -7
15 -15z m-30 -46 c0 -6 -4 -7 -10 -4 -5 3 -10 11 -10 16 0 6 5 7 10 4 6 -3 10
-11 10 -16z m83 -29 c23 0 42 -29 29 -42 -9 -9 -12 -9 -12 0 0 7 -7 12 -15 12
-24 0 -17 -26 10 -38 14 -7 32 -12 39 -12 8 0 23 -16 35 -35 12 -21 28 -35 40
-35 12 0 23 -9 27 -22 4 -13 11 -26 17 -29 5 -4 0 -10 -11 -13 -35 -11 -34
-34 1 -50 18 -8 41 -16 52 -18 11 -2 21 -11 23 -21 3 -14 -2 -16 -25 -11 -35
7 -63 -27 -42 -52 9 -11 9 -17 -1 -29 -7 -8 -16 -12 -21 -9 -5 3 -9 1 -9 -3 0
-13 90 -43 130 -43 38 -1 102 -50 115 -89 6 -19 4 -20 -24 -10 -17 6 -34 15
-37 20 -3 5 -13 9 -24 9 -13 0 -17 -5 -13 -20 3 -11 0 -20 -5 -20 -15 0 -30
32 -24 49 3 10 0 12 -11 8 -9 -3 -18 0 -21 9 -8 20 -33 17 -46 -5 -14 -27 -13
-31 6 -31 24 0 45 -32 32 -48 -9 -10 -13 -8 -22 10 -6 13 -21 27 -33 33 -16 7
-21 15 -17 31 5 18 -1 24 -30 34 -28 9 -36 17 -36 36 0 14 -7 27 -15 30 -8 4
-15 18 -15 34 0 26 -20 52 -50 63 -13 5 -13 6 1 6 9 1 24 10 33 20 15 16 16
22 4 43 -7 12 -17 26 -23 31 -6 4 -4 11 5 17 13 9 10 14 -15 35 -24 20 -27 27
-17 37 11 11 16 10 26 -4 7 -10 21 -18 31 -18 29 0 1 25 -45 40 -28 9 -42 21
-46 36 -5 20 -9 21 -29 12 -13 -6 -32 -7 -42 -3 -14 7 -11 10 17 14 29 5 35
11 37 31 0 14 1 29 2 34 1 4 12 1 26 -8 13 -9 31 -16 38 -16z m-103 -10 c-19
-13 -30 -13 -30 0 0 6 10 10 23 10 18 0 19 -2 7 -10z m910 6 c0 -11 -19 -15
-25 -6 -3 5 1 10 9 10 9 0 16 -2 16 -4z m-820 -226 c0 -5 -2 -10 -4 -10 -3 0
-8 5 -11 10 -3 6 -1 10 4 10 6 0 11 -4 11 -10z m20 -20 c0 -5 -5 -10 -11 -10
-5 0 -7 5 -4 10 3 6 8 10 11 10 2 0 4 -4 4 -10z m704 -46 c9 -23 8 -24 -14
-24 -11 0 -20 2 -20 4 0 12 13 36 20 36 4 0 11 -7 14 -16z m-504 -53 c0 -6 -4
-13 -10 -16 -5 -3 -10 1 -10 9 0 9 5 16 10 16 6 0 10 -4 10 -9z m520 -26 c-7
-9 -15 -13 -17 -11 -6 6 20 36 26 30 2 -2 -2 -10 -9 -19z m-505 -25 c-3 -5
-13 -10 -21 -10 -8 0 -12 5 -9 10 3 6 13 10 21 10 8 0 12 -4 9 -10z m-105
-204 c0 -3 -4 -8 -10 -11 -5 -3 -10 -1 -10 4 0 6 5 11 10 11 6 0 10 -2 10 -4z
m210 -21 c19 -23 6 -43 -24 -38 -14 3 -26 9 -26 13 0 5 -3 15 -6 24 -8 21 39
22 56 1z m-169 -48 c7 -18 23 -41 37 -52 31 -26 28 -71 -5 -68 -16 2 -20 -2
-16 -17 3 -11 0 -20 -5 -20 -14 0 -52 40 -52 54 -2 22 -2 131 -1 138 2 17 30
-6 42 -35z m269 12 c0 -5 -4 -9 -10 -9 -5 0 -10 7 -10 16 0 8 5 12 10 9 6 -3
10 -10 10 -16z m40 -28 c0 -14 -18 -23 -30 -16 -6 4 -8 11 -5 16 8 12 35 12
35 0z m-1158 -47 c9 -20 9 -27 -1 -34 -7 -4 -15 -23 -17 -41 -2 -19 -11 -54
-20 -77 -12 -32 -15 -59 -10 -102 10 -83 -39 -340 -64 -340 -17 0 -41 -72 -54
-160 l-13 -85 -7 45 c-8 50 -5 119 18 375 37 422 43 444 124 445 25 0 35 -6
44 -26z m1154 -112 c-12 -11 -18 7 -10 30 l8 23 4 -23 c2 -13 1 -26 -2 -30z
m-202 3 c3 -8 1 -15 -4 -15 -6 0 -10 7 -10 15 0 8 2 15 4 15 2 0 6 -7 10 -15z
m-20 -54 c-5 -5 -33 30 -34 43 0 4 9 -2 19 -15 11 -13 17 -26 15 -28z m-484
-13 c6 -24 16 -57 21 -74 5 -17 9 -48 9 -69 0 -30 3 -36 12 -27 17 17 48 15
48 -3 0 -8 -9 -20 -20 -27 -11 -7 -20 -18 -20 -24 0 -6 -17 -28 -38 -50 -21
-21 -37 -45 -34 -52 2 -6 8 -10 13 -6 5 3 9 -1 9 -8 0 -13 52 -48 72 -48 5 0
17 -7 26 -16 15 -16 10 -16 -68 -10 -47 4 -87 10 -90 13 -2 2 3 18 12 34 9 16
15 29 13 29 -2 0 -10 3 -18 6 -21 8 -49 -24 -42 -47 6 -18 0 -19 -107 -20 -62
0 -146 -6 -186 -13 -40 -7 -74 -10 -76 -7 -7 14 11 122 23 134 10 10 15 9 25
-5 12 -16 15 -15 40 12 14 17 30 30 35 30 15 0 22 33 9 42 -9 5 -10 8 -1 8 20
0 61 44 68 72 4 14 21 39 38 56 31 29 180 110 204 112 7 0 17 -19 23 -42z
m870 -18 c0 -5 -4 -10 -10 -10 -5 0 -10 5 -10 10 0 6 5 10 10 10 6 0 10 -4 10
-10z m-790 -341 c0 -5 -4 -9 -10 -9 -5 0 -10 7 -10 16 0 8 5 12 10 9 6 -3 10
-10 10 -16z m1070 -169 c0 -5 -4 -10 -10 -10 -5 0 -10 5 -10 10 0 6 5 10 10
10 6 0 10 -4 10 -10z m-1147 -414 c3 -8 20 -17 38 -21 18 -4 42 -16 53 -27 20
-18 21 -18 25 -1 3 19 35 53 48 53 13 -1 63 -48 63 -60 0 -5 5 -10 10 -10 6 0
10 6 10 14 0 13 20 26 40 26 4 0 7 -8 6 -17 0 -10 7 -19 17 -21 10 -2 17 3 17
12 0 21 45 12 75 -14 14 -13 26 -15 42 -9 32 12 67 -21 87 -80 9 -27 16 -58
16 -69 0 -11 10 -32 22 -47 12 -16 22 -38 23 -48 0 -35 25 -32 25 3 0 21 8 38
22 50 19 15 20 20 10 33 -10 11 -10 16 -1 19 9 3 9 9 0 26 -7 13 -8 22 -2 22
6 0 15 -10 22 -21 6 -12 26 -42 45 -66 19 -25 34 -49 34 -55 0 -6 11 -26 24
-43 14 -18 28 -45 32 -61 4 -16 13 -38 20 -49 18 -26 18 -50 -1 -69 -14 -14
-13 -16 10 -22 19 -5 30 -1 41 12 14 19 14 19 29 0 14 -19 15 -18 21 12 4 18
8 32 10 32 9 0 49 -25 56 -35 4 -5 10 -6 13 -3 4 4 2 13 -4 20 -51 60 -91 118
-81 118 6 0 19 -14 28 -31 10 -18 28 -32 45 -36 27 -5 28 -9 31 -70 1 -10 7
-22 14 -26 15 -10 16 -34 0 -39 -15 -5 -1 -28 17 -28 9 0 12 6 9 15 -9 21 12
19 21 -2 5 -10 7 -26 6 -35 -1 -9 5 -28 14 -41 15 -24 15 -24 -22 -21 -53 3
-53 3 -53 15 0 6 -10 42 -21 80 -18 61 -24 70 -43 67 -33 -5 -23 -37 39 -133
30 -47 55 -90 55 -96 0 -6 5 -7 11 -4 16 11 59 -4 59 -20 0 -8 -6 -15 -14 -15
-28 0 -34 -54 -12 -103 8 -18 19 -48 25 -67 l9 -35 1 35 c1 23 8 39 21 47 11
7 24 27 30 45 8 28 9 24 5 -27 -5 -53 -3 -62 16 -79 12 -10 17 -21 12 -25 -5
-3 -21 -32 -36 -63 -32 -71 -76 -128 -99 -128 -21 0 -24 -16 -5 -23 8 -2 -1
-21 -26 -52 -21 -27 -35 -55 -32 -63 8 -20 -4 -52 -19 -52 -7 0 -25 -13 -41
-30 -30 -32 -55 -39 -55 -17 0 8 9 22 20 32 11 10 20 22 20 27 0 17 -22 7 -52
-22 -25 -25 -33 -28 -45 -18 -12 10 -21 5 -48 -28 -34 -39 -44 -64 -25 -64 6
0 10 -7 10 -15 0 -13 -38 -22 -72 -16 -5 0 -8 -7 -8 -18 0 -11 -12 -23 -30
-31 -16 -7 -30 -16 -30 -20 0 -4 -13 -13 -30 -20 -16 -7 -30 -18 -30 -26 0
-20 31 -34 52 -23 10 6 19 5 23 -1 3 -5 -5 -15 -19 -21 -20 -9 -29 -9 -42 2
-14 11 -17 11 -25 -4 -6 -9 -19 -17 -29 -17 -11 0 -20 -4 -20 -9 0 -6 -17 -20
-39 -33 -30 -18 -36 -26 -26 -35 10 -9 21 -7 51 9 22 11 48 29 60 39 26 24 53
27 34 4 -18 -22 -3 -32 23 -15 12 7 34 20 50 28 15 7 27 17 27 22 0 5 17 17
38 26 20 10 48 26 61 36 13 10 41 23 62 28 32 9 39 15 39 35 0 26 -9 31 -25
16 -6 -4 -35 -20 -66 -34 -52 -23 -56 -23 -52 -6 6 23 18 32 63 49 19 7 47 24
61 37 16 15 29 21 33 14 7 -10 61 -9 111 3 l30 7 -40 -35 c-22 -20 -45 -36
-51 -36 -6 0 -27 -13 -45 -30 -19 -16 -38 -30 -43 -30 -5 0 -24 -11 -42 -25
-18 -14 -37 -25 -42 -25 -5 0 -12 -8 -16 -17 -3 -10 -9 -24 -12 -32 -9 -20 31
-4 86 33 44 30 50 37 50 54 0 12 59 2 67 -11 4 -6 -2 -8 -15 -5 -22 6 -35 -4
-90 -69 -15 -18 -38 -34 -52 -35 -14 -2 -31 -8 -38 -15 -7 -7 -19 -10 -27 -7
-8 4 -15 1 -15 -5 0 -6 -10 -11 -22 -11 -12 0 -28 -7 -37 -15 -55 -51 -118
-95 -137 -95 -3 0 -4 8 -2 18 4 15 0 17 -29 14 -18 -2 -40 1 -48 8 -17 14 -19
7 -5 -20 7 -14 7 -25 -2 -39 -16 -26 -3 -39 22 -23 25 16 50 15 50 0 -1 -14
-64 -58 -83 -58 -26 0 -94 -45 -110 -71 -16 -28 -15 -29 9 -34 13 -3 35 -7 49
-10 29 -6 33 -20 8 -29 -10 -3 -26 -11 -36 -18 -14 -11 -19 -10 -27 2 -7 10
-10 11 -10 2 0 -7 -8 -16 -17 -19 -24 -9 -63 -51 -63 -68 0 -10 13 -6 43 14
23 16 60 34 82 41 22 7 46 17 53 23 9 7 16 7 24 -1 18 -18 43 -14 63 8 10 12
25 18 32 16 7 -3 21 4 32 15 16 17 23 19 40 10 12 -7 21 -19 21 -27 0 -11 6
-13 21 -9 26 9 69 -2 69 -17 0 -13 -30 -37 -47 -38 -7 0 -13 7 -13 16 0 13 -7
15 -36 11 -20 -3 -42 -14 -50 -24 -7 -10 -14 -14 -14 -9 0 5 -7 3 -15 -4 -8
-7 -15 -10 -15 -6 0 10 -56 -21 -84 -47 -27 -26 -33 -44 -21 -71 6 -15 2 -24
-21 -40 -15 -11 -37 -31 -47 -43 -11 -12 -26 -19 -33 -16 -10 4 -12 0 -8 -11
8 -20 53 -21 60 -1 4 10 13 13 25 10 14 -5 17 -2 13 9 -4 10 -1 16 9 16 9 0
22 7 31 15 8 9 19 15 23 14 18 -3 33 2 33 10 0 5 -10 7 -22 3 -21 -5 -21 -5
-2 21 27 37 58 49 76 30 14 -13 22 -13 79 2 35 10 75 20 88 23 l24 5 -19 -26
c-17 -24 -31 -29 -105 -41 -44 -7 -104 -43 -130 -77 -13 -18 -43 -51 -65 -75
-23 -23 -45 -51 -48 -62 -9 -28 20 -37 37 -11 8 11 30 28 48 38 19 10 47 25
63 34 27 15 31 15 42 0 11 -16 14 -16 38 0 14 10 26 21 26 25 0 4 11 8 24 8
22 2 23 0 13 -17 -6 -10 -15 -19 -18 -19 -4 0 -10 -11 -13 -25 -4 -16 -11 -22
-21 -19 -8 4 -21 2 -28 -4 -6 -5 -24 -12 -39 -16 -16 -3 -53 -31 -84 -61 -31
-30 -65 -57 -75 -60 -11 -4 -17 -10 -14 -14 2 -5 -7 -19 -20 -31 -19 -18 -22
-26 -13 -32 10 -6 8 -12 -7 -23 -11 -9 -25 -13 -32 -11 -7 3 -13 0 -13 -7 0
-7 -13 -21 -30 -30 -38 -23 -39 -40 -2 -31 33 8 122 64 122 77 0 13 31 36 49
37 8 0 29 12 48 26 18 14 43 27 54 29 12 2 42 18 68 34 37 24 61 31 126 36 44
3 92 9 108 11 25 5 27 3 27 -25 0 -28 -3 -31 -32 -32 -80 -2 -81 -3 -93 -38
-12 -38 -36 -51 -75 -44 -18 3 -31 -2 -45 -18 l-20 -22 21 11 c12 7 25 7 30 2
14 -14 87 -15 112 -1 22 12 23 14 7 30 -15 17 -13 19 32 34 55 18 77 8 37 -18
-20 -13 -23 -19 -13 -25 18 -12 -3 -36 -39 -44 -31 -7 -68 -33 -60 -42 4 -3
17 1 30 9 12 9 41 19 63 23 22 4 42 10 45 13 10 14 70 52 70 45 0 -3 7 -1 15
6 12 10 15 10 15 0 0 -6 -9 -14 -20 -17 -11 -3 -20 -14 -20 -24 0 -19 -74 -69
-102 -69 -9 0 -26 -9 -39 -20 l-24 -21 43 7 c39 5 43 4 40 -12 -2 -12 -19 -24
-43 -32 -22 -7 -42 -18 -46 -23 -4 -7 -13 -6 -28 2 -17 11 -25 11 -41 1 -11
-6 -32 -12 -48 -12 -35 0 -72 -26 -72 -51 0 -24 11 -24 44 2 18 14 34 19 54
15 16 -4 39 0 56 9 15 8 37 15 48 15 11 0 35 12 53 26 19 14 36 25 39 25 3 0
22 9 42 21 26 15 34 26 31 40 -7 25 50 85 94 99 67 21 89 32 89 42 0 5 8 16
18 24 15 12 11 13 -35 8 -29 -4 -60 -2 -71 4 -13 7 -31 7 -52 1 -28 -8 -35 -6
-51 13 -15 18 -18 19 -19 5 0 -18 -18 -34 -27 -24 -3 3 0 12 7 21 7 8 10 22 6
30 -3 10 1 15 12 15 9 0 22 10 27 23 6 12 20 23 33 25 20 3 22 0 16 -23 l-6
-26 97 5 c53 2 102 9 108 15 19 19 56 12 73 -14 11 -17 22 -24 35 -20 24 8 67
-32 44 -41 -8 -3 -12 -10 -9 -15 4 -8 -53 -15 -80 -10 -4 1 -14 -3 -22 -10 -7
-6 -18 -8 -24 -4 -6 4 -18 1 -26 -6 -13 -11 -9 -15 27 -26 41 -12 82 -9 104 7
20 15 50 -6 50 -36 0 -26 4 -29 30 -29 36 0 49 -33 16 -42 -12 -3 -21 -10 -21
-15 0 -5 5 -6 10 -3 6 3 10 -3 10 -14 0 -20 -28 -30 -43 -14 -13 13 -66 13
-62 0 7 -17 -11 -41 -24 -33 -6 4 -11 18 -11 32 0 18 -5 24 -22 24 -13 0 -30
-5 -38 -10 -13 -9 -13 -12 2 -20 9 -6 15 -17 12 -25 -4 -8 -2 -15 4 -15 6 0
18 -3 28 -7 13 -5 15 -3 9 8 -7 11 -6 12 7 2 8 -7 18 -10 21 -7 11 12 56 -6
60 -24 2 -9 -5 -27 -15 -38 -19 -21 -19 -22 6 -28 19 -5 26 -13 26 -31 0 -26
15 -41 25 -25 4 6 11 8 16 5 21 -14 6 -22 -41 -22 -51 -1 -59 4 -38 25 19 19
-5 13 -29 -7 -13 -11 -23 -27 -23 -36 0 -14 6 -16 27 -10 35 8 34 8 61 0 28
-9 28 -35 -1 -69 -16 -18 -29 -25 -40 -20 -10 4 -17 1 -17 -6 0 -9 -14 -11
-52 -7 -30 4 -60 2 -68 -3 -13 -9 -11 -13 9 -31 18 -14 21 -23 13 -31 -8 -8
-15 -8 -27 2 -8 7 -24 10 -35 7 -11 -3 -18 -1 -15 3 10 17 -21 16 -62 -1 -23
-10 -58 -21 -77 -24 -19 -4 -47 -20 -62 -36 -15 -16 -36 -29 -46 -29 -10 0
-18 -6 -18 -13 0 -8 -9 -22 -20 -32 -11 -10 -20 -25 -21 -34 0 -10 -2 -12 -6
-3 -7 19 -21 15 -66 -21 -53 -42 -89 -59 -120 -59 -14 -1 -40 -14 -58 -30 -50
-46 -110 -82 -102 -61 4 11 3 14 -5 9 -7 -4 -12 -13 -12 -21 0 -7 -10 -17 -22
-20 -13 -4 -45 -29 -73 -55 -110 -106 -115 -110 -115 -87 0 13 31 46 98 104
45 39 54 58 22 48 -15 -5 -20 -2 -21 12 -1 17 -2 17 -6 1 -2 -10 -9 -18 -14
-18 -5 0 -35 -18 -65 -41 -48 -35 -55 -38 -49 -19 6 19 4 21 -17 15 -12 -4
-32 -16 -44 -26 -11 -11 -24 -19 -30 -19 -5 0 0 8 11 16 19 15 18 16 -20 11
-68 -8 -100 -17 -111 -33 -10 -12 -12 -10 -16 11 -3 14 -3 24 -1 21 6 -6 37
21 122 104 69 67 97 109 64 95 -43 -18 -63 -18 -64 1 0 14 -2 15 -6 4 -3 -8
-20 -29 -38 -46 -17 -17 -34 -37 -37 -45 -3 -8 -18 -15 -33 -17 -16 -1 -34 -7
-41 -13 -10 -8 -14 -8 -14 -1 0 6 5 14 11 17 6 4 8 14 5 22 -8 20 4 39 15 22
11 -18 53 3 97 49 21 22 38 32 49 28 9 -4 27 1 40 10 18 11 28 13 36 5 11 -11
54 19 128 90 29 28 45 37 53 30 8 -7 29 2 69 29 32 22 68 40 81 40 12 0 31 9
41 20 10 11 24 20 32 20 7 0 13 5 13 10 0 16 -37 11 -72 -10 -18 -11 -41 -20
-52 -20 -16 0 -33 -11 -93 -60 -18 -14 -23 -12 -23 8 0 20 34 55 63 65 9 4 17
11 17 17 0 5 5 10 11 10 7 0 22 11 35 25 13 14 28 25 34 25 5 0 10 7 10 15 0
14 11 19 37 16 6 -1 13 9 15 21 3 24 41 39 106 42 20 1 37 8 43 19 6 9 17 17
24 17 20 0 19 -10 -2 -27 -30 -24 44 -5 102 26 60 32 86 53 58 48 -10 -2 -25
-6 -33 -9 -88 -29 -85 -31 -34 18 26 24 51 44 56 44 4 0 8 4 8 8 0 5 -14 7
-30 4 -20 -3 -40 -17 -57 -39 -20 -26 -32 -34 -50 -30 -13 2 -23 0 -23 -5 0
-5 -5 -8 -12 -6 -29 10 -140 -51 -204 -110 -36 -34 -69 -62 -75 -62 -15 0 -10
19 11 40 24 24 25 30 6 30 -20 0 -27 27 -10 40 18 16 18 30 0 30 -9 0 -12 7
-9 20 6 22 18 26 28 10 3 -5 11 -10 17 -10 7 0 6 5 -1 14 -10 12 -7 18 18 31
30 15 42 35 20 35 -6 0 -8 9 -4 21 6 18 5 20 -6 11 -8 -7 -28 -23 -45 -37 -18
-14 -39 -39 -47 -57 -22 -46 -90 -125 -134 -158 -21 -15 -51 -44 -68 -64 -16
-20 -35 -36 -41 -36 -17 0 -57 -47 -46 -54 6 -3 17 1 25 9 9 8 20 15 26 15 6
0 28 18 50 41 23 22 45 38 51 34 5 -3 18 -1 29 5 20 10 51 4 51 -11 0 -5 -14
-16 -31 -25 -23 -11 -28 -18 -19 -24 7 -4 10 -15 7 -23 -7 -20 -109 -77 -136
-77 -22 0 -71 -26 -83 -45 -3 -5 -20 -25 -36 -43 -28 -31 -39 -26 -17 8 5 8
10 23 10 33 4 46 -135 -39 -158 -97 -6 -15 -10 -17 -19 -8 -9 9 -18 2 -37 -26
-53 -78 -149 -144 -139 -94 2 9 10 16 16 15 11 -3 17 35 13 79 -2 18 33 93 56
119 7 9 13 20 12 25 -5 27 2 43 16 38 8 -4 21 -1 29 5 7 6 20 9 28 6 8 -3 33
8 57 25 43 31 51 51 12 31 -16 -9 -22 -8 -29 6 -9 14 -11 14 -21 -5 -7 -12
-18 -22 -26 -22 -7 0 -15 -6 -18 -12 -2 -7 -8 -10 -12 -6 -5 5 0 17 10 28 39
43 -6 17 -53 -31 -28 -29 -53 -46 -56 -40 -4 5 3 15 14 21 11 6 20 20 20 30 0
13 7 20 19 20 12 0 23 11 30 30 5 16 15 30 20 30 6 0 11 7 11 15 0 22 -30 6
-40 -21 -6 -15 -15 -22 -24 -18 -15 6 -13 19 7 64 22 47 79 78 89 49 2 -6 15
-1 31 11 30 24 35 40 12 40 -8 0 -15 5 -15 11 0 13 -37 2 -72 -22 -28 -20 -78
-110 -78 -141 0 -10 -6 -18 -14 -18 -7 0 -19 -12 -25 -27 -22 -52 -100 -121
-121 -108 -13 8 -13 35 0 35 6 0 10 8 10 18 0 13 -5 11 -25 -12 -13 -16 -27
-37 -31 -48 -3 -11 -12 -17 -19 -15 -7 3 -18 0 -24 -6 -8 -8 -11 -7 -11 5 0 8
7 21 15 28 8 7 15 20 15 29 1 9 9 34 20 56 20 42 25 65 13 65 -13 0 -53 -44
-53 -59 -1 -29 -30 -56 -61 -56 l-30 0 7 52 c8 67 -8 70 -38 8 -12 -25 -28
-45 -35 -45 -16 0 -17 12 -1 28 9 9 9 12 0 12 -7 0 -12 12 -12 26 0 24 3 26
30 22 17 -3 34 0 38 6 13 18 34 97 27 104 -8 8 -25 -18 -25 -39 0 -9 -9 -24
-20 -34 -12 -11 -20 -13 -20 -6 0 6 -11 17 -25 23 -26 12 -31 32 -16 70 20 51
33 106 29 124 -2 15 -8 9 -26 -24 -12 -23 -22 -53 -22 -67 0 -13 -5 -27 -11
-30 -6 -4 -8 -13 -5 -21 6 -16 -12 -74 -24 -74 -15 0 -19 46 -9 85 9 32 8 41
-5 51 -20 14 -21 24 -2 24 23 0 46 53 31 73 -7 10 -16 13 -26 7 -11 -8 -12
-13 -2 -29 11 -17 10 -19 -2 -15 -8 4 -15 10 -15 15 0 5 -12 9 -26 9 -31 0
-64 17 -64 33 0 7 6 23 13 37 8 16 10 38 6 60 -5 23 -3 37 4 42 18 12 -2 9
-24 -3 -16 -8 -18 -13 -8 -25 17 -21 3 -29 -17 -10 -15 16 -15 18 0 35 9 10
16 25 16 34 0 9 13 24 29 33 28 16 45 46 34 58 -3 3 -25 -16 -49 -42 -32 -35
-43 -42 -44 -29 0 34 -23 12 -38 -38 -9 -28 -17 -52 -19 -54 -10 -13 -36 33
-39 66 -1 21 -2 46 -3 55 -1 11 -6 15 -15 12 -8 -3 -12 -12 -9 -20 3 -8 -1
-14 -11 -14 -9 0 -16 7 -16 15 0 23 -30 18 -40 -7 -8 -22 -9 -22 -9 4 -1 15 4
30 10 33 6 4 8 14 5 22 -3 8 -1 23 5 34 5 11 9 27 7 36 -2 11 -13 0 -32 -30
-17 -26 -34 -47 -39 -47 -5 0 -8 21 -7 48 3 77 2 78 -20 54 -11 -12 -20 -33
-20 -48 0 -27 -24 -64 -42 -64 -14 0 -9 37 7 50 16 13 20 31 8 29 -24 -4 -33
4 -33 30 0 17 -4 33 -10 36 -5 3 -10 -1 -10 -9 0 -9 -4 -16 -9 -16 -12 0 -25
31 -22 53 1 9 -4 17 -12 17 -11 0 -13 16 -10 77 2 42 9 95 15 117 6 23 11 60
12 84 0 29 4 41 13 38 15 -6 5 23 -14 42 -16 16 -17 29 -3 37 6 4 8 15 5 26
-4 12 9 46 37 97 30 54 43 89 43 119 1 31 11 56 40 100 32 47 40 67 40 108 1
28 7 60 14 73 7 13 10 30 7 38 -3 7 5 24 18 37 13 13 27 33 30 45 4 12 14 22
23 22 11 0 14 6 8 23 -16 52 -16 65 -1 80 18 18 21 43 6 52 -6 4 -8 11 -5 16
4 5 2 9 -3 9 -14 0 0 55 30 120 16 33 22 59 17 65 -14 14 -10 38 11 65 24 31
28 69 5 50 -20 -17 -19 -1 1 22 10 10 17 35 17 58 0 22 4 43 9 46 5 3 2 15 -8
25 -17 19 -15 21 16 23 9 1 14 10 13 24 -2 13 1 21 7 17 17 -10 33 5 20 20
-14 17 -1 48 17 41 9 -4 13 -1 10 6 -2 7 13 46 35 86 22 39 38 82 37 95 -3 25
17 67 31 67 6 0 10 -7 10 -15 0 -19 5 -19 37 2 15 10 36 16 49 15 31 -4 57 24
44 48 -10 18 -4 70 7 70 3 0 16 -12 29 -26 18 -19 30 -24 47 -19 32 10 41 21
33 42 -7 16 -9 16 -27 -7 l-19 -25 -30 35 c-36 43 -37 54 -5 127 14 31 26 67
27 80 1 13 5 23 8 23 3 0 28 20 55 45 28 26 51 41 55 35 7 -12 79 39 80 56 0
6 21 17 48 25 26 7 52 18 57 25 19 22 73 24 120 4 l46 -20 22 24 c26 29 33 31
40 12z m-686 -32 c-21 -20 -40 -34 -42 -32 -8 8 47 68 63 68 12 0 6 -11 -21
-36z m798 26 c3 -5 1 -10 -4 -10 -6 0 -11 5 -11 10 0 6 2 10 4 10 3 0 8 -4 11
-10z m795 -370 c0 -5 -2 -10 -4 -10 -3 0 -8 5 -11 10 -3 6 -1 10 4 10 6 0 11
-4 11 -10z m3162 -15 c3 -14 1 -25 -3 -25 -5 0 -9 11 -9 25 0 14 2 25 4 25 2
0 6 -11 8 -25z m-2217 -5 c10 -11 16 -20 13 -20 -3 0 -13 9 -23 20 -10 11 -16
20 -13 20 3 0 13 -9 23 -20z m-935 -86 c0 -8 -4 -12 -10 -9 -5 3 -10 10 -10
16 0 5 5 9 10 9 6 0 10 -7 10 -16z m1025 -34 c3 -5 1 -10 -4 -10 -6 0 -11 5
-11 10 0 6 2 10 4 10 3 0 8 -4 11 -10z m-685 -126 c0 -8 -4 -14 -9 -14 -11 0
-22 26 -14 34 9 9 23 -3 23 -20z m-38 -38 c28 9 33 5 30 -22 -2 -11 3 -26 11
-33 11 -9 13 -21 7 -47 -11 -49 -20 -54 -20 -11 0 32 -3 36 -27 39 -23 2 -29
9 -31 33 -2 17 -9 37 -15 45 -10 13 -10 13 5 2 11 -9 26 -11 40 -6z m2526
-164 c11 -17 12 -26 3 -35 -8 -8 -15 -8 -25 3 -18 19 -21 38 -10 70 7 22 9 23
12 5 2 -10 11 -30 20 -43z m-2528 19 c7 -13 7 -22 0 -26 -15 -9 -30 4 -30 26
0 25 16 25 30 0z m2515 -91 c-4 -12 2 -30 13 -47 24 -34 36 -80 23 -88 -5 -3
-12 -1 -16 5 -10 15 -35 12 -35 -5 0 -27 -35 -16 -48 15 -12 27 -11 33 7 59
12 16 21 35 21 43 0 16 19 38 33 38 4 0 6 -9 2 -20z m-1921 -55 c3 -8 3 -29
-1 -46 -7 -37 15 -109 34 -109 9 0 13 13 13 40 0 42 18 60 59 60 15 0 22 -9
26 -37 17 -100 61 -187 126 -251 44 -43 136 -89 194 -97 28 -4 69 -15 92 -25
36 -16 43 -24 53 -62 29 -109 102 -353 111 -371 6 -10 9 -20 7 -22 -18 -15
-52 -24 -76 -19 -19 4 -34 1 -45 -10 -8 -9 -20 -16 -26 -16 -20 0 -42 60 -56
154 -11 79 -19 102 -49 143 -44 61 -215 222 -265 248 -103 55 -223 173 -242
237 -12 44 -11 128 2 167 12 33 33 41 43 16z m431 -120 c0 -10 -35 -8 -46 3
-4 4 -10 25 -13 47 l-7 40 33 -40 c18 -21 33 -44 33 -50z m-830 65 c3 -5 -1
-10 -9 -10 -9 0 -16 5 -16 10 0 6 4 10 9 10 6 0 13 -4 16 -10z m-105 -39 c-6
-12 -17 -21 -25 -21 -8 0 -15 -6 -15 -14 0 -8 -7 -16 -15 -20 -23 -8 -18 1 22
51 36 44 56 46 33 4z m2370 -40 c0 -6 -5 -13 -10 -16 -6 -3 -7 -17 -4 -31 8
-31 -9 -31 -26 1 -12 22 -11 27 6 40 22 17 34 19 34 6z m-1415 -113 c4 -18 15
-60 26 -92 16 -47 17 -61 7 -67 -17 -11 -28 1 -39 47 -21 84 -26 144 -13 144
7 0 15 -15 19 -32z m1355 -68 c0 -5 -4 -10 -10 -10 -5 0 -10 5 -10 10 0 6 5
10 10 10 6 0 10 -4 10 -10z m-2339 -37 c-10 -17 -10 -16 -11 3 0 23 13 41 18
25 2 -6 -1 -18 -7 -28z m347 -25 c-3 -8 -26 -14 -59 -15 -52 -3 -53 -2 -29 12
32 18 93 20 88 3z m1982 -3 c0 -8 -2 -15 -4 -15 -2 0 -6 7 -10 15 -3 8 -1 15
4 15 6 0 10 -7 10 -15z m-62 -110 l2 -40 -20 35 c-24 44 -25 52 -2 48 12 -2
18 -14 20 -43z m-1039 -36 c14 -39 14 -116 2 -124 -17 -10 -31 32 -31 94 0 67
12 79 29 30z m-1606 14 c11 -10 -13 -33 -34 -33 -24 0 -25 16 -1 29 20 12 27
13 35 4z m287 -13 c0 -5 -5 -10 -11 -10 -5 0 -7 5 -4 10 3 6 8 10 11 10 2 0 4
-4 4 -10z m-60 -80 c0 -5 -4 -10 -10 -10 -5 0 -10 5 -10 10 0 6 5 10 10 10 6
0 10 -4 10 -10z m627 -1 c9 -9 6 -16 -10 -29 -12 -10 -25 -16 -29 -13 -13 7
-9 41 5 46 19 8 22 8 34 -4z m1792 -11 c5 -14 5 -28 -1 -35 -18 -22 -26 -14
-25 22 1 40 14 46 26 13z m-2459 -27 c0 -13 -10 -20 -32 -25 -36 -7 -53 2 -20
11 12 3 22 12 22 19 0 8 7 14 15 14 8 0 15 -8 15 -19z m-125 -11 c3 -5 1 -10
-4 -10 -6 0 -11 5 -11 10 0 6 2 10 4 10 3 0 8 -4 11 -10z m2135 -20 c0 -13
-20 -13 -40 0 -12 8 -9 10 13 10 15 0 27 -4 27 -10z m-2372 -16 c-9 -9 -21
-13 -27 -9 -16 10 -3 25 22 25 20 0 20 -1 5 -16z m2846 1 c3 -8 1 -15 -4 -15
-6 0 -10 7 -10 15 0 8 2 15 4 15 2 0 6 -7 10 -15z m-499 -74 c3 -5 1 -12 -5
-16 -5 -3 -10 1 -10 9 0 18 6 21 15 7z m85 -12 c0 -5 -4 -9 -10 -9 -5 0 -10 7
-10 16 0 8 5 12 10 9 6 -3 10 -10 10 -16z m-243 5 c-3 -3 -12 -4 -19 -1 -8 3
-5 6 6 6 11 1 17 -2 13 -5z m345 -26 c-15 -15 -26 -4 -18 18 5 13 9 15 18 6 9
-9 9 -15 0 -24z m-2242 2 c0 -15 -40 -32 -58 -25 -14 5 -11 9 13 20 37 17 45
18 45 5z m1690 -27 c-1 -24 -2 -26 -11 -10 -5 9 -7 22 -4 27 10 17 15 11 15
-17z m430 23 c0 -3 -4 -8 -10 -11 -5 -3 -10 -1 -10 4 0 6 5 11 10 11 6 0 10
-2 10 -4z m-2230 -27 c0 -5 4 -8 9 -4 5 3 11 -7 13 -22 4 -36 18 -38 62 -8 43
29 46 30 46 10 0 -8 -4 -15 -9 -15 -12 0 -21 -39 -11 -45 4 -3 11 3 14 12 5
12 10 13 18 5 24 -24 -40 -66 -96 -63 -16 1 -39 -5 -52 -14 -27 -17 -54 -20
-54 -4 0 6 -9 8 -21 4 -14 -5 -19 -3 -17 7 1 7 -2 14 -7 15 -6 2 -10 -7 -10
-19 -1 -31 -20 -33 -33 -3 -12 25 -32 26 -32 2 0 -13 -54 -33 -120 -43 -37 -6
-42 -5 -38 11 2 11 16 22 33 27 17 4 46 23 65 43 19 19 41 35 49 35 9 0 41 18
71 40 53 39 120 55 120 29z m1720 1 c0 -5 -8 -10 -17 -10 -15 0 -16 2 -3 10
19 12 20 12 20 0z m320 1 c0 -23 -21 -61 -33 -61 -19 0 -51 36 -39 44 6 3 17
4 25 0 8 -3 17 2 20 10 7 17 27 22 27 7z m332 -16 c0 -5 -5 -11 -11 -13 -6 -2
-11 4 -11 13 0 9 5 15 11 13 6 -2 11 -8 11 -13z m-2162 -45 c0 -5 -4 -10 -10
-10 -5 0 -10 5 -10 10 0 6 5 10 10 10 6 0 10 -4 10 -10z m-35 -69 c-3 -5 -1
-12 5 -16 15 -9 2 -25 -21 -25 -14 0 -19 7 -19 25 0 19 5 25 21 25 11 0 18 -4
14 -9z m1531 -34 c1 -1 5 -12 8 -24 7 -22 5 -23 -61 -23 -37 0 -95 -7 -128
-15 -79 -19 -77 -19 -73 13 3 25 7 27 48 28 25 1 59 9 75 18 22 13 43 15 80
11 27 -4 50 -7 51 -8z m-2116 -127 c0 -11 -3 -21 -7 -21 -52 -8 -73 -7 -73 2
0 6 9 13 20 16 11 3 20 9 20 14 0 5 9 9 20 9 13 0 20 -7 20 -20z m503 -157
c35 -10 15 -21 -44 -25 -60 -3 -88 7 -52 18 10 3 25 9 33 14 8 5 22 6 30 3 8
-3 23 -8 33 -10z m1107 -2 c0 -5 -7 -12 -16 -15 -14 -5 -15 -4 -4 9 14 17 20
19 20 6z m-1486 -58 c-24 -17 -34 -16 -34 3 0 9 9 18 20 21 11 3 21 10 21 17
1 6 4 2 6 -8 3 -12 -2 -25 -13 -33z m201 27 c3 -5 1 -10 -4 -10 -6 0 -11 5
-11 10 0 6 2 10 4 10 3 0 8 -4 11 -10z m1210 -10 c-3 -5 -10 -10 -16 -10 -5 0
-9 5 -9 10 0 6 7 10 16 10 8 0 12 -4 9 -10z m45 0 c0 -5 -5 -10 -11 -10 -5 0
-7 5 -4 10 3 6 8 10 11 10 2 0 4 -4 4 -10z m585 -10 c0 -12 -15 -15 -67 -16
-36 -1 -78 -4 -92 -8 -15 -4 -26 -2 -26 4 0 5 1 10 3 10 1 0 20 7 42 15 52 19
140 16 140 -5z m-1873 -12 c-7 -7 -12 -8 -12 -2 0 14 12 26 19 19 2 -3 -1 -11
-7 -17z m1095 -24 c-3 -3 -16 -4 -29 -2 l-23 5 25 10 c23 10 41 1 27 -13z
m135 -1 c-6 -2 -10 -9 -6 -14 3 -5 -5 -9 -17 -9 -22 0 -22 0 -3 15 10 8 24 14
29 14 6 0 4 -3 -3 -6z m-1142 -11 c0 -5 -7 -9 -15 -9 -8 0 -12 4 -9 9 3 4 9 8
15 8 5 0 9 -4 9 -8z m300 -6 c0 -3 -4 -8 -10 -11 -5 -3 -10 -1 -10 4 0 6 5 11
10 11 6 0 10 -2 10 -4z m1580 -16 c0 -5 -2 -10 -4 -10 -3 0 -8 5 -11 10 -3 6
-1 10 4 10 6 0 11 -4 11 -10z m-1792 -11 c-2 -6 -8 -10 -13 -10 -5 0 -11 4
-13 10 -2 6 4 11 13 11 9 0 15 -5 13 -11z m1072 7 c0 -11 -19 -15 -25 -6 -3 5
1 10 9 10 9 0 16 -2 16 -4z m-950 -21 c0 -8 -7 -15 -15 -15 -9 0 -12 6 -9 15
4 8 10 15 15 15 5 0 9 -7 9 -15z m847 9 c-3 -3 -12 -4 -19 -1 -8 3 -5 6 6 6
11 1 17 -2 13 -5z m-132 -34 c-3 -5 -20 -10 -36 -10 -18 0 -28 4 -24 10 3 6
20 10 36 10 18 0 28 -4 24 -10z m-733 -30 c8 0 18 4 24 9 20 20 114 13 114 -8
0 -15 -11 -18 -56 -11 -32 5 -49 3 -59 -6 -10 -11 -19 -11 -45 -1 -26 9 -34 9
-37 0 -3 -7 -13 -13 -24 -13 -25 0 -14 27 20 45 22 12 28 12 37 -1 6 -8 18
-14 26 -14z m-182 4 c-13 -15 -69 -42 -103 -49 -9 -2 -21 -6 -26 -10 -5 -3
-12 -1 -16 5 -3 5 0 10 7 10 8 0 19 5 26 12 10 10 95 45 116 47 5 1 3 -6 -4
-15z m1111 -5 c-20 -22 -101 -44 -101 -28 0 5 6 9 14 9 8 0 24 9 37 20 13 10
34 19 47 20 23 0 23 0 3 -21z m-1391 4 c0 -15 -72 -55 -82 -45 -6 6 2 14 21
22 17 7 31 16 31 21 0 5 7 9 15 9 8 0 15 -3 15 -7z m350 3 c0 -11 -19 -15 -25
-6 -3 5 1 10 9 10 9 0 16 -2 16 -4z m397 -37 c-9 -14 -23 -19 -59 -19 -34 0
-48 -4 -48 -14 0 -8 8 -17 17 -20 14 -6 12 -10 -12 -26 l-30 -20 26 0 c15 0
32 7 39 15 7 9 29 15 51 15 40 0 45 -5 29 -30 -5 -9 -5 -19 1 -26 10 -12 5
-13 -116 -13 -22 0 -50 6 -62 14 -26 17 -69 20 -78 5 -3 -5 -24 -10 -45 -10
-31 0 -38 3 -34 15 7 17 -8 19 -34 6 -9 -5 -44 -14 -77 -20 -33 -6 -63 -18
-68 -26 -6 -11 -25 -15 -70 -15 l-62 0 27 25 c18 16 37 24 60 24 18 -1 47 6
63 15 17 9 34 16 38 16 5 0 15 6 22 13 35 31 44 35 69 30 25 -5 27 -4 20 21
-6 26 8 37 21 16 4 -6 11 -8 16 -5 5 4 6 -2 2 -12 -7 -17 -5 -17 22 1 24 16
27 16 22 2 -8 -20 12 -21 60 -1 19 8 44 15 54 15 11 0 19 4 19 9 0 11 19 16
81 17 45 2 47 1 36 -17z m-420 -11 c-2 -7 -12 -13 -23 -13 -10 0 -25 -4 -32
-9 -7 -4 -16 -6 -19 -3 -6 7 47 36 65 37 8 0 12 -6 9 -12z m-424 -15 c3 -5 -4
-17 -14 -27 -19 -19 -24 -12 -13 18 6 17 20 21 27 9z m337 -29 c0 -8 -4 -12
-10 -9 -5 3 -10 10 -10 16 0 5 5 9 10 9 6 0 10 -7 10 -16z m75 -4 c-3 -5 -10
-10 -16 -10 -5 0 -9 5 -9 10 0 6 7 10 16 10 8 0 12 -4 9 -10z m860 -10 c3 -5
-3 -10 -14 -10 -12 0 -21 5 -21 10 0 6 6 10 14 10 8 0 18 -4 21 -10z m-300
-60 c18 -5 -49 -16 -72 -12 -39 7 -25 18 20 17 23 -1 47 -3 52 -5z m-845 -5
c0 -16 -91 -95 -120 -103 -19 -5 -44 -13 -55 -18 -11 -4 4 16 32 45 31 30 65
54 83 58 17 3 33 10 36 14 5 9 24 12 24 4z m790 -75 c0 -5 -4 -10 -10 -10 -5
0 -10 5 -10 10 0 6 5 10 10 10 6 0 10 -4 10 -10z m90 -140 c0 -5 -16 -10 -35
-10 -19 0 -35 -4 -35 -10 0 -5 -7 -10 -15 -10 -15 0 -21 21 -8 33 10 11 93 8
93 -3z m-50 -70 c0 -5 -4 -10 -9 -10 -6 0 -13 5 -16 10 -3 6 1 10 9 10 9 0 16
-4 16 -10z m144 -129 c8 -12 -109 -25 -126 -14 -9 5 0 10 27 14 63 10 93 10
99 0z m-164 -81 c0 -6 -11 -8 -27 -4 -40 10 -41 14 -5 14 18 0 32 -5 32 -10z
m54 -9 c3 -5 -3 -11 -14 -14 -20 -5 -35 5 -23 17 9 9 31 7 37 -3z m1469 -83
c6 -21 3 -27 -14 -31 -19 -5 -20 -7 -4 -30 11 -18 13 -27 5 -32 -6 -4 -10 -21
-9 -39 2 -17 -2 -40 -8 -51 -10 -17 -12 -15 -20 20 -11 57 -8 153 6 198 13 38
13 38 25 15 7 -14 16 -36 19 -50z m-3713 13 c0 -11 -4 -23 -10 -26 -6 -4 -10
5 -10 19 0 14 5 26 10 26 6 0 10 -9 10 -19z m1180 -15 c0 -17 -20 -33 -42 -33
-13 0 -14 4 -5 24 11 25 47 32 47 9z m1140 -25 c0 -5 -23 -11 -50 -13 -53 -3
-70 8 -22 15 51 8 72 7 72 -2z m-200 -65 c0 -3 -4 -8 -10 -11 -5 -3 -10 -1
-10 4 0 6 5 11 10 11 6 0 10 -2 10 -4z m-960 -16 c0 -5 -5 -10 -11 -10 -5 0
-7 5 -4 10 3 6 8 10 11 10 2 0 4 -4 4 -10z m-1490 -10 c0 -5 -4 -10 -10 -10
-5 0 -10 5 -10 10 0 6 5 10 10 10 6 0 10 -4 10 -10z m67 -22 c-3 -8 -6 -5 -6
6 -1 11 2 17 5 13 3 -3 4 -12 1 -19z m2273 1 c0 -5 -7 -9 -15 -9 -8 0 -15 7
-15 15 0 9 6 12 15 9 8 -4 15 -10 15 -15z m-2406 -61 c-8 -77 -16 -89 -24 -38
-5 34 -3 51 9 67 9 12 17 23 18 23 1 0 0 -24 -3 -52z m2646 12 c0 -5 -7 -10
-16 -10 -8 0 -12 5 -9 10 3 6 10 10 16 10 5 0 9 -4 9 -10z m-2536 -33 c-3 -9
-10 -17 -15 -17 -11 0 -12 34 -2 44 11 11 24 -9 17 -27z m2222 19 c9 -22 29
-26 59 -10 35 18 125 28 125 14 0 -5 -10 -10 -23 -10 -12 0 -40 -9 -62 -20
-42 -21 -95 -26 -111 -10 -7 7 -29 6 -68 -1 -39 -7 -62 -7 -68 -1 -7 7 -24 5
-51 -4 -23 -8 -44 -11 -49 -6 -14 14 41 45 68 39 13 -2 50 1 81 8 78 17 93 17
99 1z m-1909 -38 c-3 -8 -6 -5 -6 6 -1 11 2 17 5 13 3 -3 4 -12 1 -19z m-347
-2 c0 -8 -4 -18 -10 -21 -5 -3 -10 -15 -10 -26 0 -11 -7 -19 -16 -19 -12 0
-14 3 -6 13 6 7 7 18 2 26 -4 8 -6 20 -3 28 7 18 43 17 43 -1z m221 -9 c-1
-12 -15 -9 -19 4 -3 6 1 10 8 8 6 -3 11 -8 11 -12z m3799 -4 c0 -5 -5 -15 -10
-23 -8 -12 -10 -11 -10 8 0 12 5 22 10 22 6 0 10 -3 10 -7z m-1906 -22 c3 -5
-6 -16 -20 -26 -18 -11 -24 -23 -21 -36 8 -30 -20 -52 -57 -45 -21 4 -40 0
-60 -13 -16 -11 -34 -18 -40 -15 -6 2 -23 -15 -38 -36 -38 -54 -52 -52 -45 6
2 26 9 49 14 53 6 3 12 12 14 20 4 12 62 23 117 22 15 -1 38 14 62 39 37 39
63 49 74 31z m88 -33 c-5 -5 -22 -8 -38 -6 l-29 4 25 11 c28 12 57 6 42 -9z
m103 15 c-11 -3 -24 -9 -29 -14 -13 -12 -36 -12 -36 0 0 11 25 19 60 19 20 0
21 -1 5 -5z m-1495 -33 c-23 -44 -60 -76 -60 -52 0 11 62 84 67 78 3 -2 -1
-14 -7 -26z m-82 -2 c-2 -6 -10 -14 -16 -16 -7 -2 -10 2 -6 12 7 18 28 22 22
4z m3362 -3 c0 -8 -2 -15 -4 -15 -2 0 -6 7 -10 15 -3 8 -1 15 4 15 6 0 10 -7
10 -15z m-3640 -4 c0 -14 -18 -23 -31 -15 -8 4 -7 9 2 15 18 11 29 11 29 0z
m-270 -11 c0 -5 -5 -10 -11 -10 -5 0 -7 5 -4 10 3 6 8 10 11 10 2 0 4 -4 4
-10z m132 -6 c7 -6 -19 -61 -32 -69 -11 -7 8 -46 28 -58 19 -12 14 -37 -7 -37
-11 0 -28 -11 -39 -25 -17 -22 -42 -34 -42 -20 0 11 25 62 38 78 11 12 12 17
3 17 -7 0 -9 5 -4 13 4 6 6 21 5 33 -2 11 4 27 12 34 9 7 16 19 16 26 0 14 12
19 22 8z m201 -14 c-3 -12 -8 -19 -11 -16 -5 6 5 36 12 36 2 0 2 -9 -1 -20z
m-118 -28 c-10 -10 -16 -12 -13 -7 3 6 8 19 13 30 5 14 9 16 12 7 3 -8 -3 -21
-12 -30z m1839 13 c21 -32 12 -49 -17 -33 -12 7 -26 12 -32 13 -20 1 -55 26
-50 36 4 5 23 9 44 9 30 0 42 -6 55 -25z m-2340 -33 c-9 -37 -15 -45 -25 -35
-11 11 11 74 23 67 4 -3 5 -17 2 -32z m323 -2 c1 -16 -2 -32 -7 -35 -6 -4 -10
-14 -10 -24 0 -10 -6 -23 -13 -29 -21 -18 -15 58 7 91 10 15 19 27 20 27 0 0
2 -13 3 -30z m-88 -49 c-6 -17 -15 -31 -20 -31 -12 0 -11 32 2 67 9 24 12 25
20 12 5 -11 5 -28 -2 -48z m409 39 c-13 -20 -28 -27 -28 -12 0 10 22 32 32 32
5 0 3 -9 -4 -20z m1262 16 c0 -3 -4 -8 -10 -11 -5 -3 -10 -1 -10 4 0 6 5 11
10 11 6 0 10 -2 10 -4z m-30 -33 c0 -8 -9 -17 -21 -20 -11 -3 -18 -11 -15 -18
6 -16 -31 -50 -64 -60 -14 -4 -38 -18 -53 -31 -35 -29 -47 -30 -47 -5 0 11 13
29 30 41 16 12 29 26 27 33 -3 15 35 9 45 -6 5 -8 14 -5 29 9 29 29 16 49 -17
28 -22 -15 -24 -15 -24 0 0 19 43 40 84 42 17 1 26 -3 26 -13z m210 13 c0 -2
-7 -9 -15 -16 -12 -10 -15 -10 -15 4 0 9 7 16 15 16 8 0 15 -2 15 -4z m-2046
-30 c-3 -9 -10 -16 -15 -16 -6 0 -5 9 1 21 13 24 24 20 14 -5z m2521 4 c7 -11
-42 -26 -53 -16 -7 8 17 26 35 26 6 0 15 -4 18 -10z m-249 -15 c10 -8 39 -15
64 -15 59 -2 82 -11 71 -29 -10 -15 -57 -12 -129 9 -40 12 -45 11 -126 -28
-81 -40 -107 -65 -87 -85 7 -7 16 -5 28 5 16 14 62 22 117 19 17 -1 17 -2 2
-26 -25 -38 -12 -47 50 -39 37 4 59 2 69 -6 8 -7 25 -10 40 -6 29 7 32 -1 8
-20 -21 -16 -169 -19 -178 -4 -8 13 -45 13 -45 0 0 -7 -18 -8 -50 -4 -34 4
-55 3 -65 -6 -9 -7 -18 -10 -21 -8 -3 3 7 15 21 27 20 15 38 19 68 17 45 -4
83 18 52 30 -9 4 -20 2 -24 -5 -5 -8 -15 -9 -33 -2 -14 5 -33 9 -43 8 -16 -2
-19 4 -16 41 2 35 0 42 -16 42 -10 0 -27 -7 -37 -15 -25 -19 -36 -19 -36 -1 0
24 63 53 164 76 52 12 98 26 101 31 9 13 28 11 51 -6z m-1226 -50 c-7 -9 -15
-13 -19 -10 -3 3 1 10 9 15 21 14 24 12 10 -5z m3174 -42 c9 -57 7 -75 -6 -71
-14 5 -22 108 -9 108 5 0 11 -17 15 -37z m-3734 3 c0 -7 -11 -21 -25 -30 -24
-16 -25 -16 -25 4 0 17 18 32 48 39 1 1 2 -5 2 -13z m1090 -31 c-7 -8 -20 -15
-29 -15 -12 1 -11 5 8 21 26 22 41 18 21 -6z m-1530 -6 c0 -6 -4 -7 -10 -4 -5
3 -10 11 -10 16 0 6 5 7 10 4 6 -3 10 -11 10 -16z m1790 1 c0 -18 -3 -19 -21
-9 -17 9 -19 13 -8 20 22 14 29 11 29 -11z m465 0 c-3 -5 -11 -10 -16 -10 -6
0 -7 5 -4 10 3 6 11 10 16 10 6 0 7 -4 4 -10z m-1457 -17 c-14 -17 -28 -16
-28 1 0 8 9 14 19 13 15 -1 17 -4 9 -14z m887 -13 c-3 -5 -11 -10 -16 -10 -6
0 -7 5 -4 10 3 6 11 10 16 10 6 0 7 -4 4 -10z m61 -63 c-17 -12 -26 -28 -26
-45 0 -20 -3 -23 -9 -12 -6 8 -7 18 -5 22 13 20 -40 5 -57 -17 -12 -14 -26
-22 -34 -18 -25 9 -17 30 15 43 17 7 38 26 46 41 8 17 23 29 34 29 11 0 20 5
20 12 0 6 9 0 21 -13 l20 -23 -25 -19z m-136 38 c0 -8 -3 -15 -7 -15 -5 0 -19
-3 -33 -7 -25 -6 -25 -6 -6 15 22 25 46 29 46 7z m-1220 -4 c0 -6 -4 -13 -10
-16 -5 -3 -10 1 -10 9 0 9 5 16 10 16 6 0 10 -4 10 -9z m2070 0 c0 -11 -25
-21 -53 -21 -22 1 -22 1 -3 15 22 17 56 20 56 6z m-1048 -59 c-9 -20 -17 -39
-19 -41 -1 -2 -9 -1 -18 2 -12 5 -13 11 -3 34 14 31 39 54 50 47 4 -3 0 -21
-10 -42z m388 -1 c0 -10 -30 -24 -37 -17 -3 3 -2 9 2 15 8 13 35 15 35 2z
m130 3 c0 -3 -7 -12 -15 -21 -11 -11 -13 -19 -5 -28 7 -9 6 -16 -4 -24 -17
-14 -60 -5 -51 10 8 12 -8 12 -21 -1 -5 -5 -19 -11 -31 -13 -13 -2 -26 -6 -29
-10 -12 -12 -46 -8 -42 5 6 16 98 50 117 43 7 -3 22 6 33 20 17 22 48 35 48
19z m-350 -34 c8 -15 8 -20 -2 -21 -7 0 -30 -2 -50 -4 -21 -2 -38 -2 -38 -1 0
6 64 46 72 46 4 0 12 -9 18 -20z m380 10 c0 -5 -4 -10 -10 -10 -5 0 -10 5 -10
10 0 6 5 10 10 10 6 0 10 -4 10 -10z m-2920 -49 c-6 -12 -16 -18 -26 -14 -17
6 -13 29 6 25 6 -1 15 8 18 20 5 18 7 19 10 6 2 -9 -2 -26 -8 -37z m3105 39
c3 -5 16 -10 29 -10 12 0 31 -7 42 -15 18 -15 18 -15 0 -29 -16 -13 -21 -12
-43 10 -16 17 -31 23 -44 19 -15 -5 -19 -1 -19 14 0 22 24 29 35 11z m208 0
c7 -1 -1 -7 -18 -14 -16 -7 -33 -11 -37 -9 -13 7 16 33 30 28 8 -3 19 -5 25
-5z m-1089 -9 c6 -9 -66 -72 -95 -83 -31 -12 -22 8 19 38 20 15 41 34 45 41 9
15 23 17 31 4z m816 -25 c0 -9 -7 -12 -20 -9 -11 3 -20 9 -20 14 0 5 9 9 20 9
11 0 20 -6 20 -14z m-1835 -6 c3 -5 1 -10 -4 -10 -6 0 -11 5 -11 10 0 6 2 10
4 10 3 0 8 -4 11 -10z m685 5 c0 -11 -84 -125 -92 -125 -16 0 -7 18 34 74 36
49 58 68 58 51z m924 -21 c10 -26 7 -34 -14 -34 -11 0 -20 4 -20 9 0 17 12 41
20 41 4 0 11 -7 14 -16z m-1383 -75 c-28 -27 -31 -24 -19 19 13 47 32 61 36
26 2 -17 -4 -33 -17 -45z m341 49 c-7 -7 -12 -8 -12 -2 0 14 12 26 19 19 2 -3
-1 -11 -7 -17z m-432 -8 c0 -19 -11 -26 -23 -14 -8 8 3 34 14 34 5 0 9 -9 9
-20z m4634 4 c13 -33 6 -73 -14 -84 -26 -14 -36 -7 -50 36 -9 27 -9 38 0 49
16 20 56 19 64 -1z m-5737 -26 c-3 -8 -6 -5 -6 6 -1 11 2 17 5 13 3 -3 4 -12
1 -19z m1324 4 c-5 -10 -22 -29 -38 -42 -16 -14 -34 -43 -41 -66 -15 -50 -81
-154 -99 -154 -20 0 -16 52 6 75 69 73 82 89 84 106 4 22 71 99 87 99 7 0 8
-6 1 -18z m1039 -2 c0 -5 -10 -18 -22 -30 -12 -11 -17 -20 -12 -20 6 0 14 4
20 10 10 10 54 2 54 -10 0 -4 -22 -17 -49 -29 -28 -11 -53 -26 -56 -31 -3 -6
-15 -10 -26 -10 -27 0 -24 32 6 60 14 13 25 31 25 39 0 9 10 21 23 27 23 11
37 9 37 -6z m442 5 c0 -5 -5 -11 -11 -13 -6 -2 -11 4 -11 13 0 9 5 15 11 13 6
-2 11 -8 11 -13z m75 9 c-3 -3 -12 -4 -19 -1 -8 3 -5 6 6 6 11 1 17 -2 13 -5z
m-751 -34 c-4 -37 -35 -64 -53 -48 -21 17 -15 38 12 48 14 5 25 14 25 20 0 5
4 10 10 10 5 0 8 -14 6 -30z m98 5 c-6 -16 -34 -21 -34 -7 0 13 11 22 26 22 8
0 11 -6 8 -15z m757 2 c-13 -13 -63 -13 -68 0 -3 8 8 11 36 10 23 -1 37 -5 32
-10z m-2978 -62 c4 -22 4 -33 0 -25 -3 8 -13 23 -21 33 -14 16 -14 19 -2 27
18 11 16 13 23 -35z m697 6 c0 -12 -9 -20 -25 -23 -29 -6 -29 -5 -13 22 16 25
38 26 38 1z m664 10 c3 -5 0 -11 -8 -14 -15 -6 -26 1 -26 15 0 11 27 10 34 -1z
m-224 -10 c0 -6 -4 -13 -10 -16 -5 -3 -10 1 -10 9 0 9 5 16 10 16 6 0 10 -4
10 -9z m280 -30 c-14 -21 -30 -31 -46 -31 -15 0 -23 4 -19 10 8 13 79 59 84
54 2 -1 -7 -17 -19 -33z m807 22 c2 -6 -4 -13 -14 -16 -10 -3 -40 -13 -67 -21
-40 -13 -46 -13 -36 -2 14 18 92 57 104 53 6 -2 11 -8 13 -14z m-2823 -9 c19
-19 22 -68 4 -62 -7 3 -14 14 -16 26 -2 12 -7 22 -12 22 -5 0 -7 7 -4 15 8 19
9 19 28 -1z m1906 12 c0 -3 -4 -8 -10 -11 -5 -3 -10 -1 -10 4 0 6 5 11 10 11
6 0 10 -2 10 -4z m1370 -11 c7 -9 8 -15 2 -15 -5 0 -12 7 -16 15 -3 8 -4 15
-2 15 2 0 9 -7 16 -15z m212 0 c-2 -5 -8 -9 -13 -7 -14 3 -11 -26 4 -31 24 -8
-3 -20 -57 -25 -44 -3 -54 -1 -60 13 -3 10 -5 19 -4 20 2 1 19 11 38 23 35 22
98 27 92 7z m193 3 c10 -9 -73 -21 -87 -12 -9 6 -5 10 12 15 28 8 66 6 75 -3z
m-1250 -32 c-22 -19 -42 -30 -44 -24 -4 13 49 57 69 57 8 1 -3 -15 -25 -33z
m599 19 c4 -10 -8 -22 -37 -36 -23 -12 -45 -27 -49 -33 -5 -7 -8 -7 -8 -1 0
20 31 55 49 55 11 0 21 7 25 15 7 19 12 19 20 0z m-4078 -43 c-12 -11 -18 7
-10 30 l8 23 4 -23 c2 -13 1 -26 -2 -30z m2494 33 c0 -8 -4 -15 -10 -15 -5 0
-7 7 -4 15 4 8 8 15 10 15 2 0 4 -7 4 -15z m866 -2 c-4 -13 4 -23 26 -36 28
-16 30 -20 15 -28 -11 -6 -23 -6 -36 0 -14 8 -22 7 -31 -4 -16 -19 -34 -19
-50 0 -10 13 -8 19 15 37 15 11 32 27 39 34 16 19 28 17 22 -3z m844 -3 c-19
-13 -30 -13 -30 0 0 6 10 10 23 10 18 0 19 -2 7 -10z m-2570 -21 c0 -5 -4 -9
-10 -9 -5 0 -10 7 -10 16 0 8 5 12 10 9 6 -3 10 -10 10 -16z m-1080 1 c0 -5
-5 -10 -11 -10 -5 0 -7 5 -4 10 3 6 8 10 11 10 2 0 4 -4 4 -10z m1866 -27
c-11 -11 -19 6 -11 24 8 17 8 17 12 0 3 -10 2 -21 -1 -24z m1104 17 c0 -5 -6
-10 -14 -10 -19 0 -40 -26 -26 -35 18 -11 11 -35 -10 -35 -11 0 -20 -4 -20
-10 0 -5 -9 -14 -20 -20 -25 -13 -26 0 -2 26 9 11 26 36 36 57 18 34 56 53 56
27z m120 -6 c-18 -21 -50 -37 -50 -25 0 5 12 16 28 24 36 20 37 20 22 1z
m3365 6 c3 -5 2 -10 -4 -10 -5 0 -13 5 -16 10 -3 6 -2 10 4 10 5 0 13 -4 16
-10z m-4235 -20 c0 -13 -5 -18 -14 -14 -8 3 -12 12 -9 20 8 21 23 17 23 -6z
m1839 6 c-2 -2 -18 -7 -34 -11 l-30 -6 30 14 c27 13 45 14 34 3z m-1949 -11
c-7 -9 -10 -18 -7 -22 9 -8 -12 -33 -27 -33 -6 0 -4 5 4 10 10 6 11 10 3 10
-7 0 -13 6 -13 13 0 17 20 37 38 37 12 0 12 -3 2 -15z m-1090 -30 c0 -30 -10
-55 -21 -55 -12 0 -12 37 0 44 5 3 7 16 3 28 -3 14 -2 19 6 14 7 -4 12 -18 12
-31z m849 -27 c-12 -23 -29 -14 -29 16 0 31 12 40 27 20 9 -12 9 -22 2 -36z
m266 -37 c-8 -17 -20 -31 -26 -31 -20 0 -21 32 -2 53 11 12 24 31 28 42 8 18
9 18 13 -7 2 -15 -4 -40 -13 -57z m-1155 53 c0 -8 -4 -12 -10 -9 -5 3 -10 10
-10 16 0 5 5 9 10 9 6 0 10 -7 10 -16z m1755 -3 c3 -5 1 -12 -5 -16 -5 -3 -10
1 -10 9 0 18 6 21 15 7z m75 -16 c0 -8 -4 -15 -9 -15 -5 0 -35 -28 -68 -61
-32 -34 -63 -67 -69 -73 -6 -6 -9 -17 -6 -24 3 -10 9 -9 23 4 18 16 19 16 19
-4 0 -12 -10 -27 -22 -33 -13 -7 -36 -25 -52 -41 -20 -20 -36 -28 -49 -24 -11
3 -30 0 -41 -5 -12 -6 -3 6 19 25 22 20 43 36 48 36 4 0 7 8 7 18 0 32 60 111
109 144 25 17 53 40 61 50 18 22 30 23 30 3z m830 -15 c0 -5 -9 -10 -20 -10
-11 0 -20 5 -20 10 0 6 9 10 20 10 11 0 20 -4 20 -10z m-260 -4 c0 -11 -19
-15 -25 -6 -3 5 1 10 9 10 9 0 16 -2 16 -4z m140 0 c0 -2 -7 -7 -16 -10 -8 -3
-12 -2 -9 4 6 10 25 14 25 6z m-3641 -80 c-5 -29 -5 -74 0 -100 9 -48 1 -69
-29 -78 -34 -10 -54 117 -22 150 6 7 12 20 12 28 0 23 19 54 34 54 10 0 11
-12 5 -54z m3131 34 c-13 -11 -25 -18 -28 -15 -8 8 19 35 36 35 11 0 9 -5 -8
-20z m139 17 c-2 -1 -13 -9 -24 -17 -19 -14 -19 -14 -6 3 7 9 18 17 24 17 6 0
8 -1 6 -3z m-249 -27 c0 -5 -5 -10 -11 -10 -5 0 -7 5 -4 10 3 6 8 10 11 10 2
0 4 -4 4 -10z m-84 -15 c18 -14 18 -16 -14 -45 -32 -30 -62 -39 -62 -19 0 5
-4 7 -10 4 -5 -3 -10 -1 -10 5 0 7 9 14 20 17 11 3 20 11 20 17 0 13 20 36 30
36 3 0 15 -7 26 -15z m681 9 c-3 -3 -12 -4 -19 -1 -8 3 -5 6 6 6 11 1 17 -2
13 -5z m-198 -31 c-45 -33 -89 -54 -100 -47 -13 8 78 63 105 63 16 1 16 -1 -5
-16z m-159 -2 c0 -5 -9 -13 -20 -16 -11 -3 -20 -11 -20 -16 0 -5 -5 -9 -12 -9
-6 0 -1 11 12 25 24 26 40 32 40 16z m-2772 -59 c-7 -8 -14 -10 -21 -3 -7 7
-6 15 3 26 10 12 15 13 21 3 4 -7 3 -18 -3 -26z m2572 13 c0 -9 -57 -34 -64
-28 -8 8 25 32 47 33 9 0 17 -2 17 -5z m-230 -90 c0 -8 -7 -15 -15 -15 -16 0
-20 12 -8 23 11 12 23 8 23 -8z"/>
<path d="M8925 9820 c4 -6 11 -8 16 -5 14 9 11 15 -7 15 -8 0 -12 -5 -9 -10z"/>
<path d="M8757 9573 c-22 -6 -12 -23 14 -23 10 0 19 7 19 15 0 15 -2 16 -33 8z"/>
<path d="M9260 9490 c0 -5 7 -10 16 -10 8 0 12 5 9 10 -3 6 -10 10 -16 10 -5
0 -9 -4 -9 -10z"/>
<path d="M9135 9470 c-19 -8 -19 -9 3 -9 12 -1 22 4 22 9 0 6 -1 10 -2 9 -2 0
-12 -4 -23 -9z"/>
<path d="M8955 9180 c3 -5 15 -10 26 -10 11 0 17 5 14 10 -3 6 -15 10 -26 10
-11 0 -17 -4 -14 -10z"/>
<path d="M9765 8770 c3 -5 11 -10 16 -10 6 0 7 5 4 10 -3 6 -11 10 -16 10 -6
0 -7 -4 -4 -10z"/>
<path d="M5963 9422 c-18 -11 0 -34 21 -26 17 7 17 25 0 31 -5 1 -14 -1 -21
-5z"/>
<path d="M6043 9414 c-8 -23 10 -36 41 -28 31 7 33 19 7 34 -27 14 -41 13 -48
-6z"/>
<path d="M5844 9255 c-14 -11 -15 -14 -4 -14 8 0 24 6 34 14 15 11 16 15 5 15
-8 0 -24 -7 -35 -15z"/>
<path d="M6093 9216 c-4 -8 -19 -16 -32 -18 -40 -5 -36 -26 5 -34 26 -5 39 -3
42 5 2 6 10 18 18 25 8 8 14 19 14 25 0 16 -38 13 -47 -3z"/>
<path d="M5695 8710 c-3 -5 -1 -10 4 -10 6 0 11 5 11 10 0 6 -2 10 -4 10 -3 0
-8 -4 -11 -10z"/>
<path d="M5720 8505 c0 -8 0 -18 -1 -22 0 -4 4 -9 10 -11 6 -2 11 8 11 22 0
14 -4 26 -10 26 -5 0 -10 -7 -10 -15z"/>
<path d="M5712 8298 c3 -7 13 -15 22 -16 12 -3 17 1 14 10 -3 7 -13 15 -22 16
-12 3 -17 -1 -14 -10z"/>
<path d="M5717 8064 c-8 -8 1 -24 14 -24 5 0 9 7 9 15 0 15 -12 20 -23 9z"/>
<path d="M9730 8270 c0 -5 7 -10 15 -10 8 0 15 5 15 10 0 6 -7 10 -15 10 -8 0
-15 -4 -15 -10z"/>
<path d="M5380 6989 c0 -5 5 -7 10 -4 6 3 10 8 10 11 0 2 -4 4 -10 4 -5 0 -10
-5 -10 -11z"/>
<path d="M5440 6140 c0 -5 5 -10 10 -10 6 0 10 5 10 10 0 6 -4 10 -10 10 -5 0
-10 -4 -10 -10z"/>
<path d="M5400 6066 c0 -8 5 -18 10 -21 6 -3 10 3 10 14 0 12 -4 21 -10 21 -5
0 -10 -6 -10 -14z"/>
<path d="M5046 5332 c-2 -4 -1 -14 5 -22 7 -12 9 -10 9 8 0 23 -5 28 -14 14z"/>
<path d="M4997 5285 c-5 -10 0 -15 14 -15 12 0 19 5 17 12 -6 18 -25 20 -31 3z"/>
<path d="M4842 5238 c-5 -7 -13 -23 -17 -36 -6 -20 -3 -22 24 -20 32 2 39 12
20 24 -6 3 -9 15 -6 25 6 22 -6 25 -21 7z"/>
<path d="M4980 5234 c0 -8 5 -12 10 -9 6 4 8 11 5 16 -9 14 -15 11 -15 -7z"/>
<path d="M4687 5213 c-33 -17 -31 -23 15 -29 22 -3 29 -2 19 5 -8 5 -11 16 -8
25 4 9 5 16 4 15 -1 -1 -15 -8 -30 -16z"/>
<path d="M4780 5206 c0 -8 -10 -17 -22 -19 -13 -2 -6 -4 15 -4 29 0 37 4 37
19 0 10 -7 18 -15 18 -8 0 -15 -6 -15 -14z"/>
<path d="M5126 4488 c-18 -26 -21 -48 -6 -48 6 0 10 1 10 3 0 1 4 17 9 35 11
38 8 40 -13 10z"/>
<path d="M5078 4377 c-20 -48 -22 -57 -9 -57 7 0 41 75 41 93 0 20 -17 2 -32
-36z"/>
<path d="M4586 4353 c-6 -14 -5 -15 5 -6 7 7 10 15 7 18 -3 3 -9 -2 -12 -12z"/>
<path d="M5606 4265 c-3 -9 0 -15 9 -15 9 0 12 6 9 15 -4 8 -7 15 -9 15 -2 0
-5 -7 -9 -15z"/>
<path d="M5787 4210 c3 -11 9 -20 14 -20 11 0 11 3 3 24 -9 23 -23 20 -17 -4z"/>
<path d="M5665 4200 c3 -5 8 -10 11 -10 2 0 4 5 4 10 0 6 -5 10 -11 10 -5 0
-7 -4 -4 -10z"/>
<path d="M5505 4153 c3 -15 13 -32 21 -38 12 -8 13 -17 5 -37 -10 -27 1 -48
26 -48 8 0 16 -7 19 -15 11 -27 22 -16 21 20 -1 19 -5 35 -9 35 -4 0 -8 -4 -8
-10 0 -5 -4 -10 -9 -10 -5 0 -7 17 -4 38 3 30 -1 42 -22 65 -33 35 -49 35 -40
0z"/>
<path d="M5608 4149 c-12 -20 -12 -26 6 -62 11 -22 20 -57 21 -76 1 -20 5 -43
9 -53 4 -9 6 -31 4 -50 l-4 -33 -13 25 c-7 14 -23 33 -36 43 -23 17 -25 17
-35 -4 -10 -18 -8 -26 17 -51 42 -45 62 -53 77 -32 8 10 20 15 29 11 13 -5 14
4 11 56 -4 53 -3 59 8 43 7 -11 31 -37 54 -58 23 -21 48 -55 56 -76 38 -91 39
-91 34 -22 -5 86 -48 172 -81 164 -19 -5 -26 5 -62 78 -22 46 -49 91 -60 101
-19 17 -21 17 -35 -4z"/>
<path d="M4786 4134 c-9 -22 -8 -24 9 -18 8 4 15 12 15 20 0 19 -16 18 -24 -2z"/>
<path d="M4474 4095 c0 -16 6 -24 15 -23 23 5 24 26 3 37 -17 9 -20 7 -18 -14z"/>
<path d="M5300 4080 c0 -5 5 -10 10 -10 6 0 10 5 10 10 0 6 -4 10 -10 10 -5 0
-10 -4 -10 -10z"/>
<path d="M5459 4063 c-5 -15 -8 -37 -5 -49 8 -32 -19 -38 -42 -9 -20 25 -32
23 -32 -5 0 -10 -7 -24 -16 -31 -14 -11 -18 -11 -29 4 -17 24 -26 21 -20 -5 7
-30 -8 -53 -29 -45 -12 5 -16 17 -14 49 3 37 0 43 -18 46 -17 2 -22 -3 -26
-27 -5 -32 4 -54 35 -88 17 -19 19 -30 12 -96 -7 -83 2 -101 31 -62 24 32 34
31 59 -1 18 -24 20 -25 32 -8 7 10 13 36 13 59 0 29 5 44 19 52 10 7 22 9 25
6 3 -4 6 -37 6 -75 0 -40 4 -67 9 -63 5 3 11 -5 13 -17 2 -16 10 -23 30 -25
23 -1 27 3 33 40 15 95 0 186 -35 217 -23 20 -33 60 -15 60 7 0 16 -8 19 -17
6 -14 9 -15 15 -4 12 18 1 53 -21 69 -10 7 -18 19 -18 27 0 27 -20 26 -31 -2z
m-31 -104 c-2 -6 -8 -10 -13 -10 -5 0 -11 4 -13 10 -2 6 4 11 13 11 9 0 15 -5
13 -11z m-8 -75 c0 -24 -17 -15 -22 11 -4 20 -3 23 8 14 8 -6 14 -18 14 -25z
m-75 -54 c5 -9 -13 -56 -19 -48 -2 1 -6 15 -10 31 -5 20 -3 27 8 27 8 0 18 -4
21 -10z"/>
<path d="M5775 4070 c-13 -40 3 -75 40 -86 31 -10 34 -9 22 5 -6 9 -15 18 -19
21 -3 3 -8 21 -10 39 -3 40 -23 52 -33 21z"/>
<path d="M5163 4045 c-17 -20 -28 -24 -48 -19 l-25 6 2 -103 c0 -57 3 -110 6
-117 8 -22 30 6 25 33 -3 14 3 38 16 58 12 19 21 46 21 61 0 16 6 26 14 26 8
0 17 9 21 19 3 11 13 21 22 23 15 3 15 5 -1 21 -23 22 -27 22 -53 -8z"/>
<path d="M4810 4040 c0 -5 7 -10 16 -10 8 0 12 5 9 10 -3 6 -10 10 -16 10 -5
0 -9 -4 -9 -10z"/>
<path d="M4911 4036 c-7 -8 -8 -17 -3 -20 6 -3 13 1 16 10 9 23 2 28 -13 10z"/>
<path d="M4957 4036 c-7 -17 11 -97 23 -110 16 -16 22 1 10 24 -9 17 -9 29 -1
46 12 27 5 54 -14 54 -7 0 -15 -6 -18 -14z"/>
<path d="M5022 4038 c-14 -14 -16 -57 -4 -76 7 -11 21 6 38 48 1 3 -3 13 -10
22 -10 13 -15 15 -24 6z"/>
<path d="M5930 3951 c0 -5 7 -14 15 -21 8 -7 15 -25 15 -40 0 -31 19 -90 29
-90 4 0 8 21 9 46 1 36 -4 52 -26 80 -26 33 -42 43 -42 25z"/>
<path d="M4325 3870 c4 -6 11 -8 16 -5 14 9 11 15 -7 15 -8 0 -12 -5 -9 -10z"/>
<path d="M5687 3823 c-4 -7 -2 -15 4 -18 5 -4 8 -13 6 -19 -3 -7 -1 -19 4 -27
6 -10 9 -7 8 11 -1 35 -14 66 -22 53z"/>
<path d="M5578 3773 c-6 -25 34 -134 47 -130 6 2 9 25 7 55 -4 48 -3 50 18 45
20 -5 21 -4 11 14 -18 35 -77 46 -83 16z"/>
<path d="M5721 3719 c0 -8 4 -23 9 -34 8 -17 9 -16 7 7 -3 28 -18 53 -16 27z"/>
<path d="M6075 3718 c-2 -7 -4 -20 -3 -28 5 -65 -4 -121 -23 -139 -19 -17 -26
-35 -28 -68 -1 -6 -9 -14 -18 -16 -10 -3 -5 -5 12 -6 34 -1 48 15 60 68 l7 33
13 -26 c20 -37 0 -105 -45 -156 -8 -10 -30 -34 -47 -54 -32 -35 -43 -66 -24
-66 14 0 61 48 61 63 0 13 106 149 122 155 4 2 8 10 8 18 0 8 11 19 25 24 14
5 25 14 25 20 0 15 -43 12 -66 -5 -28 -22 -47 -19 -39 6 5 14 1 25 -12 34 -13
10 -14 14 -4 15 11 0 12 11 8 50 -3 27 -2 52 4 55 5 4 9 13 9 21 0 17 -39 19
-45 2z"/>
<path d="M5836 3683 c-11 -11 -7 -19 20 -46 14 -14 23 -31 19 -37 -10 -16 -22
-12 -28 10 -3 11 -12 20 -20 20 -12 0 -15 -13 -14 -60 1 -39 6 -60 14 -60 6 0
13 12 15 28 2 21 8 27 25 25 18 -2 23 4 29 35 4 20 12 40 18 44 8 5 6 12 -4
21 -18 17 -64 29 -74 20z"/>
<path d="M5711 3604 c0 -11 3 -14 6 -6 3 7 2 16 -1 19 -3 4 -6 -2 -5 -13z"/>
<path d="M6002 3602 c-9 -6 -10 -15 -3 -33 5 -13 11 -22 12 -19 2 8 8 60 6 60
-1 0 -8 -4 -15 -8z"/>
<path d="M5992 3500 c0 -14 2 -19 5 -12 2 6 2 18 0 25 -3 6 -5 1 -5 -13z"/>
<path d="M5536 3485 c-3 -8 -1 -15 4 -15 6 0 10 7 10 15 0 8 -2 15 -4 15 -2 0
-6 -7 -10 -15z"/>
<path d="M5526 3401 c-4 -7 -5 -15 -2 -18 9 -9 19 4 14 18 -4 11 -6 11 -12 0z"/>
<path d="M5770 3283 c0 -10 -57 -43 -73 -43 -12 0 -52 -70 -40 -70 29 0 140
105 122 116 -5 3 -9 2 -9 -3z"/>
<path d="M5805 3279 c-4 -6 -5 -13 -2 -16 7 -7 27 6 27 18 0 12 -17 12 -25 -2z"/>
<path d="M4076 3244 c-4 -10 -1 -14 6 -12 15 5 23 28 10 28 -5 0 -13 -7 -16
-16z"/>
<path d="M4936 3245 c-3 -9 0 -15 9 -15 8 0 15 7 15 15 0 8 -4 15 -9 15 -5 0
-11 -7 -15 -15z"/>
<path d="M5764 3185 c-19 -14 -18 -14 4 -15 13 0 22 6 22 15 0 19 -1 19 -26 0z"/>
<path d="M4838 3145 c-54 -60 -46 -80 7 -22 42 46 55 68 38 66 -5 0 -25 -20
-45 -44z"/>
<path d="M5082 3118 c-7 -7 -12 -16 -12 -20 0 -15 15 -8 28 12 13 22 3 27 -16
8z"/>
<path d="M4987 3083 c-4 -3 -7 -11 -7 -17 0 -6 5 -5 12 2 6 6 9 14 7 17 -3 3
-9 2 -12 -2z"/>
<path d="M5130 3070 c0 -5 5 -10 10 -10 6 0 10 5 10 10 0 6 -4 10 -10 10 -5 0
-10 -4 -10 -10z"/>
<path d="M5748 3056 c-9 -13 -30 -27 -45 -31 -15 -3 -47 -15 -71 -26 -24 -11
-51 -18 -59 -15 -21 9 -6 26 24 26 20 0 23 3 14 14 -6 7 -9 21 -5 30 5 13 2
15 -12 9 -28 -10 -84 -73 -84 -93 0 -11 -14 -24 -38 -33 -32 -13 -74 -46 -61
-48 2 0 21 -1 42 -3 30 -2 37 0 37 16 0 15 3 16 18 7 16 -10 30 -5 81 24 34
20 74 40 89 43 32 8 64 33 56 46 -3 4 11 15 31 24 20 8 33 19 30 24 -10 16
-29 11 -47 -14z m-198 -104 c0 -4 -10 -13 -22 -21 -23 -14 -23 -14 -4 8 20 22
26 25 26 13z"/>
<path d="M4927 3014 c-21 -20 -36 -38 -33 -41 7 -8 76 51 76 65 0 17 0 17 -43
-24z"/>
<path d="M5080 3005 c-13 -14 -20 -25 -16 -25 12 0 56 32 56 41 0 16 -16 10
-40 -16z"/>
<path d="M5970 3020 c0 -5 4 -10 9 -10 6 0 13 5 16 10 3 6 -1 10 -9 10 -9 0
-16 -4 -16 -10z"/>
<path d="M5125 2907 c-11 -8 -14 -16 -8 -20 6 -4 18 2 28 13 21 23 8 27 -20 7z"/>
<path d="M5194 2887 c-50 -28 -84 -66 -84 -92 0 -25 3 -24 47 25 32 35 52 50
65 47 15 -4 16 -2 7 14 -5 10 -11 19 -12 19 -1 -1 -11 -6 -23 -13z"/>
<path d="M5535 2860 c-19 -8 -19 -9 3 -9 12 -1 22 4 22 9 0 6 -1 10 -2 9 -2 0
-12 -4 -23 -9z"/>
<path d="M4879 2833 c-13 -15 -12 -15 9 -4 23 12 28 21 13 21 -5 0 -15 -7 -22
-17z"/>
<path d="M5421 2797 c-13 -21 -12 -21 5 -5 10 10 16 20 13 22 -3 3 -11 -5 -18
-17z"/>
<path d="M4480 2750 c-10 -18 -9 -19 14 -8 14 6 23 15 20 19 -9 15 -23 10 -34
-11z"/>
<path d="M5478 2763 c7 -3 16 -2 19 1 4 3 -2 6 -13 5 -11 0 -14 -3 -6 -6z"/>
<path d="M5370 2750 c-9 -6 -10 -10 -3 -10 6 0 15 5 18 10 8 12 4 12 -15 0z"/>
<path d="M5037 2697 c-48 -46 -69 -77 -54 -77 12 0 118 112 115 121 -2 6 -29
-14 -61 -44z"/>
<path d="M5475 2680 c3 -5 8 -10 11 -10 2 0 4 5 4 10 0 6 -5 10 -11 10 -5 0
-7 -4 -4 -10z"/>
<path d="M4932 2622 c-12 -8 -22 -22 -22 -31 0 -12 5 -10 20 9 10 14 22 21 26
17 4 -4 -1 -16 -11 -27 -21 -23 -9 -26 19 -5 16 12 16 16 4 33 -12 18 -15 18
-36 4z"/>
<path d="M5251 2614 c-13 -6 -28 -22 -35 -34 -7 -14 -22 -24 -40 -26 -37 -4
-57 -23 -50 -50 9 -35 34 -41 89 -22 28 9 44 17 36 18 -8 0 -11 6 -7 16 5 13
2 15 -14 11 -27 -7 -25 3 5 32 14 12 23 27 20 31 -3 5 3 13 12 19 26 14 12 20
-16 5z m-91 -110 c0 -8 -5 -12 -10 -9 -6 4 -8 11 -5 16 9 14 15 11 15 -7z"/>
<path d="M5371 2622 c-19 -2 -46 -12 -59 -23 -14 -10 -31 -19 -39 -19 -11 0
-13 -5 -8 -17 4 -10 9 -26 12 -35 4 -14 12 -11 44 19 21 20 36 41 33 47 -3 6
2 2 10 -8 9 -11 17 -18 18 -15 16 26 29 51 26 53 -2 0 -18 0 -37 -2z"/>
<path d="M5140 2595 c-8 -9 -8 -15 -2 -15 12 0 26 19 19 26 -2 2 -10 -2 -17
-11z"/>
<path d="M4894 2495 c-4 -14 -4 -29 0 -32 3 -4 6 1 6 10 0 10 5 17 10 17 6 0
10 7 10 15 0 25 -19 17 -26 -10z"/>
<path d="M5347 2503 c-10 -9 -9 -23 2 -23 5 0 11 7 15 15 5 15 -5 20 -17 8z"/>
<path d="M4863 2483 c-17 -6 -17 -23 0 -23 8 0 14 7 14 15 0 8 -1 15 -1 14 -1
0 -7 -3 -13 -6z"/>
<path d="M5096 2455 c-9 -14 -12 -25 -6 -25 5 0 10 5 10 11 0 5 5 7 10 4 6 -3
10 3 10 14 0 27 -4 26 -24 -4z"/>
<path d="M4991 2440 c-17 -17 -29 -36 -25 -41 6 -11 74 47 74 63 0 16 -17 8
-49 -22z"/>
<path d="M5045 2410 c-3 -5 -2 -10 4 -10 5 0 13 5 16 10 3 6 2 10 -4 10 -5 0
-13 -4 -16 -10z"/>
<path d="M5253 2359 c-25 -9 -31 -29 -9 -29 14 0 42 27 35 34 -2 2 -14 0 -26
-5z"/>
<path d="M4610 2318 c-22 -36 -9 -53 16 -22 30 39 36 54 19 54 -8 0 -24 -15
-35 -32z"/>
<path d="M5133 2328 c-25 -32 -26 -40 -4 -26 22 13 36 38 22 38 -5 0 -13 -6
-18 -12z"/>
<path d="M5069 2263 c-30 -21 -49 -45 -42 -55 2 -5 21 7 41 26 40 38 41 56 1
29z"/>
<path d="M5180 2270 c0 -10 26 -20 34 -13 11 12 6 19 -14 20 -11 1 -20 -2 -20
-7z"/>
<path d="M5097 2213 c-4 -3 -7 -11 -7 -17 0 -6 5 -5 12 2 6 6 9 14 7 17 -3 3
-9 2 -12 -2z"/>
<path d="M4735 2199 c-11 -17 1 -21 15 -4 8 9 8 15 2 15 -6 0 -14 -5 -17 -11z"/>
<path d="M5200 2200 c0 -5 5 -10 10 -10 6 0 10 5 10 10 0 6 -4 10 -10 10 -5 0
-10 -4 -10 -10z"/>
<path d="M3836 2185 c-3 -9 -10 -13 -16 -10 -6 4 -10 -6 -10 -24 0 -41 26 -31
33 12 5 36 2 46 -7 22z"/>
<path d="M4875 2170 c-8 -13 15 -24 27 -12 6 6 4 11 -6 15 -8 3 -18 2 -21 -3z"/>
<path d="M5085 2162 c-22 -20 -49 -62 -43 -68 8 -7 108 61 108 73 0 19 -42 15
-65 -5z"/>
<path d="M4816 2110 c-20 -22 -36 -45 -36 -50 0 -6 -6 -10 -13 -10 -14 0 -47
-35 -47 -50 0 -15 16 -12 30 5 7 8 23 15 36 15 12 0 26 5 29 10 4 6 25 20 48
31 45 23 67 42 67 57 0 16 -37 2 -61 -24 -38 -41 -56 -26 -19 16 11 13 20 27
20 32 0 18 -19 6 -54 -32z"/>
<path d="M4965 2119 c-4 -6 -5 -13 -2 -16 7 -7 27 6 27 18 0 12 -17 12 -25 -2z"/>
<path d="M4736 2104 c-11 -30 -6 -37 14 -19 11 10 20 22 20 27 0 15 -28 9 -34
-8z"/>
<path d="M4482 2095 c-11 -12 -10 -15 3 -15 8 0 15 7 15 15 0 18 -2 18 -18 0z"/>
<path d="M5300 2090 c-14 -11 -31 -20 -37 -20 -15 0 -18 -30 -3 -30 20 0 91
51 85 60 -9 14 -17 12 -45 -10z"/>
<path d="M5065 2047 c-30 -16 -36 -22 -22 -25 26 -5 44 4 57 27 6 12 9 21 8
20 -2 -1 -21 -11 -43 -22z"/>
<path d="M4625 2030 c-3 -5 -1 -10 4 -10 6 0 11 5 11 10 0 6 -2 10 -4 10 -3 0
-8 -4 -11 -10z"/>
<path d="M5340 2010 c-8 -5 -12 -11 -9 -14 2 -3 11 -1 19 4 8 5 12 11 9 14 -2
3 -11 1 -19 -4z"/>
<path d="M4876 1989 c-39 -56 -5 -66 51 -14 34 31 35 35 16 35 -12 0 -24 -6
-26 -12 -4 -10 -8 -10 -15 1 -8 10 -13 8 -26 -10z"/>
<path d="M4681 1997 c2 -1 12 -9 22 -16 15 -12 17 -12 11 3 -3 9 -13 16 -22
16 -8 0 -13 -1 -11 -3z"/>
<path d="M4720 1949 c0 -15 -61 -89 -74 -89 -16 0 -74 -76 -64 -85 9 -8 48 16
48 30 0 8 4 15 9 15 5 0 13 9 16 20 5 14 12 19 24 15 13 -4 26 5 45 30 22 28
25 38 16 55 -12 22 -20 26 -20 9z"/>
<path d="M4765 1949 c-11 -17 1 -21 15 -4 8 9 8 15 2 15 -6 0 -14 -5 -17 -11z"/>
<path d="M5442 1920 c-12 -5 -35 -21 -50 -35 -15 -14 -30 -25 -34 -25 -5 0 -8
-11 -8 -25 0 -33 15 -32 53 5 64 61 74 70 86 70 6 0 11 5 11 10 0 12 -27 12
-58 0z"/>
<path d="M4978 1899 c-10 -10 -18 -22 -18 -26 0 -4 -10 -17 -22 -30 -16 -17
-18 -23 -6 -23 18 0 58 41 58 60 0 7 8 19 18 26 13 11 14 13 2 13 -8 0 -23 -9
-32 -20z"/>
<path d="M4630 1899 c0 -5 5 -7 10 -4 6 3 10 8 10 11 0 2 -4 4 -10 4 -5 0 -10
-5 -10 -11z"/>
<path d="M6258 1903 c7 -3 16 -2 19 1 4 3 -2 6 -13 5 -11 0 -14 -3 -6 -6z"/>
<path d="M3870 1889 c0 -5 5 -7 10 -4 6 3 10 8 10 11 0 2 -4 4 -10 4 -5 0 -10
-5 -10 -11z"/>
<path d="M4840 1879 c0 -5 5 -7 10 -4 6 3 10 8 10 11 0 2 -4 4 -10 4 -5 0 -10
-5 -10 -11z"/>
<path d="M5278 1838 c-27 -28 -48 -55 -48 -61 0 -5 -7 -7 -15 -3 -15 5 -75
-38 -75 -55 0 -15 30 -10 36 5 3 8 19 18 34 21 38 8 96 56 92 76 -1 8 6 24 18
34 20 18 27 36 13 34 -5 0 -29 -23 -55 -51z"/>
<path d="M5765 1867 c-11 -7 -22 -15 -25 -18 -3 -3 -12 -9 -20 -12 -9 -3 -3
-6 13 -6 35 -1 67 15 67 34 0 18 -8 18 -35 2z"/>
<path d="M4480 1854 c0 -8 5 -12 10 -9 6 3 10 10 10 16 0 5 -4 9 -10 9 -5 0
-10 -7 -10 -16z"/>
<path d="M4330 1765 c-13 -14 -21 -27 -18 -30 2 -3 15 6 28 20 13 14 21 27 18
30 -2 3 -15 -6 -28 -20z"/>
<path d="M5574 1756 c-35 -19 -40 -25 -33 -44 10 -26 22 -28 39 -7 7 9 15 13
18 10 6 -5 42 44 42 58 0 12 -22 6 -66 -17z"/>
<path d="M6150 1740 c-8 -6 -27 -10 -41 -10 -18 0 -33 -9 -44 -26 -9 -14 -15
-27 -13 -29 2 -2 28 -5 58 -6 30 -2 60 -8 65 -15 7 -8 17 -9 34 -3 20 8 21 12
10 25 -8 9 -21 13 -35 10 -28 -7 -43 13 -21 29 20 14 8 38 -13 25z"/>
<path d="M4477 1671 c-9 -16 -17 -33 -17 -38 0 -10 49 49 50 60 0 17 -17 5
-33 -22z"/>
<path d="M5110 1685 c0 -8 7 -15 15 -15 8 0 15 7 15 15 0 8 -7 15 -15 15 -8 0
-15 -7 -15 -15z"/>
<path d="M4975 1681 c-3 -6 3 -15 13 -20 15 -8 23 -6 37 9 18 19 17 20 -13 20
-17 0 -33 -4 -37 -9z"/>
<path d="M5750 1680 c0 -5 5 -10 11 -10 5 0 7 5 4 10 -3 6 -8 10 -11 10 -2 0
-4 -4 -4 -10z"/>
<path d="M5268 1672 c-1 -5 -27 -20 -56 -34 -48 -24 -72 -23 -56 3 4 8 0 8
-15 0 -25 -14 -27 -34 -6 -51 9 -7 15 -8 15 -2 0 5 10 8 21 5 14 -4 27 0 35
11 7 10 27 25 45 34 18 10 35 23 37 30 4 13 -14 17 -20 4z"/>
<path d="M5697 1673 c-10 -9 -9 -23 2 -23 5 0 11 7 15 15 5 15 -5 20 -17 8z"/>
<path d="M5390 1634 c0 -17 22 -14 28 4 2 7 -3 12 -12 12 -9 0 -16 -7 -16 -16z"/>
<path d="M4940 1620 c-20 -20 -27 -50 -12 -50 4 0 23 16 42 35 31 32 32 35 12
35 -12 0 -31 -9 -42 -20z"/>
<path d="M6055 1620 c-3 -6 0 -13 9 -16 23 -9 69 0 74 14 5 15 -74 17 -83 2z"/>
<path d="M4635 1609 c-4 -6 -5 -12 -2 -15 2 -3 7 2 10 11 7 17 1 20 -8 4z"/>
<path d="M4827 1614 c-4 -4 -7 -14 -7 -23 0 -11 3 -12 11 -4 6 6 10 16 7 23
-2 6 -7 8 -11 4z"/>
<path d="M5044 1570 c-12 -5 -24 -15 -27 -24 -4 -9 -13 -16 -21 -16 -7 0 -16
-7 -20 -15 -8 -21 40 -20 52 1 5 8 19 21 32 27 39 20 25 44 -16 27z"/>
<path d="M4596 1561 c-4 -7 -5 -15 -2 -18 9 -9 19 4 14 18 -4 11 -6 11 -12 0z"/>
<path d="M4511 1539 c-17 -16 -20 -24 -11 -33 8 -8 16 -5 30 14 34 43 21 56
-19 19z"/>
<path d="M5268 1549 c-10 -5 -18 -15 -18 -20 0 -10 -40 -48 -83 -78 -14 -10
-22 -10 -30 -2 -17 17 -30 13 -24 -9 3 -10 0 -21 -7 -23 -6 -2 3 -4 20 -5 31
-1 50 13 147 105 38 37 35 56 -5 32z"/>
<path d="M5343 1542 c-37 -17 -41 -27 -17 -36 21 -8 64 19 64 39 0 18 -5 17
-47 -3z"/>
<path d="M5440 1550 c0 -5 6 -10 14 -10 8 0 18 5 21 10 3 6 -3 10 -14 10 -12
0 -21 -4 -21 -10z"/>
<path d="M6070 1553 c-31 -4 -49 -17 -50 -34 0 -16 34 -17 62 -3 17 9 43 14
57 11 14 -3 35 -2 45 2 19 7 19 8 0 16 -24 10 -69 13 -114 8z"/>
<path d="M4825 1529 l-30 -21 30 7 c35 8 38 10 34 24 -3 6 -17 2 -34 -10z"/>
<path d="M5975 1540 c3 -5 10 -10 16 -10 5 0 9 5 9 10 0 6 -7 10 -16 10 -8 0
-12 -4 -9 -10z"/>
<path d="M6270 1505 c0 -8 7 -15 15 -15 8 0 15 7 15 15 0 8 -7 15 -15 15 -8 0
-15 -7 -15 -15z"/>
<path d="M6083 1493 c-29 -5 -30 -33 -2 -33 28 0 61 19 54 31 -6 9 -13 10 -52
2z"/>
<path d="M4826 1445 c-15 -19 -23 -35 -18 -35 12 0 62 50 62 61 0 19 -19 8
-44 -26z"/>
<path d="M4480 1460 c0 -5 7 -7 15 -4 8 4 15 8 15 10 0 2 -7 4 -15 4 -8 0 -15
-4 -15 -10z"/>
<path d="M6028 1453 c7 -3 16 -2 19 1 4 3 -2 6 -13 5 -11 0 -14 -3 -6 -6z"/>
<path d="M4540 1424 c-15 -37 -12 -42 10 -15 22 26 26 41 10 41 -6 0 -15 -12
-20 -26z"/>
<path d="M4608 1405 c-21 -17 -38 -41 -38 -51 1 -18 1 -18 15 1 8 11 27 32 42
48 38 39 25 41 -19 2z"/>
<path d="M5862 1420 c-30 -14 -42 -25 -40 -37 4 -22 23 -27 39 -10 8 7 31 20
52 28 21 9 38 20 38 25 -1 16 -45 13 -89 -6z"/>
<path d="M5978 1424 c-3 -3 -4 -14 -1 -25 6 -21 33 -25 65 -8 19 10 19 11 -7
25 -29 15 -48 18 -57 8z"/>
<path d="M6090 1405 c-15 -17 -13 -20 16 -29 19 -6 65 17 54 27 -16 14 -59 15
-70 2z"/>
<path d="M4674 1383 c-3 -10 -12 -35 -20 -55 -8 -21 -12 -38 -9 -38 11 0 45
46 45 62 0 18 33 42 44 31 3 -3 6 -1 6 5 0 20 -60 14 -66 -5z"/>
<path d="M5235 1383 c-16 -9 -45 -16 -63 -14 -24 1 -43 -6 -65 -25 l-32 -27
40 7 c22 4 45 12 52 17 6 6 22 7 35 4 18 -5 30 1 53 25 32 33 25 38 -20 13z"/>
<path d="M5665 1369 c-16 -16 -27 -29 -23 -29 18 0 96 44 92 52 -10 16 -39 6
-69 -23z"/>
<path d="M5753 1335 c-22 -19 -61 -67 -88 -108 -50 -76 -96 -117 -133 -117
-11 0 -24 -4 -27 -10 -3 -5 -13 -10 -21 -10 -8 0 -25 -9 -36 -20 -15 -14 -33
-20 -58 -18 -30 3 -35 0 -38 -20 -3 -16 -8 -22 -19 -18 -19 8 -55 -12 -47 -25
8 -13 -25 -44 -56 -54 -46 -15 -92 -85 -56 -85 9 0 16 5 16 10 0 6 9 10 20 10
12 0 24 10 30 24 9 24 46 44 58 31 3 -3 1 -15 -6 -25 -16 -25 -15 -30 3 -30
22 0 85 60 85 81 0 12 24 36 62 64 69 50 67 49 88 34 13 -9 12 -10 -2 -5 -11
3 -18 0 -18 -8 0 -7 -7 -19 -15 -26 -36 -30 -2 -41 41 -13 21 13 27 14 34 3 9
-15 30 -5 30 16 0 8 7 14 16 14 8 0 13 -4 10 -9 -13 -21 37 4 51 25 8 13 22
24 30 24 13 0 13 -3 3 -15 -7 -9 -10 -18 -6 -22 10 -10 56 19 56 35 0 9 6 12
16 8 19 -7 62 14 93 48 17 18 20 26 10 26 -8 0 -24 3 -35 6 -16 4 -33 -4 -62
-30 -39 -36 -41 -36 -87 -26 -44 10 -50 9 -71 -11 -13 -13 -24 -28 -24 -36 0
-7 -7 -13 -15 -13 -8 0 -15 6 -15 13 0 12 120 154 127 150 2 -2 10 -3 18 -3
11 0 14 7 9 25 -5 20 0 31 22 50 16 14 36 25 45 25 9 0 23 8 33 19 13 14 14
20 4 28 -29 22 -37 21 -75 -12z m-92 -278 c-13 -13 -26 -3 -16 12 3 6 11 8 17
5 6 -4 6 -10 -1 -17z"/>
<path d="M5917 1363 c-4 -3 -7 -13 -7 -22 1 -13 3 -13 11 2 11 19 8 33 -4 20z"/>
<path d="M6215 1360 c-3 -5 -2 -10 4 -10 5 0 13 5 16 10 3 6 2 10 -4 10 -5 0
-13 -4 -16 -10z"/>
<path d="M6280 1351 c0 -6 4 -12 8 -15 13 -8 52 5 46 15 -7 12 -54 12 -54 0z"/>
<path d="M6376 1351 c-3 -5 1 -11 9 -15 9 -3 15 0 15 9 0 16 -16 20 -24 6z"/>
<path d="M6000 1330 c-21 -12 -54 -23 -62 -22 -5 1 -8 -2 -8 -8 0 -5 -6 -10
-13 -10 -8 0 -24 -12 -38 -26 -19 -21 -31 -25 -56 -21 -18 3 -35 1 -38 -4 -4
-5 -1 -9 4 -9 6 0 11 -7 11 -15 0 -21 73 -20 104 1 16 10 26 12 31 5 13 -22
41 -10 75 33 31 40 41 45 88 51 28 4 52 12 52 17 0 6 -14 8 -35 4 -22 -4 -35
-3 -35 4 0 12 -59 12 -80 0z"/>
<path d="M4716 1289 c-29 -34 -41 -71 -32 -95 9 -23 38 2 31 27 -4 12 7 30 37
58 42 40 43 41 16 41 -17 0 -35 -10 -52 -31z"/>
<path d="M5202 1290 c-17 -28 -15 -32 8 -13 20 18 26 33 12 33 -4 0 -13 -9
-20 -20z"/>
<path d="M5840 1296 c0 -9 5 -16 10 -16 6 0 10 4 10 9 0 6 -4 13 -10 16 -5 3
-10 -1 -10 -9z"/>
<path d="M5005 1280 c3 -5 13 -10 21 -10 8 0 14 5 14 10 0 6 -9 10 -21 10 -11
0 -17 -4 -14 -10z"/>
<path d="M5160 1204 c0 -8 5 -12 10 -9 6 3 10 10 10 16 0 5 -4 9 -10 9 -5 0
-10 -7 -10 -16z"/>
<path d="M5290 1195 c-13 -14 -19 -25 -14 -25 14 0 54 30 54 41 0 16 -16 10
-40 -16z"/>
<path d="M5116 1174 c-4 -12 -2 -12 14 -4 20 11 39 -3 20 -15 -5 -3 -10 -13
-10 -22 0 -14 2 -14 19 1 10 10 21 25 24 35 3 14 -2 18 -28 19 -21 1 -35 -4
-39 -14z"/>
<path d="M4735 1160 c-3 -5 -2 -10 4 -10 5 0 13 5 16 10 3 6 2 10 -4 10 -5 0
-13 -4 -16 -10z"/>
<path d="M4986 1109 c-15 -16 -26 -34 -24 -39 3 -9 32 13 62 48 15 18 16 22 4
22 -8 0 -27 -14 -42 -31z"/>
<path d="M4874 992 c-11 -8 -54 -69 -54 -77 0 -11 32 -5 46 9 7 8 18 16 22 18
5 1 12 13 16 24 7 22 -12 38 -30 26z"/>
<path d="M5431 959 c-15 -12 -21 -23 -15 -29 5 -5 18 1 32 15 28 29 15 40 -17
14z"/>
<path d="M5912 2732 c-19 -16 -32 -36 -32 -49 0 -26 0 -26 34 -13 15 5 26 17
26 28 0 10 5 23 12 30 8 8 8 15 3 21 -6 6 -22 0 -43 -17z"/>
<path d="M6690 10350 c0 -5 9 -10 20 -10 11 0 20 5 20 10 0 6 -9 10 -20 10
-11 0 -20 -4 -20 -10z"/>
<path d="M9828 7183 c7 -3 16 -2 19 1 4 3 -2 6 -13 5 -11 0 -14 -3 -6 -6z"/>
<path d="M5049 7153 c-13 -16 -12 -17 4 -4 9 7 17 15 17 17 0 8 -8 3 -21 -13z"/>
<path d="M9832 7099 c2 -6 8 -10 13 -10 5 0 11 4 13 10 2 6 -4 11 -13 11 -9 0
-15 -5 -13 -11z"/>
<path d="M9650 6920 c0 -5 15 -10 33 -9 27 0 29 2 12 9 -28 12 -45 12 -45 0z"/>
<path d="M9432 5786 c7 -8 15 -12 17 -11 5 6 -10 25 -20 25 -5 0 -4 -6 3 -14z"/>
<path d="M9530 5710 c0 -5 5 -10 10 -10 6 0 10 5 10 10 0 6 -4 10 -10 10 -5 0
-10 -4 -10 -10z"/>
<path d="M9140 5450 c0 -24 15 -27 24 -4 9 22 8 24 -9 24 -8 0 -15 -9 -15 -20z"/>
<path d="M4260 5045 c-10 -13 -9 -15 9 -15 12 0 21 6 21 15 0 8 -4 15 -9 15
-5 0 -14 -7 -21 -15z"/>
<path d="M9175 4590 c-4 -6 -11 -8 -16 -5 -5 4 -9 1 -9 -4 0 -16 26 -13 40 4
8 9 9 15 2 15 -6 0 -14 -5 -17 -10z"/>
<path d="M9043 4534 c-9 -23 13 -40 32 -24 8 7 15 18 15 24 0 17 -40 17 -47 0z"/>
<path d="M8888 4433 c7 -3 16 -2 19 1 4 3 -2 6 -13 5 -11 0 -14 -3 -6 -6z"/>
<path d="M9159 4327 c-3 -32 4 -70 16 -94 11 -21 15 -24 20 -11 4 9 18 18 33
21 17 3 34 18 46 39 11 18 27 39 35 46 13 10 9 12 -24 7 -22 -3 -41 -10 -43
-15 -5 -14 -22 -12 -54 4 -21 11 -28 12 -29 3z"/>
<path d="M3317 3520 c-7 -27 11 -36 31 -16 15 15 15 18 2 26 -22 14 -27 12
-33 -10z"/>
<path d="M2890 3322 c0 -5 -20 -8 -44 -8 -50 1 -69 -10 -45 -27 24 -18 33 -66
14 -73 -8 -4 -15 -15 -15 -25 0 -10 -4 -19 -10 -19 -5 0 -10 -9 -10 -19 0 -18
-26 -31 -73 -36 -26 -3 -66 -46 -69 -75 -3 -23 1 -25 40 -28 52 -4 72 10 72
49 0 19 5 29 15 29 8 0 15 5 15 10 0 6 7 10 15 10 8 0 15 -4 15 -10 0 -19 39
-10 45 10 3 11 11 20 16 20 5 0 9 5 9 10 0 6 -10 10 -21 10 -19 0 -21 4 -14
38 7 40 23 65 35 57 5 -3 11 -1 14 4 4 5 1 13 -5 16 -7 5 -2 12 12 19 29 14
34 46 8 46 -10 0 -19 -4 -19 -8z"/>
<path d="M3440 3319 c0 -5 5 -7 10 -4 6 3 10 8 10 11 0 2 -4 4 -10 4 -5 0 -10
-5 -10 -11z"/>
<path d="M2977 3272 c-9 -10 -17 -25 -17 -34 0 -8 -3 -18 -6 -21 -4 -4 -8 -21
-9 -38 -4 -45 -55 -114 -85 -114 -13 0 -25 -6 -28 -13 -2 -6 -10 -12 -18 -12
-21 0 -54 -37 -54 -60 0 -11 9 -29 21 -41 18 -18 28 -20 80 -15 53 6 59 5 59
-13 0 -21 26 -36 35 -21 10 16 52 11 59 -6 7 -19 -20 -54 -41 -54 -17 0 -17
-15 2 -30 11 -9 30 -10 63 -5 26 4 58 8 72 9 14 0 25 7 25 13 0 7 11 20 24 29
21 15 22 18 7 26 -22 12 -11 28 19 28 13 0 30 6 37 13 7 7 21 16 31 20 9 3 17
11 17 17 0 5 9 10 19 10 11 0 22 8 24 18 4 14 5 14 6 1 1 -20 64 -36 70 -18 2
6 16 25 31 42 28 34 45 77 29 77 -6 0 -5 9 2 21 10 20 9 21 -15 15 -15 -4 -26
-2 -26 4 0 18 -18 11 -47 -20 -15 -16 -38 -30 -50 -30 -13 0 -23 -4 -23 -10 0
-5 -11 -10 -25 -10 -25 0 -33 14 -15 25 6 3 10 17 10 31 0 13 4 24 9 24 14 0
43 97 36 120 -7 22 -20 26 -30 10 -3 -5 -13 -10 -22 -10 -9 0 -25 -7 -35 -16
-12 -12 -40 -18 -92 -19 -41 -1 -79 -5 -84 -9 -7 -4 -14 11 -19 36 -10 48 -22
56 -46 30z m433 -239 c-1 -14 -27 -43 -39 -43 -15 0 -14 6 6 30 18 20 33 26
33 13z"/>
<path d="M3310 3260 c0 -5 4 -10 9 -10 6 0 13 5 16 10 3 6 -1 10 -9 10 -9 0
-16 -4 -16 -10z"/>
<path d="M8490 2935 c0 -8 5 -15 10 -15 6 0 10 7 10 15 0 8 -4 15 -10 15 -5 0
-10 -7 -10 -15z"/>
<path d="M3392 2908 c5 -15 28 -23 28 -10 0 5 -7 13 -16 16 -10 4 -14 1 -12
-6z"/>
<path d="M3235 2868 c-11 -48 -10 -91 3 -95 6 -3 12 3 12 11 0 9 7 19 16 23
11 4 13 13 9 34 -8 36 5 37 42 3 19 -17 24 -27 16 -31 -17 -6 -17 -38 0 -52
18 -14 37 5 37 37 0 17 4 23 15 18 12 -4 15 3 15 29 0 36 -13 47 -24 20 -8
-21 -23 -19 -29 5 -4 17 -14 20 -56 20 -44 0 -51 -3 -56 -22z"/>
<path d="M8464 2844 c3 -9 6 -20 6 -25 0 -6 4 -8 9 -5 12 8 2 46 -11 46 -6 0
-7 -7 -4 -16z"/>
<path d="M8540 2810 c-9 -6 -10 -10 -3 -10 6 0 15 5 18 10 8 12 4 12 -15 0z"/>
<path d="M8370 2780 c0 -5 4 -10 9 -10 6 0 13 5 16 10 3 6 -1 10 -9 10 -9 0
-16 -4 -16 -10z"/>
<path d="M3180 2755 c-7 -8 -10 -25 -6 -40 5 -19 2 -27 -11 -32 -10 -4 -31
-19 -47 -35 -23 -21 -26 -28 -13 -28 11 0 17 -8 17 -25 0 -32 10 -32 42 3 31
34 52 85 45 112 -3 10 1 24 9 31 8 6 11 15 8 20 -8 14 -30 11 -44 -6z"/>
<path d="M3359 2739 c-7 -18 -23 -44 -37 -58 -37 -40 -44 -58 -26 -65 17 -6
54 27 54 48 0 6 9 28 20 49 22 40 25 57 11 57 -5 0 -14 -14 -22 -31z"/>
<path d="M8640 2711 c0 -11 5 -23 10 -26 6 -4 10 5 10 19 0 14 -4 26 -10 26
-5 0 -10 -9 -10 -19z"/>
<path d="M7790 2610 c-13 -8 -12 -10 3 -10 9 0 17 5 17 10 0 12 -1 12 -20 0z"/>
<path d="M7940 2600 c0 -5 5 -10 11 -10 5 0 7 5 4 10 -3 6 -8 10 -11 10 -2 0
-4 -4 -4 -10z"/>
<path d="M8030 2519 c0 -5 5 -7 10 -4 6 3 10 8 10 11 0 2 -4 4 -10 4 -5 0 -10
-5 -10 -11z"/>
<path d="M8268 2507 c-6 -16 1 -37 13 -37 12 0 12 37 0 44 -5 3 -11 0 -13 -7z"/>
<path d="M8155 2487 c-10 -40 0 -56 15 -24 10 20 11 30 2 39 -8 8 -13 4 -17
-15z"/>
<path d="M3366 2478 c-18 -25 -22 -63 -6 -53 6 4 8 11 4 16 -3 6 2 19 12 30 9
10 15 22 12 25 -3 3 -13 -5 -22 -18z"/>
<path d="M3305 2480 c-3 -5 -2 -10 4 -10 5 0 13 5 16 10 3 6 2 10 -4 10 -5 0
-13 -4 -16 -10z"/>
<path d="M8270 2440 c0 -5 5 -10 10 -10 6 0 10 5 10 10 0 6 -4 10 -10 10 -5 0
-10 -4 -10 -10z"/>
<path d="M7791 2404 c0 -11 3 -14 6 -6 3 7 2 16 -1 19 -3 4 -6 -2 -5 -13z"/>
<path d="M3278 2309 c-18 -10 -25 -39 -10 -39 5 0 16 8 25 18 28 31 19 42 -15
21z"/>
<path d="M3247 2223 c-4 -3 -7 -11 -7 -17 0 -6 5 -5 12 2 6 6 9 14 7 17 -3 3
-9 2 -12 -2z"/>
<path d="M8135 1620 c-3 -5 1 -10 9 -10 9 0 16 5 16 10 0 6 -4 10 -9 10 -6 0
-13 -4 -16 -10z"/>
<path d="M8047 1584 c-4 -4 -7 -14 -7 -23 0 -11 3 -12 11 -4 6 6 10 16 7 23
-2 6 -7 8 -11 4z"/>
<path d="M8080 1510 c0 -11 7 -20 15 -20 17 0 18 2 9 24 -9 23 -24 20 -24 -4z"/>
<path d="M8260 1450 c0 -5 5 -10 11 -10 5 0 7 5 4 10 -3 6 -8 10 -11 10 -2 0
-4 -4 -4 -10z"/>
<path d="M8090 1350 c0 -5 5 -10 11 -10 5 0 7 5 4 10 -3 6 -8 10 -11 10 -2 0
-4 -4 -4 -10z"/>
<path d="M8595 1170 c-3 -5 -1 -10 4 -10 6 0 11 5 11 10 0 6 -2 10 -4 10 -3 0
-8 -4 -11 -10z"/>
<path d="M8280 1048 c0 -8 7 -23 15 -34 8 -10 15 -26 15 -35 0 -9 7 -19 15
-23 8 -3 15 -11 15 -18 0 -7 10 -24 21 -38 l21 -25 -6 25 c-3 14 -6 33 -6 42
0 10 -9 26 -20 36 -13 12 -18 25 -14 35 4 11 1 17 -7 17 -7 0 -21 7 -31 17
-15 13 -18 14 -18 1z"/>
<path d="M8768 1038 c12 -12 24 -19 28 -15 10 10 -16 37 -34 37 -13 0 -12 -4
6 -22z"/>
<path d="M8217 1010 c3 -14 11 -28 17 -32 6 -4 9 -28 8 -54 -1 -26 3 -53 9
-60 6 -7 11 -53 13 -102 1 -57 6 -95 15 -105 7 -9 10 -20 7 -25 -7 -11 33 -92
45 -92 17 0 9 58 -16 112 -27 59 -31 78 -14 78 16 0 38 -31 39 -52 0 -24 17
-23 25 2 10 31 -5 110 -21 110 -8 0 -14 10 -14 23 0 12 -6 31 -13 42 -8 11
-19 42 -26 69 -7 27 -21 60 -31 74 -11 13 -18 27 -16 31 3 4 -4 7 -14 7 -16 0
-18 -5 -13 -26z"/>
<path d="M8620 994 c0 -10 31 -36 37 -31 10 10 -6 37 -22 37 -8 0 -15 -3 -15
-6z"/>
<path d="M8700 991 c0 -5 5 -13 10 -16 6 -3 10 -2 10 4 0 5 -4 13 -10 16 -5 3
-10 2 -10 -4z"/>
<path d="M8610 935 c0 -21 17 -45 32 -45 14 0 9 17 -12 41 -19 23 -19 23 -20
4z"/>
<path d="M9043 943 c-18 -7 -16 -23 2 -23 8 0 15 7 15 15 0 8 -1 15 -2 14 -2
0 -9 -3 -15 -6z"/>
<path d="M8533 900 c-1 -16 7 -36 19 -50 28 -30 35 -11 14 35 -22 45 -31 49
-33 15z"/>
<path d="M2956 892 c-4 -12 -12 -20 -17 -17 -5 4 -9 -4 -9 -17 l0 -22 21 21
c12 11 19 29 17 39 -4 17 -5 17 -12 -4z"/>
<path d="M8670 865 c0 -17 2 -18 24 -9 18 7 12 24 -10 24 -8 0 -14 -7 -14 -15z"/>
<path d="M2904 807 c-9 -25 0 -62 16 -62 10 0 15 10 15 34 0 36 -21 54 -31 28z"/>
<path d="M8745 810 c-3 -5 -1 -10 4 -10 6 0 11 5 11 10 0 6 -2 10 -4 10 -3 0
-8 -4 -11 -10z"/>
<path d="M8700 801 c0 -6 5 -13 11 -16 6 -4 8 -13 5 -21 -3 -8 0 -11 9 -8 12
5 12 10 -2 30 -16 26 -23 30 -23 15z"/>
<path d="M8430 786 c0 -9 5 -16 10 -16 6 0 10 4 10 9 0 6 -4 13 -10 16 -5 3
-10 -1 -10 -9z"/>
<path d="M8020 763 c0 -13 5 -23 10 -23 13 0 13 11 0 30 -8 12 -10 11 -10 -7z"/>
<path d="M2275 700 c-3 -5 -1 -10 4 -10 6 0 11 5 11 10 0 6 -2 10 -4 10 -3 0
-8 -4 -11 -10z"/>
<path d="M8610 671 c0 -5 7 -11 15 -15 8 -3 15 -1 15 3 0 5 -7 11 -15 15 -8 3
-15 1 -15 -3z"/>
<path d="M8500 632 c0 -19 29 -52 46 -52 5 0 1 5 -8 11 -10 5 -18 19 -18 29 0
10 -4 22 -10 25 -5 3 -10 -2 -10 -13z"/>
<path d="M960 491 c-21 -17 -31 -33 -29 -46 6 -32 37 -30 51 2 7 15 18 32 25
36 17 10 16 24 -1 30 -7 3 -28 -7 -46 -22z"/>
<path d="M8545 440 c3 -5 11 -10 16 -10 6 0 7 5 4 10 -3 6 -11 10 -16 10 -6 0
-7 -4 -4 -10z"/>
<path d="M8110 375 c0 -14 5 -25 10 -25 6 0 10 11 10 25 0 14 -4 25 -10 25 -5
0 -10 -11 -10 -25z"/>
<path d="M1073 333 c-29 -29 -53 -61 -53 -72 0 -11 -6 -22 -12 -24 -7 -3 -3
-6 8 -6 12 -1 24 5 27 13 4 9 14 12 26 9 14 -4 23 1 28 13 3 11 9 21 12 24 14
12 27 57 22 76 -5 18 -11 15 -58 -33z"/>
<path d="M2360 362 c0 -18 5 -32 10 -32 6 0 8 11 4 28 -10 39 -14 40 -14 4z"/>
<path d="M4715 320 c3 -5 8 -10 11 -10 2 0 4 5 4 10 0 6 -5 10 -11 10 -5 0 -7
-4 -4 -10z"/>
<path d="M4513 293 c-27 -18 -30 -43 -5 -43 15 0 72 43 72 55 0 11 -47 3 -67
-12z"/>
<path d="M4595 269 c-4 -6 -5 -12 -2 -15 2 -3 7 2 10 11 7 17 1 20 -8 4z"/>
<path d="M4428 223 c-40 -47 -31 -83 13 -51 24 18 26 24 15 30 -9 5 -13 15
-10 23 8 20 0 19 -18 -2z"/>
<path d="M4599 213 c-13 -16 -12 -17 4 -4 9 7 17 15 17 17 0 8 -8 3 -21 -13z"/>
<path d="M4472 140 c-39 -40 -69 -76 -66 -82 3 -5 -4 -12 -16 -15 -13 -4 -19
-11 -16 -20 3 -8 6 -17 6 -19 0 -2 29 -4 65 -4 61 0 65 1 64 23 0 12 -3 16 -6
10 -9 -23 -33 -14 -33 11 0 13 4 26 8 28 13 5 74 117 70 129 -2 6 -36 -21 -76
-61z m-10 -58 c-7 -2 -12 -10 -12 -18 0 -8 -7 -14 -15 -14 -19 0 -19 6 3 28 9
11 21 16 27 14 5 -3 4 -7 -3 -10z"/>
<path d="M1738 153 c6 -2 18 -2 25 0 6 3 1 5 -13 5 -14 0 -19 -2 -12 -5z"/>
<path d="M990 100 c0 -14 26 -23 41 -15 8 6 7 10 -2 16 -19 12 -39 11 -39 -1z"/>
<path d="M4610 69 c0 -5 5 -7 10 -4 6 3 10 8 10 11 0 2 -4 4 -10 4 -5 0 -10
-5 -10 -11z"/>
<path d="M4550 20 c0 -24 15 -27 24 -4 9 22 8 24 -9 24 -8 0 -15 -9 -15 -20z"/>
</g>
</svg>
