<?xml version="1.0" standalone="no"?>
<!DOCTYPE svg PUBLIC "-//W3C//DTD SVG 20010904//EN"
 "http://www.w3.org/TR/2001/REC-SVG-20010904/DTD/svg10.dtd">
<svg version="1.0" xmlns="http://www.w3.org/2000/svg"
 width="1503.000000pt" height="1503.000000pt" viewBox="0 0 1503.000000 1503.000000"
 preserveAspectRatio="xMidYMid meet">
<metadata>
Created by potrace 1.14, written by Peter Selinger 2001-2017
</metadata>
<g transform="translate(0.000000,1503.000000) scale(0.100000,-0.100000)"
fill="#000000" stroke="none">
<path d="M11795 12335 c-27 -7 -53 -11 -57 -8 -8 4 -172 -41 -198 -56 -9 -5
-31 -12 -50 -16 -52 -11 -265 -104 -330 -145 -25 -15 -81 -38 -165 -65 -44
-15 -114 -43 -155 -64 -319 -158 -321 -159 -435 -263 -280 -254 -338 -319
-390 -433 -32 -68 -94 -139 -144 -162 -20 -10 -80 -43 -133 -75 -54 -32 -108
-62 -120 -67 -13 -5 -38 -23 -56 -40 -19 -17 -46 -38 -62 -46 -15 -8 -30 -21
-33 -30 -4 -8 -12 -15 -20 -15 -7 0 -31 -10 -52 -21 -22 -12 -65 -34 -95 -50
-31 -16 -69 -42 -85 -59 -16 -16 -34 -30 -40 -30 -6 0 -21 -12 -34 -26 -18
-21 -29 -25 -64 -22 -40 3 -42 2 -45 -27 -2 -16 -7 -34 -11 -38 -12 -12 -100
32 -118 59 -21 32 -33 21 -33 -29 0 -23 -7 -55 -15 -71 -11 -22 -12 -32 -4
-42 6 -8 9 -27 7 -44 -3 -19 0 -30 8 -30 17 0 27 -49 14 -66 -7 -7 -9 -17 -6
-22 3 -6 -5 -13 -18 -16 -13 -3 -31 -9 -40 -12 -13 -5 -16 1 -16 25 0 21 -5
31 -15 31 -9 0 -18 7 -21 15 -4 9 -19 15 -41 15 -29 0 -34 3 -29 16 7 18 -19
54 -39 54 -6 0 -26 -11 -45 -25 -18 -13 -37 -22 -41 -19 -5 3 -44 7 -86 10
-43 2 -89 5 -103 5 -14 1 -36 1 -50 0 -39 -3 -142 8 -170 18 -14 5 -60 11
-103 14 -70 4 -82 2 -113 -19 -42 -29 -75 -31 -91 -5 -8 12 -19 17 -32 14 -10
-3 -31 3 -45 12 -39 26 -175 17 -216 -14 -21 -15 -37 -20 -55 -15 -15 4 -25 2
-25 -5 0 -17 -19 -13 -50 9 -30 21 -86 19 -105 -5 -10 -12 -80 -24 -172 -28
-31 -2 -59 -9 -70 -19 -14 -13 -29 -16 -56 -11 -23 3 -42 1 -52 -7 -9 -7 -27
-10 -44 -7 -19 4 -44 -1 -70 -13 -22 -11 -51 -20 -65 -20 -14 0 -28 -4 -31
-10 -3 -5 -17 -10 -30 -10 -13 0 -27 5 -30 10 -3 6 -20 10 -36 10 -18 0 -28
-4 -24 -10 3 -6 -4 -10 -18 -10 -13 0 -32 -9 -42 -20 -10 -12 -25 -18 -33 -15
-7 3 -23 -2 -35 -10 l-22 -15 23 -6 c25 -7 26 -8 12 -35 -13 -23 -45 -25 -54
-4 -3 8 -12 15 -20 15 -20 0 -36 32 -29 58 3 15 -3 29 -22 46 -34 31 -33 30
-12 54 10 11 14 23 9 26 -5 3 -51 1 -102 -5 -52 -5 -101 -7 -111 -4 -14 5 -30
54 -34 110 -1 13 -49 60 -69 68 -15 6 -15 3 -1 -31 14 -33 14 -38 0 -48 -10
-7 -14 -24 -13 -45 2 -24 -1 -33 -10 -31 -9 1 -12 -6 -10 -20 2 -17 -5 -25
-35 -36 -36 -14 -39 -14 -63 8 -31 30 -54 34 -71 12 -43 -57 -101 -151 -107
-174 -15 -65 -109 -129 -298 -202 -53 -20 -98 -41 -100 -46 -5 -12 -218 -160
-253 -174 -16 -7 -64 -45 -105 -85 -41 -39 -103 -92 -137 -119 -62 -48 -93
-86 -93 -117 0 -31 -64 -153 -87 -166 -13 -7 -25 -22 -29 -33 -5 -21 -28 -73
-47 -111 -11 -21 -18 -50 -37 -145 -7 -30 -16 -69 -21 -86 -5 -17 -13 -62 -19
-100 -5 -38 -14 -87 -19 -109 -6 -22 -18 -76 -27 -120 -9 -44 -29 -116 -44
-160 -15 -44 -33 -107 -40 -140 -18 -87 -85 -235 -148 -330 -19 -27 -45 -72
-59 -100 -14 -27 -33 -61 -43 -75 -9 -14 -23 -41 -30 -60 -8 -19 -24 -50 -36
-68 -25 -36 -64 -188 -64 -247 0 -51 38 -87 113 -105 48 -11 79 -11 185 -1
151 16 283 56 389 119 39 23 74 42 78 42 12 0 100 64 164 119 126 108 220 204
259 262 44 66 67 65 50 -1 -7 -27 -7 -49 0 -70 8 -20 8 -39 2 -56 -6 -14 -10
-40 -10 -57 0 -18 -6 -44 -14 -58 -9 -17 -10 -32 -4 -42 5 -10 5 -23 -2 -34
-5 -10 -19 -55 -30 -101 -11 -46 -33 -112 -50 -147 -16 -34 -30 -70 -30 -78 0
-9 -6 -41 -14 -71 -9 -34 -12 -66 -7 -83 4 -16 6 -45 3 -65 -3 -27 2 -45 18
-68 23 -32 21 -52 -3 -32 -11 9 -13 6 -9 -17 2 -16 -1 -37 -6 -48 -12 -23 16
-133 34 -133 6 0 11 -14 10 -30 -1 -26 -4 -30 -22 -26 -13 4 -27 -1 -35 -10
-11 -13 -10 -17 4 -25 11 -7 17 -22 17 -44 0 -24 5 -35 15 -35 8 0 19 -9 25
-21 13 -24 4 -41 -10 -19 -8 13 -11 13 -23 0 -18 -19 -2 -109 16 -91 6 6 20
11 31 11 33 0 49 15 41 39 -3 11 -13 21 -21 21 -8 0 -14 7 -14 15 0 8 5 15 10
15 6 0 10 -4 10 -10 0 -5 7 -10 15 -10 8 0 23 -4 33 -10 9 -5 29 -14 45 -20
17 -6 27 -17 27 -30 0 -22 -26 -28 -33 -7 -2 6 -8 8 -13 4 -13 -12 34 -47 62
-47 15 0 27 -7 30 -17 11 -35 21 -48 45 -53 15 -4 25 -14 27 -28 2 -12 8 -20
13 -17 5 4 9 -1 9 -9 0 -8 -9 -18 -20 -21 -11 -3 -20 -10 -20 -15 0 -11 58
-40 82 -40 10 0 18 -4 18 -9 0 -5 3 -17 6 -26 6 -14 3 -14 -20 -4 -23 11 -29
10 -47 -9 -11 -12 -17 -27 -14 -32 9 -15 25 -12 25 5 0 8 5 15 10 15 17 0 11
-14 -17 -45 l-28 -30 50 -17 c28 -10 62 -17 76 -18 29 0 109 -70 109 -95 0
-20 -8 -19 -48 5 -45 27 -60 26 -54 -5 2 -14 0 -25 -6 -25 -12 0 -43 40 -38
49 2 3 -7 14 -20 24 -22 16 -25 17 -30 2 -4 -11 5 -27 28 -48 19 -18 38 -41
42 -52 5 -15 9 -16 15 -6 7 11 13 10 34 -4 50 -32 46 -65 -9 -65 -27 0 -34 4
-34 19 0 10 -9 21 -20 24 -13 3 -18 11 -14 20 7 20 -16 33 -27 16 -7 -11 -9
-10 -9 4 0 21 -37 60 -50 52 -6 -4 -10 7 -10 23 0 23 -7 32 -35 45 -26 13 -35
23 -35 42 0 14 -4 25 -10 25 -5 0 -10 11 -10 23 0 25 -22 49 -55 61 -18 7 -16
9 14 22 31 13 33 17 27 46 -3 18 -12 35 -19 40 -9 6 -9 10 0 19 10 10 6 17
-14 35 -22 19 -25 25 -14 38 12 14 10 16 -8 16 -14 0 -23 8 -27 26 -6 22 -10
25 -33 19 -14 -4 -30 -8 -36 -9 -5 -1 -19 -7 -30 -13 -19 -11 -19 -12 -1 -19
10 -4 21 -2 26 5 12 21 18 -20 13 -96 -5 -64 -4 -70 21 -93 14 -14 26 -35 26
-47 0 -12 8 -28 18 -35 32 -24 73 -88 79 -123 3 -20 10 -38 14 -41 5 -3 9 -17
9 -31 0 -17 -4 -24 -14 -20 -11 5 -13 0 -5 -25 6 -22 5 -36 -4 -47 -31 -40
-76 -50 -78 -17 -1 11 -2 28 -3 36 -2 8 -3 23 -4 33 -3 32 -22 17 -22 -18 0
-19 -4 -35 -10 -35 -5 0 -10 6 -10 14 0 7 -8 16 -18 18 -11 3 -26 29 -40 71
-13 36 -29 68 -36 70 -8 3 -28 -25 -54 -76 -30 -61 -43 -99 -48 -149 -3 -38
-10 -69 -15 -69 -5 -1 -13 -3 -19 -4 -5 -1 -14 -3 -20 -4 -5 0 -10 -8 -10 -16
0 -8 -6 -15 -14 -15 -8 0 -24 -13 -36 -30 -22 -31 -57 -42 -46 -15 3 8 1 15
-4 15 -13 0 -13 57 0 65 6 4 9 14 6 23 -3 11 10 34 34 62 22 24 40 52 40 60 0
9 29 47 64 85 70 75 76 89 68 164 -4 46 -6 49 -23 40 -17 -9 -19 -6 -18 18 1
15 1 41 0 57 -1 24 -3 26 -16 16 -12 -10 -13 -5 -8 41 l6 52 -43 -24 c-44 -25
-234 -220 -291 -299 -66 -93 -121 -150 -208 -214 -115 -86 -125 -108 -141
-305 -14 -166 -11 -199 25 -253 25 -37 26 -43 15 -88 -7 -27 -9 -54 -5 -60 12
-19 -15 -57 -58 -86 -45 -30 -188 -172 -256 -255 -50 -61 -133 -186 -178 -270
-70 -129 -164 -382 -208 -559 -9 -36 -24 -94 -35 -130 -20 -69 -61 -270 -80
-385 -6 -38 -20 -115 -30 -170 -10 -55 -26 -156 -35 -225 -9 -69 -22 -170 -30
-225 -8 -55 -17 -145 -20 -200 -4 -55 -11 -127 -15 -160 -5 -33 -12 -107 -15
-165 -3 -58 -10 -152 -15 -210 -9 -97 -21 -285 -35 -539 -4 -58 -8 -108 -10
-111 -2 -3 -6 -161 -10 -350 -3 -190 -10 -403 -15 -475 -5 -72 -12 -219 -15
-328 l-6 -197 533 2 c483 3 533 5 536 19 2 11 -6 19 -24 23 -20 5 -24 10 -15
16 8 4 11 15 7 25 -5 13 -14 16 -36 11 -25 -4 -30 -2 -30 13 0 10 7 21 14 24
11 4 13 16 9 42 -5 30 -3 34 10 29 11 -4 20 2 28 20 15 33 42 33 57 0 11 -22
32 -26 32 -4 0 14 112 130 127 130 7 0 22 5 32 12 15 9 25 9 46 0 38 -17 62
-15 86 9 12 12 32 21 45 21 19 0 24 6 24 28 0 15 7 33 15 40 13 10 15 9 15 -9
0 -29 22 -26 56 8 31 30 84 67 84 58 0 -20 -26 -56 -46 -66 -13 -6 -24 -15
-24 -20 0 -12 -80 -91 -92 -91 -4 0 -8 -5 -8 -11 0 -15 40 -1 66 22 12 12 28
17 37 13 19 -7 23 6 6 23 -7 7 -6 12 5 16 10 4 13 1 9 -9 -9 -23 11 -16 42 16
30 31 51 40 42 17 -5 -13 5 -24 43 -47 13 -8 12 -11 -5 -23 -14 -11 -23 -12
-36 -4 -14 9 -22 7 -38 -7 -15 -14 -24 -16 -34 -8 -10 8 -16 6 -25 -8 -7 -12
-8 -21 -2 -25 6 -4 9 -1 8 6 -2 6 3 14 10 16 6 3 12 -3 12 -11 0 -10 -12 -19
-30 -23 -24 -4 -28 -8 -19 -19 9 -11 8 -14 -4 -14 -9 0 -22 -9 -30 -21 -10
-13 -17 -17 -22 -10 -3 6 -11 9 -16 5 -5 -3 -23 -10 -40 -14 -25 -8 -30 -6
-25 5 10 28 -23 15 -65 -25 -31 -29 -37 -40 -25 -40 14 0 17 -5 12 -26 -6 -23
-5 -24 16 -13 13 6 35 24 50 40 28 30 48 37 48 17 0 -18 -50 -78 -65 -78 -8 0
-20 -10 -26 -23 -6 -12 -23 -35 -38 -50 l-26 -28 64 3 c44 2 66 7 69 17 4 11
-2 12 -23 7 l-27 -7 21 29 c11 17 32 33 46 36 15 4 25 13 25 24 0 31 60 111
109 144 55 39 71 53 71 67 0 6 5 11 10 11 17 0 11 -38 -7 -45 -21 -8 -133
-130 -133 -145 0 -21 20 -9 76 44 49 48 59 53 75 43 25 -16 24 -29 -6 -61 -20
-22 -53 -32 -87 -27 -4 0 -10 -8 -13 -19 -4 -11 -11 -20 -16 -20 -12 0 -99
-80 -99 -91 0 -5 947 -9 2184 -9 1982 0 2184 1 2190 16 3 9 6 27 6 41 0 26 27
143 41 178 4 11 13 38 19 60 15 52 37 100 67 148 28 45 23 57 -21 57 -19 0
-39 7 -47 16 -8 10 -22 14 -41 10 -15 -3 -30 0 -34 6 -5 8 -2 9 9 5 32 -12 17
13 -17 30 -39 18 -83 90 -73 116 10 27 25 19 19 -9 -3 -19 -1 -25 7 -20 6 4
11 21 11 37 0 17 -4 28 -9 25 -5 -3 -12 5 -15 19 -15 61 -26 78 -41 65 -8 -6
-20 -8 -27 -4 -7 5 -21 9 -30 9 -10 1 -29 14 -43 29 -28 31 -31 38 -11 30 25
-9 28 15 6 46 -17 24 -25 28 -44 20 -13 -5 -27 -5 -32 -1 -5 5 -22 11 -39 14
-16 4 -24 4 -17 1 10 -5 10 -9 2 -20 -9 -10 -6 -21 14 -47 14 -19 23 -37 20
-40 -4 -4 1 -9 10 -13 9 -3 16 -14 16 -23 0 -9 6 -23 13 -30 10 -11 6 -12 -19
-7 -27 6 -32 4 -38 -16 -4 -15 1 -33 15 -51 26 -35 42 -87 27 -87 -5 0 -12 9
-15 20 -3 11 -9 17 -14 14 -5 -3 -6 -10 -3 -16 4 -7 2 -8 -5 -4 -6 4 -18 3
-25 -3 -9 -8 -21 -7 -42 3 -74 36 -91 29 -55 -23 11 -15 18 -34 16 -42 -9 -41
-19 -59 -31 -59 -18 0 -18 -8 1 -27 24 -24 12 -38 -28 -35 -27 3 -37 0 -37
-11 0 -8 7 -17 15 -21 8 -3 15 -10 15 -16 0 -5 -7 -10 -15 -10 -8 0 -15 7 -15
16 0 9 -7 14 -17 12 -24 -5 -28 -29 -5 -35 18 -4 32 -29 32 -60 0 -20 -56 -25
-105 -9 -41 14 -48 15 -61 1 -9 -8 -20 -15 -26 -15 -5 0 -8 -7 -5 -15 9 -23
-10 -27 -44 -9 -20 10 -43 14 -63 10 -17 -4 -40 -8 -51 -10 -11 -2 -32 -7 -47
-11 -18 -5 -28 -3 -28 4 0 15 -80 3 -102 -16 -9 -9 -25 -12 -37 -8 -13 4 -23
0 -29 -11 -5 -9 -14 -14 -19 -11 -16 10 -23 185 -10 262 12 71 8 160 -11 283
-9 50 -7 75 5 120 8 31 18 88 21 126 4 42 12 71 20 74 15 5 16 -76 1 -167 -12
-77 -5 -123 19 -119 10 2 19 12 23 23 3 11 4 -25 3 -81 -2 -89 0 -101 17 -112
18 -12 24 -6 20 20 0 4 6 19 13 34 8 14 12 33 9 40 -8 22 8 16 33 -12 13 -14
25 -35 25 -47 4 -54 6 -64 24 -104 10 -24 24 -43 32 -43 16 0 16 1 -1 75 -10
41 -11 64 -4 72 13 16 1 111 -19 142 -9 14 -13 35 -9 52 3 16 1 29 -4 29 -6 0
-10 7 -10 15 0 9 -12 34 -26 56 -14 23 -23 43 -20 46 3 3 -2 19 -10 35 -9 17
-14 48 -12 71 2 34 0 42 -14 41 -13 -1 -19 13 -28 67 -14 83 -14 85 10 81 11
-2 20 2 20 7 0 6 -6 11 -14 11 -26 0 -29 21 -10 57 14 27 16 37 6 40 -6 3 -10
9 -6 14 3 5 -3 9 -13 9 -31 1 -58 50 -56 100 1 37 19 224 22 239 1 3 10 -5 21
-16 24 -26 35 -68 21 -77 -13 -9 -15 -26 -2 -26 5 0 14 21 21 47 10 43 10 49
-7 60 -62 41 -61 39 -25 71 39 35 40 41 7 38 -31 -4 -65 19 -65 44 0 34 -32
114 -56 144 -19 22 -23 35 -18 61 7 38 -13 139 -33 171 -8 12 -26 24 -41 27
-32 6 -121 36 -142 49 -34 19 -42 20 -74 4 -19 -9 -42 -16 -51 -16 -32 0 -100
-23 -120 -41 -11 -10 -32 -21 -48 -24 -50 -13 -56 -50 -36 -230 15 -142 25
-174 60 -193 16 -10 27 -21 26 -27 -5 -15 -76 -18 -118 -6 -51 15 -70 42 -85
119 -29 148 -9 265 64 386 23 37 42 81 42 96 0 47 25 63 86 56 38 -4 70 0 121
15 57 18 82 20 151 15 58 -5 82 -4 77 3 -3 6 -13 11 -21 11 -8 0 -14 7 -12 16
2 9 -6 21 -17 28 -11 6 -23 16 -27 21 -4 6 -8 1 -9 -10 l0 -20 -8 20 c-5 11
-7 23 -4 28 2 4 -3 15 -12 24 -12 12 -13 18 -4 23 7 5 9 15 4 26 -15 34 -15
52 0 64 11 9 16 7 24 -7 25 -43 27 -44 55 -33 36 13 66 -2 66 -35 0 -20 5 -25
26 -25 21 0 24 4 19 20 -5 15 -2 20 13 20 10 0 27 9 38 21 18 20 18 21 -1 35
-18 13 -18 15 -2 31 11 11 17 13 17 5 0 -7 5 -12 10 -12 6 0 10 6 10 14 0 16
18 31 26 23 10 -10 -8 -77 -21 -77 -16 0 -28 -27 -15 -35 4 -3 16 2 24 11 15
14 16 14 16 0 0 -19 1 -19 34 -7 17 7 26 19 28 38 2 22 9 29 29 31 20 2 28 -2
32 -19 3 -12 1 -31 -4 -41 -6 -11 -8 -26 -5 -34 3 -8 -1 -14 -9 -14 -8 0 -15
-4 -15 -10 0 -19 39 -10 54 12 11 15 14 34 10 59 -4 22 -2 39 5 43 6 4 11 19
11 34 0 15 7 36 15 46 14 18 15 18 21 2 4 -10 2 -21 -6 -26 -8 -5 -9 -9 -1
-14 6 -4 11 -16 11 -27 0 -11 20 -39 45 -63 49 -48 55 -61 25 -51 -14 5 -20 2
-20 -10 0 -9 6 -15 13 -12 7 2 16 -12 22 -36 6 -22 16 -43 24 -45 9 -3 11 2 6
17 -4 12 -1 43 6 70 10 39 10 54 -2 79 -8 18 -17 32 -21 32 -5 0 -8 7 -8 15 0
18 36 20 43 3 4 -8 8 -4 12 9 4 13 14 23 21 23 8 0 14 7 14 15 0 8 5 15 10 15
24 0 7 29 -20 35 -23 5 -28 10 -21 19 6 7 8 21 5 33 -8 31 14 38 28 9 11 -25
28 -35 28 -18 0 25 43 55 82 59 42 3 62 18 54 39 -3 8 4 10 21 5 21 -6 30 -18
44 -61 19 -59 18 -66 -7 -56 -12 4 -14 13 -10 32 6 22 4 25 -14 19 -16 -5 -20
-2 -21 17 l0 23 -10 -24 c-8 -19 -5 -28 10 -43 11 -10 32 -38 46 -62 32 -54
64 -51 57 5 -1 4 8 5 18 2 16 -4 20 0 20 21 0 23 3 26 25 20 22 -5 25 -3 25
19 0 14 5 29 11 33 6 3 9 19 5 35 -3 15 -1 31 5 35 6 3 8 18 4 32 -3 14 -2 37
4 51 6 14 15 45 21 69 6 25 17 42 25 42 18 0 20 31 4 47 -18 18 -2 46 21 40
14 -3 24 1 31 15 6 11 19 28 30 39 20 20 25 54 9 64 -20 12 -2 81 40 157 14
25 13 39 -10 83 -11 22 -20 47 -20 56 0 9 -9 24 -20 34 -21 19 -28 41 -9 29 9
-5 10 4 5 32 -5 27 -4 34 3 24 14 -20 25 -6 13 17 -38 76 -35 146 8 168 15 8
41 28 58 44 28 28 32 29 66 19 31 -10 39 -9 47 3 11 18 11 46 0 87 -6 20 -6
32 0 32 5 0 9 7 9 16 0 12 -7 14 -29 9 -16 -3 -32 -2 -35 3 -4 7 -20 6 -43 -1
-28 -9 -37 -9 -41 1 -2 7 -15 12 -28 12 -18 0 -31 10 -45 35 -12 19 -27 35
-34 35 -8 0 -19 8 -24 18 -8 12 -10 13 -11 3 0 -8 8 -23 18 -34 16 -20 16 -20
-7 -14 -16 4 -28 1 -36 -10 -11 -14 -14 -14 -34 6 -23 23 -19 39 27 90 12 14
22 33 22 42 0 23 24 41 37 28 7 -7 21 -4 44 10 19 12 46 21 60 21 21 0 29 8
44 44 16 38 21 43 39 37 26 -10 46 -4 46 15 0 17 26 19 33 2 3 -7 6 -1 6 15 1
26 16 37 23 16 4 -13 39 0 37 15 -5 40 2 56 25 56 40 0 108 37 159 84 41 39
69 54 80 44 4 -5 67 43 67 50 0 4 -7 15 -14 25 -13 16 -19 17 -55 6 -22 -7
-49 -20 -60 -31 -11 -10 -28 -18 -37 -18 -9 0 -28 -8 -42 -18 -37 -26 -162
-19 -169 8 -3 10 -18 24 -34 30 -16 7 -29 16 -29 21 0 5 -9 9 -20 9 -11 0 -20
4 -20 9 0 9 -31 24 -55 27 -22 2 -82 34 -95 48 -7 9 -22 16 -34 16 -43 0 -68
39 -59 94 6 39 -8 49 -26 19 -10 -17 -10 -17 -11 0 0 10 -13 29 -28 42 -22 19
-29 32 -28 60 1 19 9 44 18 54 12 14 13 22 5 30 -8 8 -2 11 24 11 23 0 38 6
47 20 7 11 20 20 29 20 9 0 24 6 32 13 9 8 37 21 63 31 25 9 52 24 58 32 7 7
18 14 25 14 6 0 31 14 53 30 23 16 49 30 57 30 9 0 15 9 15 23 0 21 38 70 41
54 10 -53 23 -64 72 -63 26 1 47 5 47 11 1 21 24 -31 24 -55 1 -29 24 -33 40
-7 9 14 7 21 -6 31 -16 12 -16 14 0 29 12 13 14 20 4 29 -18 18 -15 43 8 63
24 21 26 35 5 35 -9 0 -12 6 -9 15 4 8 1 15 -5 15 -6 0 -11 -4 -11 -10 0 -5
-7 -7 -17 -3 -13 5 -15 2 -11 -15 8 -30 -27 -83 -49 -75 -25 9 -53 34 -53 48
0 16 63 85 78 85 6 0 17 9 24 20 7 11 19 20 26 20 7 0 11 -4 7 -9 -3 -5 -1
-12 5 -16 17 -11 11 16 -10 42 -11 14 -20 34 -20 45 0 16 3 17 21 8 29 -16 53
-5 46 22 -7 25 8 58 26 58 25 0 67 50 67 80 0 17 9 39 20 50 11 11 17 26 14
35 -7 17 14 75 26 75 11 0 70 56 70 67 0 4 16 30 35 57 19 27 35 55 35 62 0 7
6 19 14 26 16 17 66 120 66 137 0 7 7 19 15 27 19 20 19 54 1 54 -25 0 -29 20
-9 42 21 23 28 114 7 97 -15 -12 -26 14 -19 44 7 31 -18 61 -44 52 -24 -7 -28
-25 -6 -25 8 0 15 -4 15 -10 0 -5 -13 -10 -30 -10 -21 0 -35 8 -46 25 -9 14
-14 28 -10 32 3 3 1 12 -5 19 -7 8 -6 14 2 20 7 4 17 0 24 -9 7 -10 15 -17 18
-17 7 0 57 45 57 51 0 2 -38 3 -85 2 -58 -2 -85 1 -85 8 0 8 12 10 35 6 26 -4
35 -2 35 8 0 8 -11 17 -25 21 -31 8 -28 28 5 32 13 2 34 11 47 19 14 10 23 11
23 4 0 -6 9 -11 20 -11 11 0 18 6 16 13 -1 6 -1 9 1 5 7 -13 23 -9 54 13 34
24 37 39 9 39 -24 0 -26 17 -4 41 15 17 15 18 -9 14 -32 -6 -45 20 -14 29 l22
6 -22 19 c-22 18 -33 48 -14 37 5 -3 11 1 15 9 3 8 1 15 -4 15 -18 0 -10 19
10 25 11 3 20 14 20 24 0 9 5 22 11 28 8 8 1 10 -25 6 -23 -3 -36 -1 -36 7 0
18 32 60 41 54 5 -3 9 -2 8 3 -4 21 2 33 17 33 25 0 8 80 -22 103 -30 23 -36
91 -7 80 11 -4 14 -3 9 5 -4 7 -1 15 8 18 19 7 21 32 4 31 -32 -1 -48 4 -48
14 0 6 7 8 17 5 10 -4 23 1 35 13 21 24 23 31 5 31 -8 0 -22 9 -32 20 -10 11
-24 20 -32 20 -11 0 -13 14 -11 58 2 43 7 57 18 57 9 0 16 -11 18 -27 4 -30
20 -36 40 -16 9 9 12 7 12 -11 0 -12 4 -19 10 -16 6 3 10 27 10 53 1 77 28
284 43 328 22 60 102 219 137 270 33 47 40 50 72 33 15 -8 23 -7 36 5 10 9 29
25 43 35 15 12 42 58 69 121 24 56 53 111 64 122 30 28 167 90 226 103 36 8
39 9 106 44 23 11 50 21 61 21 10 0 23 4 29 8 5 5 28 14 51 21 41 11 42 12 41
54 0 23 6 75 15 115 13 60 25 85 66 137 82 104 143 246 192 450 13 51 26 68
66 84 32 13 153 161 153 186 0 12 24 69 41 95 5 8 13 24 18 36 5 12 27 59 49
105 21 46 45 100 52 119 7 19 17 40 21 45 4 6 31 56 60 110 29 55 63 116 76
135 12 19 23 38 23 42 0 4 32 65 71 135 40 71 78 142 87 158 27 53 84 128 149
197 40 42 74 90 92 130 41 90 108 293 126 382 9 42 24 96 34 119 21 48 34 170
33 294 -1 72 -5 90 -31 140 -36 67 -105 121 -173 134 -64 12 -176 9 -233 -6z
m-4280 -2025 c3 -5 12 -7 19 -4 8 3 17 1 20 -5 10 -15 -33 -24 -49 -11 -8 7
-15 16 -15 21 0 12 17 11 25 -1z m1402 2 c8 -5 9 -13 3 -22 -5 -8 -5 -19 0
-25 6 -7 -4 -10 -31 -10 -38 0 -40 1 -34 25 9 36 35 49 62 32z m-2938 -28 c12
-12 -40 -26 -58 -15 -22 14 -2 33 28 26 14 -4 28 -9 30 -11z m386 6 c3 -5 -1
-10 -10 -10 -9 0 -13 5 -10 10 3 6 8 10 10 10 2 0 7 -4 10 -10z m2695 -194 c0
-18 -17 -24 -50 -18 l-25 5 30 13 c39 17 45 17 45 0z m-3217 -131 c-10 -13
-26 -27 -35 -30 -27 -9 -142 -129 -182 -190 -20 -30 -43 -74 -52 -97 -8 -23
-24 -58 -34 -76 -11 -18 -20 -39 -20 -46 0 -7 -7 -21 -16 -32 -29 -36 -9 45
34 138 77 165 171 286 255 330 65 34 72 34 50 3z m2893 -20 c18 -14 17 -14
-12 -15 -16 0 -39 7 -50 15 -18 14 -17 14 12 15 16 0 39 -7 50 -15z m99 -15
c-3 -5 -10 -10 -16 -10 -5 0 -9 5 -9 10 0 6 7 10 16 10 8 0 12 -4 9 -10z m404
-4 c9 -11 7 -15 -11 -20 -13 -3 -32 -6 -43 -6 -19 1 -19 2 4 20 28 24 35 25
50 6z m68 -2 c-3 -3 -12 -4 -19 -1 -8 3 -5 6 6 6 11 1 17 -2 13 -5z m-487 -14
c8 -5 11 -12 8 -16 -10 -9 -58 4 -58 16 0 13 30 13 50 0z m100 -8 c0 -23 26
-38 76 -41 27 -1 45 3 53 13 8 9 29 16 50 16 34 -1 35 -2 17 -15 -11 -8 -32
-15 -48 -15 -15 0 -28 -5 -28 -11 0 -5 -16 -17 -36 -25 -29 -12 -33 -18 -24
-29 9 -11 16 -11 29 -3 23 14 71 2 71 -17 0 -9 -6 -24 -12 -36 -11 -17 -10
-22 6 -35 26 -19 38 -18 64 6 22 21 39 24 67 14 23 -9 -30 -40 -81 -47 -40 -6
-71 -34 -55 -50 6 -6 21 -5 39 2 29 12 79 2 92 -19 3 -5 19 -10 35 -12 26 -3
30 0 33 25 4 29 20 35 40 15 34 -34 -2 -88 -60 -88 -27 0 -38 -4 -38 -15 0
-12 8 -14 43 -9 23 4 47 13 54 21 7 9 31 17 54 18 62 5 69 20 19 43 -33 15
-38 21 -25 26 14 5 15 9 4 22 -7 8 -21 13 -31 11 -19 -5 -26 17 -9 27 22 14
-2 43 -45 54 -24 7 -44 16 -44 22 0 12 40 34 47 26 4 -3 12 3 20 14 15 21 43
27 43 9 0 -24 33 -79 47 -79 14 0 14 -3 1 -22 -22 -35 -12 -50 28 -42 31 6 34
4 34 -19 0 -17 10 -33 30 -47 41 -29 38 -46 -12 -56 -53 -11 -61 -40 -11 -36
23 1 36 -4 45 -17 6 -10 17 -17 23 -15 7 3 18 -3 26 -12 12 -15 12 -16 -9 -10
-28 9 -28 -1 -1 -30 20 -21 20 -24 5 -39 -9 -9 -20 -14 -25 -11 -5 3 -15 -1
-22 -10 -10 -13 -10 -17 2 -25 19 -12 52 -11 44 1 -3 6 -1 10 5 10 6 0 14 -8
17 -17 4 -10 17 -28 29 -39 14 -13 21 -29 18 -40 -3 -12 7 -32 26 -53 17 -18
29 -38 27 -45 -6 -16 17 -69 59 -132 54 -81 96 -190 95 -244 -1 -24 -5 -46
-10 -50 -4 -3 -11 -15 -15 -27 -6 -17 -2 -22 16 -25 16 -2 24 -12 29 -35 3
-17 2 -37 -2 -45 -7 -10 -9 -9 -9 5 0 9 -7 17 -16 17 -9 0 -18 9 -21 20 -3 10
-14 22 -24 25 -10 3 -28 8 -39 11 -14 4 -20 1 -20 -10 0 -10 9 -16 25 -16 20
0 25 -5 25 -26 0 -15 7 -32 16 -38 14 -11 14 -14 1 -24 -12 -10 -18 -10 -30 3
-9 8 -19 15 -22 15 -4 0 -19 10 -33 22 -15 11 -19 18 -10 15 12 -4 15 -2 11 9
-3 8 -8 13 -11 10 -7 -8 -42 40 -42 57 0 23 -71 33 -82 12 -8 -13 -13 -14 -24
-4 -11 9 -14 8 -14 -4 0 -9 12 -18 30 -22 66 -14 31 -40 -45 -33 -31 2 -39 7
-42 27 -3 23 -30 55 -84 96 -14 11 -33 32 -43 47 -16 24 -54 40 -103 42 -6 1
-31 20 -55 42 -24 23 -54 45 -66 48 -12 4 -22 12 -22 17 0 5 -18 17 -40 26
-22 10 -40 22 -40 27 0 11 -28 34 -57 46 -13 5 -23 16 -23 23 0 21 -89 87
-117 87 -14 0 -23 6 -23 15 0 16 -58 51 -79 46 -11 -2 -10 1 2 13 8 9 22 16
31 16 8 0 18 5 21 10 3 6 20 10 37 10 24 0 29 3 24 16 -5 13 -4 14 7 5 11 -8
20 -5 42 15 32 29 29 39 -9 25 -17 -7 -26 -7 -26 -1 0 6 -7 10 -16 10 -21 0
-64 49 -58 65 3 7 -6 15 -20 19 -13 3 -28 16 -32 29 -4 12 -24 38 -46 58 -36
34 -38 39 -27 63 11 24 23 30 56 29 9 -1 10 5 3 17 -13 25 -13 30 4 30 7 0 30
11 50 25 46 31 53 31 91 1 l30 -24 -28 -11 c-16 -6 -39 -8 -53 -5 -14 4 -24 2
-24 -4 0 -6 14 -14 32 -17 37 -9 105 -42 114 -57 4 -5 1 -15 -5 -21 -16 -16
-14 -25 9 -32 11 -3 20 -11 20 -18 0 -19 41 -56 56 -50 8 3 14 0 14 -6 0 -6
-3 -10 -7 -10 -22 4 -22 -4 2 -35 14 -19 39 -39 56 -46 23 -10 27 -15 18 -26
-9 -11 -7 -15 5 -19 9 -3 23 -7 32 -10 10 -3 14 1 12 13 -1 9 1 23 5 30 8 11
3 15 -40 28 -7 2 -13 17 -13 33 0 24 -5 32 -25 37 -14 3 -22 10 -19 16 3 5 0
16 -7 24 -16 19 2 34 43 34 20 0 28 7 37 31 6 18 11 34 11 35 0 9 -20 3 -34
-11 -13 -13 -19 -13 -53 7 -21 12 -39 23 -41 24 -2 1 4 13 13 27 15 24 15 26
-7 41 -22 16 -22 16 -3 30 18 13 18 16 5 30 -12 12 -22 13 -55 4 -23 -6 -58
-8 -79 -4 l-39 8 24 16 c13 9 25 23 27 31 4 20 -18 31 -40 20 -10 -5 -27 -13
-38 -19 -13 -7 -27 -6 -45 2 -36 16 -31 28 14 28 22 0 43 5 46 10 3 6 15 10
25 10 22 0 55 44 46 59 -3 5 0 12 6 14 23 9 28 7 28 -11z m-440 -52 c0 -5 -9
-10 -21 -10 -11 0 -17 5 -14 10 3 6 13 10 21 10 8 0 14 -4 14 -10z m726 -35
c-8 -8 -23 -15 -32 -15 -16 0 -16 1 2 15 26 20 51 20 30 0z m-2361 -5 c3 -5
-1 -10 -9 -10 -8 0 -18 5 -21 10 -3 6 1 10 9 10 8 0 18 -4 21 -10z m1729 -13
c16 -12 16 -14 -9 -25 -31 -14 -45 -8 -45 19 0 22 27 25 54 6z m-1929 -7 c3
-5 1 -10 -4 -10 -6 0 -11 5 -11 10 0 6 2 10 4 10 3 0 8 -4 11 -10z m19 -46 c9
-22 8 -23 -14 -17 -21 5 -25 15 -13 26 11 11 20 8 27 -9z m1991 -13 c-6 -5
-25 10 -25 20 0 5 6 4 14 -3 8 -7 12 -15 11 -17z m-2215 -6 c0 -8 -9 -15 -20
-15 -11 0 -20 7 -20 15 0 8 9 15 20 15 11 0 20 -7 20 -15z m-280 -9 c0 -11
-51 -59 -56 -53 -4 3 1 13 10 22 9 9 16 21 16 26 0 5 7 9 15 9 8 0 15 -2 15
-4z m630 -5 c0 -5 3 -16 6 -25 4 -11 0 -16 -14 -16 -24 0 -35 23 -19 39 13 13
27 14 27 2z m-590 -11 c0 -5 -5 -10 -11 -10 -5 0 -7 5 -4 10 3 6 8 10 11 10 2
0 4 -4 4 -10z m3080 -10 c0 -15 -46 -34 -65 -26 -14 5 -15 9 -5 21 14 17 70
21 70 5z m-2910 -40 c0 -10 -26 -20 -48 -20 -23 0 -46 16 -39 27 7 10 87 4 87
-7z m215 -2 c-34 -9 -67 -2 -47 11 7 4 27 5 45 3 l32 -5 -30 -9z m-575 2 c0
-5 -2 -10 -4 -10 -3 0 -8 5 -11 10 -3 6 -1 10 4 10 6 0 11 -4 11 -10z m2554
-25 c22 0 41 -5 43 -11 3 -8 -13 -12 -47 -12 -27 0 -50 4 -50 9 0 5 -8 9 -17
9 -15 0 -16 2 -3 9 8 6 19 7 25 3 5 -4 28 -7 49 -7z m371 9 c13 -5 14 -8 3
-15 -17 -11 -58 -11 -58 -1 0 21 24 28 55 16z m-2821 -13 c3 -5 -1 -14 -9 -21
-8 -7 -15 -25 -15 -40 0 -27 -20 -52 -52 -63 -11 -4 -18 -17 -18 -32 0 -24 2
-25 23 -13 12 7 42 15 67 18 39 4 45 8 44 28 0 17 3 21 15 17 9 -4 31 -9 49
-12 28 -5 32 -3 32 16 0 11 -4 21 -10 21 -17 0 -11 26 10 45 25 22 50 13 50
-20 0 -17 6 -25 18 -26 14 0 14 -2 -3 -9 -17 -7 -17 -9 -2 -9 9 -1 17 -5 17
-11 0 -5 -6 -7 -14 -4 -7 3 -21 -2 -30 -11 -9 -9 -24 -15 -33 -14 -24 4 -63
-10 -63 -22 0 -5 4 -9 10 -9 5 0 12 -15 15 -34 6 -28 12 -35 37 -40 16 -3 38
-2 48 4 9 5 21 6 26 2 5 -4 2 1 -5 11 -31 40 31 91 67 55 7 -7 12 -8 12 -4 0
5 6 4 13 -1 6 -6 29 -8 50 -5 32 4 39 9 44 33 5 26 7 28 18 12 11 -15 13 -15
24 6 16 29 7 51 -20 51 -11 0 -32 9 -46 20 -14 11 -33 20 -42 20 -18 0 -41 18
-41 32 0 16 39 8 89 -18 28 -15 51 -30 51 -35 0 -4 8 -8 18 -8 30 0 122 -25
122 -32 0 -4 -14 -10 -31 -14 -29 -7 -30 -8 -13 -26 9 -10 25 -19 36 -19 10 0
18 -4 18 -10 0 -5 -8 -10 -19 -10 -26 0 -89 -28 -113 -50 -11 -10 -26 -16 -34
-13 -21 8 -17 -10 7 -31 16 -13 18 -21 10 -29 -17 -17 -44 3 -56 41 -11 37
-19 40 -38 11 -13 -18 -13 -24 1 -49 9 -16 14 -30 12 -32 -3 -2 -32 -13 -65
-24 -33 -11 -61 -26 -63 -34 -3 -17 52 -45 69 -35 12 8 59 -13 59 -26 0 -7
-86 -35 -125 -41 -14 -2 -20 -11 -21 -31 -1 -35 -30 -67 -60 -67 -16 0 -22 -4
-18 -14 4 -11 -4 -17 -29 -21 -23 -5 -34 -12 -33 -23 0 -9 -16 -26 -39 -38
-22 -12 -45 -27 -51 -32 -6 -6 -19 -12 -29 -13 -10 -2 -18 -8 -18 -14 3 -19
-30 -45 -69 -55 -25 -7 -38 -17 -38 -28 0 -9 -16 -28 -35 -42 -61 -44 -105
-163 -106 -285 0 -44 2 -88 6 -97 4 -10 1 -24 -8 -32 -17 -17 -11 -63 10 -84
17 -17 16 -34 -2 -79 -8 -19 -15 -55 -15 -79 0 -24 -4 -44 -8 -44 -4 0 -16
-14 -26 -30 -9 -17 -22 -28 -27 -25 -19 12 -28 -6 -12 -25 9 -10 20 -17 25
-14 4 3 5 -2 1 -11 -3 -10 0 -21 8 -27 12 -8 12 -9 -1 -5 -8 2 -23 -4 -34 -14
-17 -17 -17 -19 -2 -34 20 -20 20 -36 1 -61 -8 -10 -15 -35 -15 -55 0 -20 -7
-42 -15 -49 -20 -17 -19 -25 7 -37 18 -8 22 -19 24 -71 3 -50 1 -62 -11 -62
-8 0 -15 -4 -15 -10 0 -5 6 -10 14 -10 25 0 27 -17 4 -45 -18 -23 -22 -25 -30
-11 -7 12 -13 13 -33 4 -19 -8 -28 -8 -40 2 -23 19 -19 28 19 44 53 22 57 39
7 34 -44 -4 -51 5 -25 33 12 13 15 28 10 54 -4 19 -11 35 -16 35 -5 0 -1 17
10 38 19 37 21 72 19 322 0 75 10 198 18 220 8 20 12 53 15 127 2 34 8 67 14
73 12 12 7 60 -6 60 -7 0 -23 97 -21 130 4 86 7 117 12 125 3 6 6 39 8 75 1
36 9 76 16 90 8 14 19 36 26 50 6 14 15 33 20 42 5 10 9 27 9 38 0 10 9 37 20
59 12 21 22 60 24 87 2 38 7 50 25 58 16 7 21 16 18 33 -2 13 -1 23 4 23 13 0
53 43 70 75 9 17 21 29 27 28 7 -2 12 1 12 6 0 5 5 22 11 38 7 15 13 35 14 44
2 25 41 69 87 99 46 30 63 35 72 21z m581 -1 c3 -5 1 -10 -4 -10 -6 0 -11 5
-11 10 0 6 2 10 4 10 3 0 8 -4 11 -10z m-479 -15 c-11 -8 -14 -15 -8 -15 7 0
12 -5 12 -11 0 -6 -16 -9 -37 -7 -48 4 -49 19 -3 35 47 16 59 15 36 -2z m383
-4 c20 -13 -3 -23 -33 -15 -14 3 -23 10 -20 15 7 11 35 11 53 0z m59 -12 c-20
-13 -28 -11 -22 5 3 8 12 12 21 9 12 -5 12 -7 1 -14z m-268 -81 c0 -6 7 -5 15
2 10 9 15 9 15 1 0 -6 8 -11 18 -11 15 -1 15 -2 -2 -15 -26 -19 -45 -19 -68 2
-24 22 -23 43 2 36 11 -3 20 -10 20 -15z m2034 13 c13 -21 -6 -39 -38 -37 -50
4 -62 16 -34 31 28 16 65 19 72 6z m-2489 -21 c3 -6 -2 -13 -12 -17 -10 -4
-21 -11 -25 -17 -12 -19 -20 2 -8 23 11 22 35 28 45 11z m-448 -67 c-3 -10 -5
-4 -5 12 0 17 2 24 5 18 2 -7 2 -21 0 -30z m3071 7 c4 -10 -3 -11 -28 -7 -18
4 -44 7 -59 7 -19 0 -22 3 -12 9 21 13 94 7 99 -9z m-3082 -81 c-8 -55 -86
-233 -93 -211 -3 7 -1 18 5 25 5 7 26 63 47 125 21 61 41 112 43 112 3 0 2
-23 -2 -51z m3228 -18 c4 -5 -2 -12 -12 -16 -20 -6 -52 2 -52 14 0 11 58 12
64 2z m94 -11 c3 -9 -2 -11 -17 -7 -15 4 -21 1 -21 -11 0 -13 -2 -14 -12 -3
-11 10 -9 15 7 27 22 16 37 14 43 -6z m-3427 -233 c-8 -8 -11 -7 -11 4 0 9 3
19 7 23 4 4 9 2 11 -4 3 -7 -1 -17 -7 -23z m-35 -93 c-8 -21 -15 -31 -15 -22
-1 18 20 70 26 65 2 -2 -3 -21 -11 -43z m-26 -94 c-5 -22 -8 -27 -9 -13 -1 21
9 56 14 51 2 -2 0 -19 -5 -38z m-18 -87 c-3 -16 -7 -22 -10 -15 -4 13 4 42 11
42 2 0 2 -12 -1 -27z m4309 -136 c-10 -9 -11 -8 -5 6 3 10 9 15 12 12 3 -3 0
-11 -7 -18z m-4350 -150 c-13 -13 -14 28 -3 88 7 39 7 39 10 -19 2 -32 -2 -64
-7 -69z m4379 64 c0 -5 -7 -14 -15 -21 -13 -10 -15 -9 -15 9 0 12 6 21 15 21
8 0 15 -4 15 -9z m-25 -43 c11 -22 28 -43 37 -46 10 -2 18 -10 18 -17 0 -8 3
-21 7 -31 5 -13 3 -16 -10 -11 -10 4 -18 0 -22 -12 -4 -13 -12 -17 -30 -13
-18 3 -25 0 -25 -12 0 -9 -4 -16 -10 -16 -13 0 -13 27 1 36 13 8 3 53 -18 77
-15 16 -15 18 2 31 15 11 17 17 7 28 -6 8 -9 18 -5 21 15 15 29 5 48 -35z
m117 -25 c9 -10 26 -52 38 -93 12 -41 28 -90 36 -108 8 -18 14 -48 14 -67 0
-19 8 -41 17 -51 13 -13 14 -19 5 -22 -6 -2 -12 -12 -12 -23 0 -10 -4 -19 -10
-19 -5 0 -10 -10 -10 -23 0 -13 -11 -34 -25 -47 -21 -19 -25 -21 -25 -7 0 9
-7 17 -15 17 -8 0 -15 7 -15 16 0 10 -8 15 -22 13 -22 -2 -88 29 -88 42 0 4
11 14 25 23 28 18 25 36 -5 36 -10 0 -21 7 -24 15 -4 11 3 17 24 22 41 8 38
29 -7 44 l-38 12 35 10 c23 6 36 5 38 -2 4 -13 69 -15 77 -2 3 5 0 13 -7 17
-6 4 -14 2 -16 -4 -6 -19 -22 -14 -22 8 0 21 -52 54 -66 42 -5 -4 -3 1 5 10
13 18 35 15 63 -10 10 -8 24 -12 33 -9 17 7 20 33 5 42 -5 3 -10 15 -10 25 0
11 -8 34 -18 52 -28 49 -13 78 20 41z m95 -25 c-3 -8 -6 -5 -6 6 -1 11 2 17 5
13 3 -3 4 -12 1 -19z m-4558 -86 c-2 -37 -11 -105 -21 -152 -12 -56 -16 -68
-13 -35 3 28 8 98 12 157 6 115 25 141 22 30z m-42 -319 c-3 -10 -5 -2 -5 17
0 19 2 27 5 18 2 -10 2 -26 0 -35z m4573 -99 c0 -38 -3 -45 -17 -42 -10 2 -22
17 -28 33 -5 17 -14 34 -20 38 -6 5 0 7 13 4 12 -3 22 -1 22 4 0 5 7 9 15 9
11 0 15 -12 15 -46z m-55 -334 c3 -5 -1 -10 -9 -10 -9 0 -16 5 -16 10 0 6 4
10 9 10 6 0 13 -4 16 -10z m-4178 -156 c-3 -3 -12 -4 -19 -1 -8 3 -5 6 6 6 11
1 17 -2 13 -5z m18 -65 c11 -17 0 -20 -21 -4 -17 13 -17 14 -2 15 9 0 20 -5
23 -11z m64 -22 c8 -11 6 -18 -9 -32 -27 -24 -25 -45 3 -45 24 0 49 -34 61
-82 5 -21 12 -28 31 -28 25 0 42 -16 30 -28 -11 -11 -95 -4 -111 9 -14 11 -12
14 10 26 33 17 32 19 -1 18 -23 0 -29 5 -31 28 -3 21 -12 31 -40 42 -20 9 -42
13 -49 11 -14 -6 -18 22 -5 39 10 15 75 55 88 55 6 0 17 -6 23 -13z m-112
-164 c5 -15 -28 -26 -41 -13 -8 8 -7 14 4 20 17 11 32 8 37 -7z m303 -3 c0 -5
-4 -10 -10 -10 -5 0 -10 5 -10 10 0 6 5 10 10 10 6 0 10 -4 10 -10z m-220 -30
c0 -5 -4 -10 -10 -10 -5 0 -10 -7 -10 -15 0 -8 -3 -15 -7 -15 -5 0 -18 -3 -30
-6 -28 -8 -31 11 -6 38 17 19 63 25 63 8z m-303 -46 c-3 -3 -12 -4 -19 -1 -8
3 -5 6 6 6 11 1 17 -2 13 -5z m60 -38 c-2 -6 3 -16 10 -21 8 -6 17 -30 20 -54
3 -23 12 -45 20 -48 8 -3 26 -31 41 -62 14 -31 43 -77 64 -102 21 -25 38 -49
38 -53 0 -5 23 -31 51 -59 46 -45 49 -52 34 -63 -21 -15 -11 -35 57 -113 26
-30 50 -67 53 -82 4 -19 11 -26 21 -22 8 3 14 -1 14 -11 0 -9 5 -16 10 -16 6
0 10 -10 10 -23 0 -12 9 -28 20 -35 11 -7 20 -17 20 -23 0 -5 -4 -8 -9 -5 -4
3 -6 -6 -3 -19 3 -18 11 -25 27 -25 12 0 28 -7 35 -15 7 -8 22 -15 33 -15 21
0 21 0 -1 -16 -12 -8 -22 -22 -22 -31 0 -9 -7 -21 -17 -28 -22 -16 -7 -38 23
-32 31 5 47 -14 38 -47 -5 -20 -2 -26 10 -26 9 0 19 -7 22 -15 7 -18 31 -20
37 -2 2 6 8 9 12 5 4 -4 -8 -23 -28 -41 -19 -19 -38 -44 -42 -56 -3 -11 -11
-21 -16 -21 -12 0 -12 -27 1 -35 11 -7 50 25 50 42 0 7 5 13 11 13 8 0 9 -15
4 -47 -6 -43 -24 -82 -51 -110 -7 -7 -10 -22 -7 -34 4 -15 0 -27 -12 -35 -30
-22 -44 -16 -68 29 -12 24 -39 69 -60 101 -22 33 -37 66 -35 79 2 14 -3 22
-12 23 -8 1 -20 2 -27 3 -6 0 -14 19 -18 41 -5 31 -14 44 -36 55 -16 9 -29 20
-29 25 0 5 -16 24 -35 41 -19 18 -35 40 -35 50 0 10 -10 26 -23 36 -30 24
-177 245 -177 266 0 9 -11 28 -24 42 -14 15 -28 41 -31 58 -4 18 -24 59 -44
92 -52 83 -88 180 -71 190 5 3 8 32 7 65 0 49 4 65 21 83 12 13 22 31 22 40 0
9 7 17 15 17 10 0 15 10 15 34 0 28 4 35 23 38 25 4 49 -10 44 -26z m243 -31
c0 -17 -36 -25 -49 -12 -17 17 -13 22 19 23 18 1 30 -4 30 -11z m95 4 c4 -6
17 -15 29 -20 16 -7 11 -8 -19 -3 -47 7 -57 12 -50 25 8 12 32 11 40 -2z m125
-49 c-19 -13 -30 -13 -30 0 0 6 10 10 23 10 18 0 19 -2 7 -10z m-180 -9 c0 -5
-6 -11 -12 -14 -10 -3 -10 -9 0 -26 18 -31 15 -44 -10 -38 -13 3 -33 8 -45 10
-24 6 -83 47 -83 57 0 4 3 10 7 13 10 11 143 8 143 -2z m4096 -2 c9 -15 -10
-31 -29 -24 -8 4 -18 13 -21 21 -7 17 39 20 50 3z m-171 -29 c-3 -5 -13 -10
-21 -10 -8 0 -14 5 -14 10 0 6 9 10 21 10 11 0 17 -4 14 -10z m45 -10 c0 -5
-2 -10 -4 -10 -3 0 -8 5 -11 10 -3 6 -1 10 4 10 6 0 11 -4 11 -10z m-3971
-104 c7 -9 8 -17 2 -20 -14 -9 -41 4 -41 20 0 18 24 18 39 0z m121 0 c0 -3 -4
-8 -10 -11 -5 -3 -10 -1 -10 4 0 6 5 11 10 11 6 0 10 -2 10 -4z m-121 -107
c-15 -9 -32 -2 -24 11 3 5 13 6 21 3 12 -4 13 -8 3 -14z m-489 -70 c0 -5 -4
-9 -10 -9 -5 0 -10 7 -10 16 0 8 5 12 10 9 6 -3 10 -10 10 -16z m4525 1 c-3
-5 -13 -10 -21 -10 -8 0 -12 5 -9 10 3 6 13 10 21 10 8 0 12 -4 9 -10z m-138
-16 c-3 -3 -12 -4 -19 -1 -8 3 -5 6 6 6 11 1 17 -2 13 -5z m-3652 -114 c-3 -5
-13 -10 -21 -10 -8 0 -14 5 -14 10 0 6 9 10 21 10 11 0 17 -4 14 -10z m3490
-30 c19 -8 19 -9 -2 -9 -12 -1 -25 4 -28 9 -7 12 2 12 30 0z m-4220 -20 c3 -5
-1 -10 -10 -10 -9 0 -13 5 -10 10 3 6 8 10 10 10 2 0 7 -4 10 -10z m35 -19 c0
-5 11 -11 25 -13 18 -4 25 -1 26 11 1 11 3 10 6 -4 3 -11 13 -25 22 -32 14
-11 12 -12 -14 -13 -33 0 -41 5 -69 38 -11 12 -14 22 -8 22 7 0 12 -4 12 -9z
m4160 -11 c0 -5 -2 -10 -4 -10 -3 0 -8 5 -11 10 -3 6 -1 10 4 10 6 0 11 -4 11
-10z m-4170 -100 c-19 -12 -30 -12 -30 -1 0 10 31 20 40 14 2 -2 -2 -8 -10
-13z m910 -2 c0 -13 -23 -5 -28 10 -2 7 2 10 12 6 9 -3 16 -11 16 -16z m-120
-138 c0 -5 -4 -10 -10 -10 -5 0 -10 5 -10 10 0 6 5 10 10 10 6 0 10 -4 10 -10z
m-697 -77 c-3 -7 2 -13 11 -13 17 0 22 -15 8 -24 -5 -3 -15 3 -23 12 -26 31
-28 38 -9 38 10 0 16 -6 13 -13z m727 -85 c0 -4 -9 -8 -20 -8 -21 0 -24 8 -13
36 6 16 7 16 20 -2 7 -10 13 -21 13 -26z m-500 -93 c-7 -8 -16 -15 -21 -15 -5
0 -9 7 -9 15 0 9 9 15 21 15 18 0 19 -2 9 -15z m-77 -234 c15 -22 27 -45 27
-51 0 -7 11 -21 25 -32 33 -25 36 -83 5 -75 -25 6 -27 -18 -4 -31 11 -6 13
-11 5 -16 -6 -4 -11 -3 -11 2 0 6 -11 13 -25 16 -35 9 -47 38 -50 120 -1 39
-6 79 -10 89 -13 31 9 18 38 -22z m285 -25 c-2 -10 -7 -13 -17 -7 -8 6 -11 16
-7 27 8 21 30 4 24 -20z m45 -27 c23 -26 17 -32 -16 -20 -18 7 -25 15 -21 26
8 20 16 19 37 -6z m-1161 -45 c9 -20 9 -27 -1 -34 -8 -4 -15 -25 -18 -45 -2
-21 -11 -54 -19 -74 -11 -26 -14 -54 -9 -101 9 -92 -32 -296 -71 -352 -27 -39
-53 -130 -55 -198 l-1 -35 -10 34 c-11 40 -7 136 21 441 32 364 40 390 117
390 27 0 37 -5 46 -26z m1164 -84 c-4 -37 -13 -48 -22 -27 -5 14 11 57 21 57
3 0 3 -14 1 -30z m-208 -28 c2 -7 -3 -12 -10 -12 -8 0 -15 7 -15 15 0 18 19
15 25 -3z m-24 -51 c-5 -5 -33 30 -34 43 0 4 9 -2 19 -15 11 -13 17 -26 15
-28z m-479 -16 c6 -22 10 -46 8 -52 -2 -6 1 -14 6 -18 6 -3 11 -18 11 -33 0
-37 14 -56 35 -48 9 3 21 4 26 1 12 -8 -11 -55 -28 -55 -7 0 -13 -9 -13 -19 0
-11 -11 -28 -25 -39 -14 -11 -25 -25 -25 -31 0 -6 -6 -11 -12 -11 -8 -1 -6 -6
5 -14 9 -7 17 -16 17 -20 0 -13 44 -45 63 -46 9 0 17 -4 17 -10 0 -5 9 -10 20
-10 11 0 20 -5 20 -11 0 -6 -8 -8 -17 -5 -10 2 -52 8 -93 11 -41 4 -78 9 -82
12 -8 4 11 44 27 55 6 4 -2 8 -16 8 -15 0 -32 -7 -39 -15 -8 -10 -9 -15 -2
-15 6 0 9 -7 6 -15 -5 -12 -28 -15 -118 -16 -61 0 -145 -6 -186 -14 -41 -7
-76 -12 -78 -11 -1 2 2 31 6 65 10 69 27 96 44 70 9 -13 17 -9 56 29 36 34 43
46 31 53 -10 6 -11 9 -1 9 18 0 62 49 62 69 0 29 73 90 156 131 43 22 85 39
93 38 8 -2 19 -21 26 -43z m4205 19 c0 -8 -4 -12 -10 -9 -5 3 -10 10 -10 16 0
5 5 9 10 9 6 0 10 -7 10 -16z m-3340 -28 c0 -8 -4 -17 -9 -20 -10 -7 -23 19
-14 28 11 11 23 6 23 -8z m-786 -341 c3 -9 0 -15 -9 -15 -16 0 -27 14 -18 24
10 10 21 7 27 -9z m46 1 c0 -3 -4 -8 -10 -11 -5 -3 -10 -1 -10 4 0 6 5 11 10
11 6 0 10 -2 10 -4z m1020 -182 c0 -8 -4 -12 -10 -9 -5 3 -10 10 -10 16 0 5 5
9 10 9 6 0 10 -7 10 -16z m-1150 -404 c0 -6 20 -15 44 -22 25 -6 43 -15 41
-18 -2 -3 5 -11 16 -18 16 -10 19 -9 19 6 0 17 32 52 48 52 12 -1 62 -48 62
-60 0 -5 5 -10 11 -10 6 0 8 9 4 20 -5 17 -2 20 25 20 24 0 31 -4 27 -14 -3
-8 0 -17 8 -20 7 -2 16 2 19 10 7 17 51 10 78 -14 10 -8 28 -12 44 -9 40 7 71
-27 97 -110 12 -40 26 -73 32 -72 12 1 23 -29 24 -63 1 -16 6 -28 12 -28 7 0
9 12 7 31 -3 20 0 33 9 36 7 3 10 9 7 14 -3 5 0 9 6 9 7 0 9 8 5 19 -3 11 -1
22 5 26 7 4 7 12 0 26 -17 31 4 22 31 -13 42 -58 69 -99 69 -107 0 -4 13 -28
30 -52 16 -24 30 -52 30 -62 0 -10 7 -29 16 -42 11 -16 14 -36 11 -55 -8 -35
3 -44 29 -25 10 8 27 15 36 15 15 0 16 4 7 26 -14 37 -4 42 26 12 14 -14 34
-28 45 -31 17 -4 18 -2 8 16 -6 12 -26 40 -45 62 -19 22 -29 41 -23 43 14 5
40 -17 40 -34 0 -14 27 -33 45 -31 6 1 14 -20 19 -46 4 -26 12 -47 17 -47 13
0 11 -38 -2 -42 -7 -2 -5 -9 5 -17 14 -11 16 -11 16 3 0 21 6 20 31 -3 13 -12
17 -21 10 -25 -7 -5 -5 -18 6 -41 17 -35 12 -58 -8 -38 -9 9 -59 7 -59 -3 0
-18 27 -54 41 -54 25 0 49 -11 49 -22 0 -5 -9 -21 -20 -35 -25 -31 -25 -47 0
-98 15 -31 20 -36 25 -23 4 10 15 20 25 23 20 6 34 52 31 98 -2 34 9 34 38 1
12 -14 16 -24 9 -23 -26 3 -34 -1 -34 -18 0 -10 -3 -37 -7 -60 -7 -42 2 -62
35 -77 11 -5 11 -7 0 -12 -7 -3 -26 -34 -42 -67 -17 -34 -50 -89 -75 -122 -24
-33 -44 -65 -44 -71 -1 -6 -13 -21 -27 -33 -17 -15 -23 -26 -17 -32 15 -15 3
-59 -15 -59 -8 0 -25 -11 -37 -24 -54 -59 -96 -52 -49 9 34 45 18 45 -25 1
-33 -34 -33 -34 -12 -48 11 -7 21 -20 21 -29 0 -9 8 -20 18 -24 22 -10 84 -6
97 6 12 12 45 12 45 0 0 -10 -73 -71 -86 -71 -12 0 -74 -44 -74 -52 0 -5 15
-8 33 -7 26 0 29 2 12 9 -18 7 -18 8 -3 15 11 4 24 1 33 -9 21 -20 19 -21 51
9 27 25 49 32 58 17 2 -4 2 -12 -2 -17 -9 -12 -110 -56 -134 -58 -19 -2 -37
-17 -81 -65 l-27 -31 46 -7 c29 -4 49 -3 53 4 3 5 23 13 44 17 31 6 36 5 31
-8 -6 -17 -36 -30 -69 -31 -13 -1 -20 -8 -20 -21 0 -27 49 -24 80 5 19 17 23
19 28 6 3 -8 -1 -20 -9 -26 -8 -7 -14 -20 -14 -28 0 -12 3 -13 12 -4 16 16 25
15 31 -3 10 -23 -48 -57 -106 -62 -28 -2 -57 -9 -64 -14 -16 -14 -83 0 -83 17
0 8 -5 14 -11 14 -6 0 -9 -9 -6 -20 8 -30 -11 -35 -33 -8 -11 13 -19 17 -20
10 0 -20 -77 -48 -152 -56 -9 -1 -24 -8 -32 -15 -14 -12 -16 -11 -10 5 11 30
46 64 65 64 10 0 32 14 49 30 17 17 45 37 63 46 62 29 77 39 77 47 0 4 10 12
23 17 21 8 21 9 -5 9 -15 1 -30 -4 -33 -9 -4 -6 -15 -8 -26 -5 -10 4 -19 2
-19 -4 0 -5 -10 -13 -22 -17 -13 -4 -52 -29 -88 -56 -60 -45 -98 -58 -93 -31
1 6 -14 10 -35 9 -36 0 -37 -2 -36 -34 2 -31 14 -61 14 -34 0 7 12 12 26 12
18 0 24 -5 22 -16 -3 -16 -41 -38 -117 -70 -24 -10 -50 -29 -59 -44 -9 -14
-20 -28 -25 -31 -12 -8 41 -21 54 -13 10 6 39 -13 39 -26 0 -11 -59 -40 -81
-40 -21 0 -89 -59 -89 -77 0 -7 19 1 44 18 25 16 60 35 78 41 18 6 41 18 51
27 17 14 19 14 28 -2 13 -23 34 -22 59 3 11 11 28 20 38 20 10 0 23 5 30 12 7
7 28 13 47 14 31 1 35 -2 29 -19 -5 -15 -2 -18 13 -13 10 3 33 2 52 -2 l34 -7
-32 -33 c-36 -35 -49 -39 -57 -17 -8 20 -70 20 -78 0 -3 -8 -11 -15 -18 -15
-7 0 -35 -11 -63 -24 -56 -26 -86 -66 -66 -89 15 -19 6 -40 -21 -52 -26 -12
-62 -59 -57 -74 3 -7 18 1 36 18 18 16 42 32 53 36 11 3 20 10 20 14 0 12 44
57 70 71 19 10 24 10 32 -4 10 -17 26 -16 106 10 23 8 54 14 69 14 25 0 26 -1
8 -20 -28 -31 -87 -58 -110 -50 -40 15 -152 -67 -135 -99 11 -21 -17 -63 -29
-43 -12 20 -34 6 -58 -38 -13 -21 -23 -41 -23 -44 0 -14 26 -4 38 14 7 11 18
20 25 20 8 0 31 13 53 30 39 29 74 39 74 20 0 -18 29 -11 44 11 9 13 28 23 45
24 38 3 38 -1 5 -36 -14 -14 -26 -36 -27 -48 -2 -29 -104 -131 -131 -131 -12
0 -33 -7 -48 -14 -40 -21 -34 -4 12 38 22 20 40 40 40 46 0 15 -6 12 -37 -18
-15 -15 -43 -40 -62 -55 -29 -24 -31 -30 -20 -44 12 -14 11 -15 -7 -9 -14 4
-26 0 -39 -14 -10 -11 -13 -20 -7 -20 26 0 9 -19 -50 -56 -58 -37 -60 -39 -34
-42 15 -2 35 3 44 11 10 8 32 22 50 31 17 9 32 23 32 30 0 8 21 24 48 36 26
12 56 30 67 40 11 9 33 20 48 24 16 4 46 19 68 33 32 21 54 27 117 30 42 2 89
8 105 13 26 9 27 8 27 -31 l0 -40 -49 4 c-58 5 -67 1 -76 -36 -9 -35 -34 -49
-74 -41 -32 7 -40 -3 -19 -24 13 -13 86 -16 105 -4 7 5 11 21 9 38 -4 28 -2
30 20 26 13 -2 31 1 39 8 8 7 22 9 31 6 15 -6 15 -9 -5 -27 -12 -11 -19 -25
-15 -30 8 -13 -15 -39 -35 -39 -18 0 -82 -49 -65 -50 6 0 17 7 24 15 6 7 31
17 54 20 24 4 56 18 72 32 43 37 82 55 89 42 10 -15 -74 -92 -116 -108 -71
-27 -79 -31 -79 -41 0 -7 13 -9 34 -5 19 4 36 2 40 -3 8 -14 -21 -42 -44 -42
-29 0 -50 -11 -50 -26 0 -20 19 -17 59 9 61 38 75 47 100 57 18 8 22 16 17 34
-4 15 0 28 9 36 8 7 15 19 15 26 0 8 7 14 15 14 8 0 15 4 15 10 0 5 17 12 38
15 50 8 82 22 82 36 0 7 7 17 16 24 13 9 -4 11 -82 10 -55 -1 -105 3 -113 9
-10 7 -17 5 -27 -9 -19 -26 -26 -15 -18 33 4 26 11 39 18 36 7 -3 18 7 24 21
15 32 68 37 59 6 -3 -15 2 -20 25 -25 17 -3 34 -3 39 0 5 3 35 7 66 9 32 3 72
7 89 11 25 5 36 1 52 -16 12 -13 27 -20 34 -17 21 8 58 -27 52 -50 -4 -15 -20
-22 -75 -31 -39 -7 -74 -10 -79 -7 -4 3 -10 -1 -13 -9 -7 -19 93 -32 120 -16
13 8 26 9 46 1 28 -11 35 -29 16 -48 -7 -7 -6 -12 6 -17 10 -3 25 3 39 19 18
19 33 25 65 25 22 0 41 -4 41 -9 0 -12 -27 -21 -45 -15 -15 6 -45 -17 -45 -35
0 -6 9 -11 19 -11 11 0 23 -5 27 -12 5 -8 -2 -9 -23 -5 -28 5 -31 3 -40 -26
-6 -20 -15 -31 -24 -28 -8 2 -29 6 -46 9 -26 3 -33 1 -33 -13 0 -9 11 -26 25
-37 30 -23 32 -49 5 -68 -19 -14 -18 -15 13 -25 17 -6 37 -8 43 -3 5 4 28 2
50 -4 70 -19 71 -19 50 -27 -12 -5 -32 -2 -48 7 -33 16 -80 9 -72 -11 3 -8 14
-13 26 -13 11 1 23 -5 25 -12 4 -10 -7 -13 -38 -11 -24 1 -51 0 -59 -2 -8 -2
-14 2 -12 8 3 17 -13 16 -28 -2 -18 -22 -4 -36 27 -24 37 14 82 -7 75 -35 -7
-29 -44 -68 -59 -62 -7 3 -15 0 -19 -6 -4 -6 -25 -8 -55 -5 -35 4 -51 2 -60
-9 -10 -12 -8 -17 7 -29 15 -11 16 -16 7 -26 -10 -10 -15 -10 -27 0 -8 7 -24
10 -34 7 -12 -4 -22 -1 -25 8 -5 12 -15 10 -64 -10 -32 -13 -67 -24 -79 -24
-11 0 -33 -13 -47 -30 -15 -17 -36 -30 -48 -30 -16 0 -19 -4 -14 -20 4 -14 2
-20 -8 -20 -19 0 -34 -19 -39 -50 -2 -20 1 -25 17 -23 11 2 37 4 59 5 30 2 46
11 74 40 21 23 46 38 59 38 29 0 29 -7 -3 -36 -17 -16 -23 -31 -19 -43 8 -26
-15 -40 -62 -38 -27 1 -48 -5 -61 -16 -10 -9 -23 -17 -28 -17 -6 0 -25 -16
-44 -35 -39 -41 -46 -42 -55 -14 -8 23 12 79 27 79 6 0 8 9 5 20 -3 11 -1 23
4 26 12 7 11 24 -2 24 -16 0 -79 -54 -79 -67 0 -7 5 -13 10 -13 6 0 10 -6 10
-12 -1 -17 -35 -58 -49 -58 -6 0 -11 -6 -11 -14 0 -16 -56 -66 -74 -66 -7 0
-21 -8 -32 -19 -11 -10 -30 -22 -42 -25 -31 -10 -30 27 2 51 13 11 26 28 28
39 2 10 10 18 16 17 7 -2 12 2 12 7 0 16 62 50 92 50 30 0 41 11 32 33 -5 13
-10 14 -39 1 -19 -8 -41 -14 -50 -14 -15 0 -26 -7 -62 -40 -29 -26 -117 -80
-131 -80 -8 0 -37 -24 -66 -53 -51 -51 -104 -97 -112 -97 -2 0 -4 6 -4 13 0
12 19 33 103 112 22 20 36 39 33 42 -3 3 -11 1 -18 -4 -7 -6 -24 -9 -36 -8
-13 1 -26 -4 -29 -12 -3 -7 -11 -13 -19 -13 -8 0 -14 -4 -14 -10 0 -5 -6 -10
-13 -10 -8 0 -22 -9 -32 -20 -22 -25 -31 -19 -15 10 11 20 10 21 -12 15 -12
-4 -32 -16 -44 -26 -24 -23 -42 -25 -24 -4 10 12 9 15 -6 15 -36 -1 -116 -26
-123 -39 -6 -9 -10 -5 -13 12 -4 19 3 29 31 48 46 31 161 148 161 164 0 9 -12
8 -47 -3 -59 -19 -73 -29 -66 -48 3 -10 0 -12 -10 -8 -10 3 -20 -2 -27 -15 -6
-13 -21 -21 -37 -21 -14 0 -41 -11 -60 -26 -41 -31 -43 -22 -3 18 17 16 28 34
24 39 -10 16 6 31 21 19 10 -8 19 -8 36 2 49 28 60 44 54 77 -3 17 -1 31 4 31
5 0 11 11 13 24 5 23 3 24 -26 19 -31 -6 -121 -85 -121 -107 0 -6 -9 -11 -20
-11 -11 0 -33 -16 -48 -35 -33 -40 -114 -110 -129 -110 -5 0 -8 10 -6 23 2 12
8 21 14 20 6 -1 12 19 13 48 1 49 38 140 61 154 6 4 8 11 5 16 -9 13 5 50 16
44 18 -12 29 6 14 22 -17 16 -35 8 -63 -29 -7 -10 -17 -18 -23 -18 -16 0 -9
25 11 38 11 7 20 19 20 27 0 8 9 15 19 15 12 0 21 10 26 27 3 15 14 33 23 40
16 11 16 12 -1 13 -10 0 -22 -11 -27 -26 -6 -14 -14 -22 -20 -19 -5 3 -16 3
-22 -2 -7 -4 -16 -8 -19 -8 -4 0 -25 -25 -48 -55 -39 -52 -72 -79 -98 -80 -16
0 -17 37 -1 42 6 2 9 10 6 18 -2 8 -15 -4 -34 -32 -17 -27 -39 -48 -52 -51
-31 -6 -37 8 -12 33 11 11 20 26 20 33 0 6 6 23 13 37 18 34 27 70 18 70 -13
0 -47 -44 -60 -77 -12 -29 -16 -32 -49 -29 -33 3 -37 7 -33 27 13 76 -6 90
-33 24 -27 -65 -46 -59 -46 15 0 33 4 60 10 60 18 0 10 19 -11 25 -17 6 -20
13 -16 38 10 58 18 92 29 113 5 12 8 30 6 40 -3 15 -7 12 -24 -17 -19 -32 -28
-63 -37 -124 -5 -36 -19 -75 -27 -75 -12 0 -20 59 -14 101 5 31 3 39 -9 39 -8
0 -18 -7 -21 -16 -6 -17 -26 -10 -26 9 0 7 5 19 10 27 9 13 11 13 20 0 8 -13
10 -13 10 2 0 12 5 15 18 11 16 -6 16 -5 0 14 -10 11 -18 24 -18 30 0 6 -19
13 -41 16 -51 7 -67 20 -49 42 7 8 10 24 7 35 -3 11 -2 22 3 25 9 5 1 55 -9
55 -4 0 -7 -10 -7 -22 1 -17 -5 -24 -24 -26 -17 -2 -21 0 -12 6 7 5 10 16 6
25 -3 10 -1 24 6 32 11 13 10 18 -6 30 -28 21 -30 19 -44 -30 -7 -25 -16 -45
-19 -45 -6 0 -29 23 -51 51 -3 3 1 13 7 21 16 19 7 28 -29 28 -18 0 -28 5 -28
15 0 9 -6 12 -15 9 -10 -4 -13 -13 -10 -25 5 -13 2 -17 -8 -14 -13 6 -15 24
-5 55 18 52 28 87 28 93 0 18 -17 3 -38 -33 -35 -62 -47 -55 -42 28 2 42 1 43
-19 30 -14 -9 -21 -23 -21 -45 0 -24 -8 -38 -32 -57 -18 -14 -34 -24 -35 -22
-2 1 6 20 16 42 20 40 19 54 -3 54 -9 0 -12 10 -10 30 4 29 -10 42 -18 18 -3
-9 -10 -8 -22 5 -10 10 -15 24 -12 33 3 8 0 17 -7 20 -22 8 -12 171 16 251 8
25 8 36 -1 45 -16 16 -15 28 3 28 19 0 19 9 -1 31 -10 12 -14 25 -9 36 4 10 8
33 10 50 1 18 19 60 39 93 26 42 38 74 41 109 4 50 20 84 62 131 25 27 30 50
12 50 -7 0 -9 10 -7 25 3 13 2 24 -1 23 -21 -2 -19 5 8 31 25 23 30 35 26 54
-5 18 -1 29 18 43 13 11 27 32 31 47 3 15 13 27 21 27 12 0 12 5 4 27 -11 30
-4 73 11 73 15 0 12 26 -5 40 -17 14 -15 57 5 105 7 17 13 42 14 57 0 16 7 28
14 28 6 0 12 5 12 11 0 5 -4 7 -10 4 -5 -3 -10 1 -10 9 0 21 32 86 42 86 4 0
8 10 7 23 0 12 -3 16 -6 10 -5 -14 -33 -18 -33 -5 0 4 10 16 21 26 16 14 20
25 16 50 -3 18 -1 39 3 47 5 8 4 19 -2 26 -12 15 6 44 25 40 7 -1 11 8 9 23
-4 22 -2 23 14 10 16 -14 17 -13 10 13 -5 21 0 37 23 70 52 75 73 121 73 154
0 18 8 43 18 56 18 21 19 21 32 4 13 -17 15 -17 37 7 19 20 28 23 43 15 25
-14 51 6 42 33 -3 10 -2 32 1 49 5 24 11 30 26 26 24 -6 24 -1 0 24 -19 20
-19 22 1 77 11 31 24 62 30 69 5 7 7 17 3 22 -3 6 0 21 7 33 7 13 11 26 10 31
-1 4 7 7 18 7 11 0 20 4 20 9 0 15 76 62 92 56 8 -3 27 8 46 30 18 19 40 35
50 35 9 0 35 11 57 25 41 25 109 33 120 15 4 -6 11 -8 16 -5 5 4 9 1 9 -4 0
-18 39 -12 57 9 19 22 33 26 33 10z m-671 -27 c-13 -15 -29 -33 -36 -40 -6 -7
-14 -10 -17 -5 -7 12 43 72 61 72 13 0 11 -6 -8 -27z m791 18 c0 -6 -4 -13
-10 -16 -5 -3 -10 1 -10 9 0 9 5 16 10 16 6 0 10 -4 10 -9z m790 -371 c0 -5
-4 -10 -10 -10 -5 0 -10 5 -10 10 0 6 5 10 10 10 6 0 10 -4 10 -10z m945 -20
c10 -11 16 -20 13 -20 -3 0 -13 9 -23 20 -10 11 -16 20 -13 20 3 0 13 -9 23
-20z m-745 -100 c8 -5 11 -10 5 -10 -5 0 -17 5 -25 10 -8 5 -10 10 -5 10 6 0
17 -5 25 -10z m835 -20 c3 -5 1 -10 -4 -10 -6 0 -11 5 -11 10 0 6 2 10 4 10 3
0 8 -4 11 -10z m-800 -10 c3 -5 1 -10 -4 -10 -6 0 -11 5 -11 10 0 6 2 10 4 10
3 0 8 -4 11 -10z m111 -142 c-5 -37 -2 -56 8 -67 10 -11 12 -26 7 -51 -8 -40
-27 -38 -25 3 2 24 -2 27 -27 27 -26 0 -29 3 -29 35 0 19 -4 35 -10 35 -5 0
-10 8 -10 17 0 15 1 15 13 1 9 -12 18 -14 35 -7 18 7 21 14 16 34 -5 19 -2 25
11 25 14 0 16 -8 11 -52z m2450 -105 c-10 -10 -19 5 -10 18 6 11 8 11 12 0 2
-7 1 -15 -2 -18z m41 -70 c12 -18 13 -28 2 -57 -10 -29 -10 -38 3 -58 23 -35
32 -85 17 -94 -7 -4 -15 -2 -17 4 -5 17 -32 15 -32 -3 0 -27 -35 -16 -48 15
-12 25 -11 33 2 52 9 12 16 32 16 44 0 11 9 29 20 39 19 17 19 20 4 36 -16 18
-16 59 1 71 6 4 12 0 14 -9 2 -10 10 -27 18 -40z m-1935 -163 c-4 -53 16 -120
35 -120 8 0 13 13 13 38 0 45 14 62 52 62 29 0 30 -2 43 -80 22 -139 171 -286
310 -305 28 -4 69 -15 92 -25 36 -16 43 -25 53 -62 18 -67 106 -361 114 -379
9 -21 -34 -40 -72 -33 -20 4 -34 0 -46 -11 -38 -38 -60 0 -81 143 -15 101 -30
127 -125 223 -66 67 -183 169 -194 169 -15 0 -108 65 -138 96 -92 96 -108 129
-108 220 0 67 17 116 39 112 12 -3 15 -13 13 -48z m-487 -31 c-17 -32 -76 -99
-89 -99 -13 0 -5 20 17 44 12 14 35 41 52 60 35 42 43 40 20 -5z m925 -51 c0
-14 -17 -16 -39 -5 -17 9 -24 22 -27 51 l-3 38 34 -38 c19 -22 34 -42 35 -46z
m-830 62 c0 -5 -7 -10 -15 -10 -8 0 -15 5 -15 10 0 6 7 10 15 10 8 0 15 -4 15
-10z m2270 -80 c0 -5 -5 -10 -11 -10 -6 0 -9 -9 -6 -19 2 -10 1 -25 -4 -32 -7
-11 -11 -10 -23 6 -20 26 -20 42 2 54 22 13 42 14 42 1z m-2466 -65 c-4 -8
-11 -15 -16 -15 -6 0 -5 6 2 15 7 8 14 15 16 15 2 0 1 -7 -2 -15z m1059 -107
c20 -70 24 -94 14 -100 -23 -14 -38 24 -56 140 -13 86 12 63 42 -40z m-907 45
c-10 -10 -19 5 -10 18 6 11 8 11 12 0 2 -7 1 -15 -2 -18z m-26 -3 c0 -5 -5
-10 -11 -10 -5 0 -7 5 -4 10 3 6 8 10 11 10 2 0 4 -4 4 -10z m2290 -4 c0 -3
-4 -8 -10 -11 -5 -3 -10 -1 -10 4 0 6 5 11 10 11 6 0 10 -2 10 -4z m-2330 -16
c0 -5 -5 -10 -11 -10 -5 0 -7 5 -4 10 3 6 8 10 11 10 2 0 4 -4 4 -10z m2306
-37 c-10 -10 -19 5 -10 18 6 11 8 11 12 0 2 -7 1 -15 -2 -18z m-2335 -30 c-9
-16 -10 -15 -11 8 0 14 3 29 8 33 12 12 14 -22 3 -41z m347 -25 c-3 -8 -26
-14 -59 -15 -52 -3 -53 -2 -29 12 32 18 93 20 88 3z m1982 -10 c0 -19 -2 -20
-10 -8 -13 19 -13 30 0 30 6 0 10 -10 10 -22z m-70 -18 c0 -5 -4 -10 -10 -10
-5 0 -10 5 -10 10 0 6 5 10 10 10 6 0 10 -4 10 -10z m10 -70 c15 -57 1 -70
-21 -20 -10 23 -16 46 -13 51 11 19 24 8 34 -31z m-2192 -2 c-2 -6 -10 -14
-16 -16 -7 -2 -10 2 -6 12 7 18 28 22 22 4z m1151 -49 c23 -65 8 -159 -18
-111 -8 14 -15 103 -12 135 2 18 20 4 30 -24z m996 10 c11 -17 -1 -21 -15 -4
-8 9 -8 15 -2 15 6 0 14 -5 17 -11z m-2315 -9 c0 -5 -4 -10 -10 -10 -5 0 -10
5 -10 10 0 6 5 10 10 10 6 0 10 -4 10 -10z m-60 -81 c0 -5 -9 -9 -20 -9 -13 0
-18 5 -14 14 6 15 34 11 34 -5z m630 1 c13 -8 10 -14 -17 -38 -21 -20 -36 -26
-45 -21 -10 7 -10 9 0 9 8 0 11 9 8 24 -6 32 23 46 54 26z m1867 -72 c-3 -8
-6 -5 -6 6 -1 11 2 17 5 13 3 -3 4 -12 1 -19z m-527 3 c0 -5 -11 -11 -25 -13
-17 -4 -25 -1 -25 8 0 8 11 14 25 14 14 0 25 -4 25 -9z m-182 -100 c3 -8 -1
-12 -9 -9 -7 2 -15 10 -17 17 -3 8 1 12 9 9 7 -2 15 -10 17 -17z m162 10 c0
-6 -4 -13 -10 -16 -5 -3 -10 1 -10 9 0 9 5 16 10 16 6 0 10 -4 10 -9z m188
-18 c-5 -25 -28 -28 -28 -4 0 12 6 21 16 21 9 0 14 -7 12 -17z m-558 -40 c-1
-24 -2 -26 -11 -10 -5 9 -7 22 -4 27 10 17 15 11 15 -17z m-80 -3 c0 -5 -7
-10 -16 -10 -8 0 -12 5 -9 10 3 6 10 10 16 10 5 0 9 -4 9 -10z m-1507 -65 c-5
-16 -33 -21 -33 -7 0 13 22 32 31 26 5 -2 6 -11 2 -19z m1977 -35 c0 -5 -2
-10 -4 -10 -3 0 -8 5 -11 10 -3 6 -1 10 4 10 6 0 11 -4 11 -10z m-2023 -18
c21 -14 20 -47 -3 -50 -23 -3 -37 18 -28 43 7 17 13 18 31 7z m93 -42 c0 -5
-5 -10 -11 -10 -5 0 -7 5 -4 10 3 6 8 10 11 10 2 0 4 -4 4 -10z m1410 4 c24
-4 39 -14 47 -30 l11 -24 -71 0 c-40 0 -101 -7 -136 -15 -70 -17 -89 -9 -70
27 7 13 21 18 52 17 23 -1 56 6 72 15 33 17 43 19 95 10z m-2077 -128 c-6 -29
-59 -54 -77 -36 -13 13 25 46 59 53 11 2 21 5 21 6 1 0 -1 -10 -3 -23z m777
-86 c0 -5 -4 -10 -9 -10 -6 0 -13 5 -16 10 -3 6 1 10 9 10 9 0 16 -4 16 -10z
m-295 -70 c3 -5 15 -10 26 -10 34 0 20 -20 -16 -21 -19 -1 -50 -2 -67 -3 -23
-1 -33 4 -33 14 0 9 10 15 23 16 12 1 25 4 29 8 10 9 31 7 38 -4z m1120 -19
c-3 -6 -16 -11 -28 -11 -21 0 -21 1 3 13 27 15 36 14 25 -2z m-1481 -48 c-48
-44 -60 -23 -17 26 24 27 29 29 35 14 4 -12 -2 -25 -18 -40z m187 4 c-25 -25
-41 -15 -18 11 10 10 17 25 17 33 1 10 4 8 11 -5 9 -14 7 -22 -10 -39z m1229
18 c-7 -8 -20 -15 -29 -15 -13 1 -13 3 3 15 26 19 42 19 26 0z m40 -5 c0 -5
-4 -10 -10 -10 -5 0 -10 5 -10 10 0 6 5 10 10 10 6 0 10 -4 10 -10z m585 -10
c0 -12 -15 -15 -67 -16 -36 -1 -78 -4 -92 -8 -15 -4 -26 -2 -26 4 0 5 1 10 3
10 1 0 20 7 42 15 52 19 140 16 140 -5z m-778 -37 c-3 -2 -18 -3 -34 -1 l-28
3 30 17 c26 14 30 14 33 1 2 -8 2 -17 -1 -20z m-1002 -12 c-3 -6 -16 -11 -28
-11 -21 1 -21 1 3 15 27 14 36 13 25 -4z m1143 6 c-15 -15 -48 -29 -48 -20 0
9 34 32 48 33 11 0 11 -2 0 -13z m-848 -18 c0 -5 -7 -9 -15 -9 -15 0 -20 12
-9 23 8 8 24 -1 24 -14z m637 15 c-3 -3 -12 -4 -19 -1 -8 3 -5 6 6 6 11 1 17
-2 13 -5z m943 -24 c0 -5 -2 -10 -4 -10 -3 0 -8 5 -11 10 -3 6 -1 10 4 10 6 0
11 -4 11 -10z m-1780 -9 c0 -6 -4 -12 -9 -15 -13 -8 -42 4 -35 15 7 12 44 12
44 0z m107 -28 c-15 -15 -17 -15 -23 1 -8 21 16 40 30 26 7 -7 4 -16 -7 -27z
m953 27 c0 -5 -4 -10 -9 -10 -6 0 -13 5 -16 10 -3 6 1 10 9 10 9 0 16 -4 16
-10z m-87 -7 c-7 -2 -21 -2 -30 0 -10 3 -4 5 12 5 17 0 24 -2 18 -5z m-156
-37 c-10 -8 -27 -12 -37 -9 -33 9 -22 23 18 23 33 -1 35 -2 19 -14z m-887 -2
c0 -23 -140 -91 -161 -78 -15 9 32 41 76 53 22 6 47 15 55 21 17 11 30 13 30
4z m142 -5 c3 -8 19 -8 61 1 45 9 61 9 72 0 12 -10 15 -10 15 -1 0 7 5 9 10 6
6 -4 7 -11 4 -17 -5 -7 -1 -9 9 -5 10 3 17 2 17 -3 0 -19 -90 -24 -119 -6 -5
3 -14 -1 -21 -9 -9 -11 -8 -18 9 -36 l20 -22 34 20 c37 22 87 34 160 39 75 4
55 -31 -23 -40 -25 -2 -46 -5 -48 -5 -2 -1 4 -9 13 -18 16 -15 15 -18 -7 -34
-21 -17 -21 -19 -4 -19 11 0 30 9 42 21 18 17 30 20 63 14 42 -7 52 -18 26
-29 -34 -13 -12 -26 45 -26 33 0 60 -4 60 -9 0 -15 -59 -20 -174 -16 -83 3
-112 8 -127 21 -13 11 -27 14 -46 10 -83 -20 -115 -23 -120 -10 -3 8 -8 12
-12 10 -3 -2 -28 -7 -56 -10 -64 -9 -88 -16 -100 -32 -8 -9 -125 -26 -125 -17
0 12 15 33 24 33 6 0 18 9 26 20 14 20 37 29 25 10 -10 -17 31 -11 82 12 33
14 42 23 31 25 -24 6 -23 23 1 23 11 0 23 5 27 12 5 8 -6 9 -40 5 -56 -8 -61
12 -6 26 36 9 74 -4 97 -33 15 -19 26 -8 16 16 -5 10 -19 20 -32 22 -13 1 -32
12 -43 24 -21 25 -20 29 9 22 15 -4 20 -11 15 -22 -4 -11 5 -7 27 11 34 29 57
34 63 16z m968 0 c0 -15 -39 -49 -57 -50 -10 -1 -30 -3 -46 -5 -15 -1 -25 1
-22 7 4 5 12 9 18 9 7 1 24 11 39 23 29 24 68 33 68 16z m-1404 -14 c-3 -18
-74 -57 -88 -49 -6 4 10 19 34 35 49 33 57 35 54 14z m234 -90 c0 -8 -4 -15
-10 -15 -5 0 -10 7 -10 15 0 8 5 15 10 15 6 0 10 -7 10 -15z m940 -15 c0 -5
-9 -10 -20 -10 -11 0 -20 5 -20 10 0 6 9 10 20 10 11 0 20 -4 20 -10z m-1050
-30 c0 -11 -4 -20 -9 -20 -11 0 -22 26 -14 34 12 12 23 5 23 -14z m810 10 c0
-5 -4 -10 -10 -10 -5 0 -10 5 -10 10 0 6 5 10 10 10 6 0 10 -4 10 -10z m-112
-127 c16 -16 16 -16 -1 -10 -10 4 -23 7 -28 7 -5 0 -9 5 -9 10 0 15 20 12 38
-7z m-2688 -23 c0 -5 -4 -10 -10 -10 -5 0 -10 5 -10 10 0 6 5 10 10 10 6 0 10
-4 10 -10z m210 -304 c0 -3 -4 -8 -10 -11 -5 -3 -10 -1 -10 4 0 6 5 11 10 11
6 0 10 -2 10 -4z m2655 -5 c7 -12 -120 -26 -137 -15 -9 6 0 11 27 15 64 10
103 10 110 0z m-2455 -61 c0 -5 -2 -10 -4 -10 -3 0 -8 5 -11 10 -3 6 -1 10 4
10 6 0 11 -4 11 -10z m3810 -101 c0 -10 5 -21 10 -24 6 -3 10 -11 10 -16 0 -6
-5 -7 -10 -4 -6 4 -18 4 -26 1 -13 -5 -13 -9 2 -31 13 -20 14 -28 4 -40 -7 -8
-9 -26 -5 -43 4 -19 1 -33 -8 -41 -36 -29 -48 173 -15 245 l11 24 14 -26 c7
-15 13 -35 13 -45z m-3950 27 c0 -3 -4 -8 -10 -11 -5 -3 -10 -1 -10 4 0 6 5
11 10 11 6 0 10 -2 10 -4z m2420 -56 c0 -5 -4 -10 -10 -10 -5 0 -10 5 -10 10
0 6 5 10 10 10 6 0 10 -4 10 -10z m140 -9 c0 -8 -91 -23 -99 -16 -1 2 -1 7 2
12 7 11 97 15 97 4z m-200 -71 c0 -5 -4 -10 -10 -10 -5 0 -10 5 -10 10 0 6 5
10 10 10 6 0 10 -4 10 -10z m-2449 -23 c-1 -12 -15 -9 -19 4 -3 6 1 10 8 8 6
-3 11 -8 11 -12z m60 -30 c-13 -13 -15 1 -4 30 7 17 8 17 11 -1 2 -10 -1 -23
-7 -29z m2279 12 c0 -5 -7 -9 -15 -9 -9 0 -15 9 -15 21 0 18 2 19 15 9 8 -7
15 -16 15 -21z m-2406 -73 c-7 -65 -24 -93 -24 -38 0 15 -4 32 -10 38 -6 6 -2
20 13 41 12 17 23 30 25 28 1 -1 0 -32 -4 -69z m85 -38 c-18 -15 -30 -31 -26
-34 3 -4 2 -15 -4 -26 -8 -15 -13 -17 -25 -7 -9 8 -11 16 -5 23 6 7 8 22 4 34
-4 19 0 25 26 35 17 6 31 17 31 23 0 22 25 22 29 0 2 -14 -8 -30 -30 -48z
m2561 62 c0 -5 -7 -10 -16 -10 -8 0 -12 5 -9 10 3 6 10 10 16 10 5 0 9 -4 9
-10z m-306 -15 c6 -17 37 -20 52 -5 16 16 127 23 122 9 -2 -7 -17 -14 -33 -16
-15 -2 -41 -11 -56 -19 -32 -16 -90 -19 -105 -4 -7 7 -29 7 -67 -1 -32 -5 -67
-7 -77 -4 -11 4 -36 1 -56 -5 -44 -15 -54 -6 -26 20 13 13 35 20 54 20 42 -1
120 8 126 15 12 11 60 4 66 -10z m-1911 -35 c-3 -11 -7 -20 -8 -20 -1 0 -5 9
-8 20 -3 12 0 20 8 20 8 0 11 -8 8 -20z m-123 -11 c0 -10 -24 -39 -33 -39 -2
0 -2 11 1 25 4 24 32 36 32 14z m3790 -13 c0 -14 -4 -28 -10 -31 -6 -4 -10 7
-10 24 0 17 5 31 10 31 6 0 10 -11 10 -24z m73 -82 c-8 -23 -23 3 -23 41 l0
30 15 -28 c8 -15 11 -35 8 -43z m-1893 46 c12 -8 12 -10 -2 -15 -9 -4 -29 -5
-45 -3 l-28 4 25 11 c31 15 32 15 50 3z m110 3 c-14 -3 -31 -9 -37 -15 -7 -6
-21 -7 -30 -3 -16 7 -15 9 7 15 14 5 39 8 55 8 26 -1 27 -1 5 -5z m-1500 -35
c-24 -45 -60 -75 -60 -48 0 12 61 82 67 76 3 -2 -1 -15 -7 -28z m-358 -8 c4
-26 2 -29 -14 -24 -13 4 -21 -2 -27 -19 -14 -37 -36 -47 -27 -13 5 21 52 86
62 86 1 0 4 -14 6 -30z m264 -8 c-14 -14 -16 -14 -16 -1 0 20 23 44 29 28 2
-6 -4 -18 -13 -27z m1404 19 c0 -5 -7 -11 -15 -15 -15 -5 -20 5 -8 17 9 10 23
9 23 -2z m-1040 -11 c0 -5 -7 -10 -16 -10 -8 0 -12 5 -9 10 3 6 10 10 16 10 5
0 9 -4 9 -10z m-892 -11 c-2 -6 -8 -10 -13 -10 -5 0 -11 4 -13 10 -2 6 4 11
13 11 9 0 15 -5 13 -11z m127 2 c3 -6 -4 -26 -15 -46 -25 -44 -25 -46 1 -73
25 -28 21 -56 -9 -60 -12 -2 -27 -12 -32 -23 -6 -10 -17 -19 -25 -19 -16 0
-20 25 -6 34 5 4 12 24 16 46 4 22 12 40 18 40 8 0 8 3 0 11 -9 9 -8 20 5 43
9 17 17 34 18 39 1 4 2 9 3 12 2 8 19 6 26 -4z m-254 -14 c-1 -12 -15 -9 -19
4 -3 6 1 10 8 8 6 -3 11 -8 11 -12z m455 -25 c-4 -3 -12 0 -19 7 -9 9 -9 14 3
21 11 7 16 5 18 -6 2 -9 1 -18 -2 -22z m1714 14 c0 -8 5 -16 12 -18 7 -3 9
-12 5 -22 -5 -13 -11 -15 -26 -6 -11 5 -27 10 -36 10 -21 0 -67 35 -58 44 3 3
28 6 55 6 35 0 48 -4 48 -14z m-1545 -6 c3 -5 1 -10 -4 -10 -6 0 -11 5 -11 10
0 6 2 10 4 10 3 0 8 -4 11 -10z m425 0 c0 -5 -4 -10 -10 -10 -5 0 -10 5 -10
10 0 6 5 10 10 10 6 0 10 -4 10 -10z m-1210 -14 c0 -8 -5 -27 -10 -42 -8 -20
-14 -24 -22 -16 -7 7 -7 19 3 41 15 33 29 41 29 17z m325 -21 c-1 -14 -7 -31
-13 -37 -7 -7 -12 -19 -12 -28 0 -9 -6 -25 -14 -36 -13 -17 -14 -15 -14 27 0
33 6 55 21 73 26 33 33 33 32 1z m-93 -47 c-4 -17 -14 -34 -21 -36 -11 -4 -13
4 -7 38 8 54 16 67 28 47 5 -9 5 -31 0 -49z m538 52 c0 -5 -2 -10 -4 -10 -3 0
-8 5 -11 10 -3 6 -1 10 4 10 6 0 11 -4 11 -10z m-132 -20 c-13 -20 -28 -27
-28 -12 0 10 22 32 32 32 5 0 3 -9 -4 -20z m1429 -17 c-9 -9 -20 -13 -24 -9
-4 4 1 14 11 22 25 18 35 8 13 -13z m-2007 4 c0 -2 -9 -14 -19 -26 -21 -24
-41 -10 -21 14 11 13 40 21 40 12z m2499 -16 c10 -6 5 -11 -18 -16 -35 -7 -47
-3 -36 14 8 13 35 14 54 2z m-249 -16 c8 -9 31 -15 59 -16 25 -1 57 -4 70 -8
21 -6 22 -8 8 -20 -18 -14 -59 -12 -136 8 -36 10 -49 9 -82 -6 -24 -10 -38
-22 -35 -30 4 -9 -5 -13 -29 -13 -32 0 -75 -30 -75 -52 0 -11 34 -10 46 1 5 5
32 11 61 15 53 7 73 -3 56 -27 -24 -32 -9 -42 62 -44 39 -1 84 -2 100 -3 l30
-1 -25 -19 c-20 -15 -41 -20 -100 -20 -42 0 -81 5 -87 11 -8 8 -19 6 -42 -5
-23 -12 -36 -14 -50 -6 -33 17 -58 11 -84 -20 -29 -34 -47 -39 -47 -13 0 14
-3 14 -12 5 -10 -10 -10 -15 2 -22 21 -13 -2 -34 -38 -36 -22 -1 -26 -5 -24
-22 3 -17 -2 -22 -19 -22 -17 0 -20 5 -17 25 5 22 2 25 -18 22 -13 -2 -26 -6
-30 -10 -4 -4 -16 -7 -26 -7 -29 0 -21 29 10 36 15 3 38 10 51 15 13 5 32 7
42 4 11 -4 19 -2 19 5 0 30 63 56 72 29 2 -5 17 1 33 16 33 28 68 41 84 30 6
-3 11 -1 11 5 0 12 -22 22 -53 24 -19 1 -22 6 -19 38 4 45 -9 54 -48 31 -22
-13 -33 -14 -41 -6 -16 16 52 57 121 73 30 7 78 20 105 30 64 23 80 23 95 5z
m-1779 -48 c-10 -9 -11 -8 -5 6 3 10 9 15 12 12 3 -3 0 -11 -7 -18z m634 4
c-3 -6 -11 -11 -17 -11 -6 0 -6 6 2 15 14 17 26 13 15 -4z m-670 -22 c-4 -6 0
-9 11 -7 14 2 18 -2 16 -17 -4 -20 -43 -58 -51 -49 -11 10 -8 34 4 44 8 6 11
18 8 26 -3 8 0 14 7 14 6 0 8 -5 5 -11z m3759 -20 c3 -17 6 -47 6 -66 0 -31
-2 -34 -16 -22 -10 8 -14 25 -13 49 2 19 0 40 -4 46 -7 11 0 24 13 24 4 0 10
-14 14 -31z m-4174 -36 c0 -7 -4 -13 -10 -13 -5 0 -10 12 -10 28 0 21 2 24 10
12 5 -8 10 -21 10 -27z m1538 15 c-3 -7 -16 -20 -31 -28 -22 -12 -28 -13 -39
-1 -7 8 -8 11 -2 8 7 -4 23 2 35 13 28 22 42 26 37 8z m257 -17 c0 -8 -4 -16
-10 -18 -16 -5 -38 14 -30 26 9 16 40 9 40 -8z m172 -13 c-3 -8 -6 -5 -6 6 -1
11 2 17 5 13 3 -3 4 -12 1 -19z m283 7 c-7 -8 -20 -15 -29 -15 -13 1 -13 3 3
15 26 19 42 19 26 0z m-1442 -7 c-7 -19 -38 -22 -38 -4 0 10 9 16 21 16 12 0
19 -5 17 -12z m882 -12 c0 -20 27 -28 34 -9 5 12 10 10 28 -12 l22 -28 -27
-19 c-20 -15 -25 -26 -22 -49 4 -35 -18 -36 -23 -1 -5 31 -27 27 -53 -7 -18
-25 -24 -28 -35 -16 -19 19 -17 33 6 40 20 6 70 60 70 76 0 5 -7 9 -15 9 -16
0 -20 12 -8 23 11 12 23 8 23 -7z m-70 -37 c0 -8 -68 -28 -74 -22 -6 7 25 39
44 45 14 5 29 -8 30 -23z m-1224 -8 c-4 -6 -14 -11 -22 -11 -12 0 -13 4 -3 21
7 14 14 18 21 11 6 -6 7 -15 4 -21z m2064 15 c0 -18 -57 -39 -66 -25 -3 6 -4
12 -3 13 3 3 46 19 67 25 1 1 2 -5 2 -13z m-1032 -23 c-2 -5 -10 -25 -18 -45
-9 -25 -20 -38 -32 -38 -10 0 -18 2 -18 4 0 15 32 75 42 79 20 8 30 8 26 0z
m-1036 -35 c-7 -7 -12 -8 -12 -2 0 14 12 26 19 19 2 -3 -1 -11 -7 -17z m408
-8 c-20 -13 -33 -13 -25 0 3 6 14 10 23 10 15 0 15 -2 2 -10z m1000 1 c0 -15
-19 -23 -38 -16 -14 5 -14 7 -2 15 19 12 40 13 40 1z m-219 -27 c11 -13 10
-18 -5 -26 -20 -11 -96 -18 -96 -9 1 8 63 49 76 50 6 1 18 -6 25 -15z m646
-36 c12 -10 11 -14 -9 -24 -20 -11 -26 -10 -43 6 -20 19 -22 20 -52 20 -12 0
-18 8 -18 24 l0 23 54 -18 c30 -11 60 -24 68 -31z m-1467 33 c0 -6 -4 -13 -10
-16 -5 -3 -10 1 -10 9 0 9 5 16 10 16 6 0 10 -4 10 -9z m1590 -1 c18 -11 13
-16 -27 -25 -34 -7 -42 2 -21 23 14 14 28 15 48 2z m-1080 -15 c0 -8 -6 -15
-13 -15 -7 0 -17 -8 -23 -17 -12 -19 -94 -69 -94 -58 0 12 104 105 118 105 6
0 12 -7 12 -15z m-790 -5 c0 -5 -2 -10 -4 -10 -3 0 -8 5 -11 10 -3 6 -1 10 4
10 6 0 11 -4 11 -10z m445 -34 c-6 -7 -25 -34 -44 -59 -19 -26 -38 -47 -43
-47 -18 0 -6 28 32 74 22 26 40 53 40 59 0 7 4 7 12 -1 9 -9 9 -17 3 -26z
m1160 25 c3 -5 1 -12 -4 -15 -12 -8 -41 3 -41 15 0 12 37 12 45 0z m-1840 -11
c3 -5 1 -10 -4 -10 -6 0 -11 5 -11 10 0 6 2 10 4 10 3 0 8 -4 11 -10z m135
-34 c0 -8 3 -21 6 -30 7 -17 -3 -21 -23 -8 -7 4 -10 17 -6 30 6 24 23 30 23 8z
m110 -13 c-1 -25 -29 -73 -44 -73 -11 0 -6 37 10 68 19 39 34 41 34 5z m322 5
c-7 -7 -12 -8 -12 -2 0 14 12 26 19 19 2 -3 -1 -11 -7 -17z m738 12 c0 -5 -5
-10 -11 -10 -5 0 -7 5 -4 10 3 6 8 10 11 10 2 0 4 -4 4 -10z m3224 -15 c-4 -8
-8 -15 -10 -15 -2 0 -4 7 -4 15 0 8 4 15 10 15 5 0 7 -7 4 -15z m240 -1 c13
-35 6 -73 -16 -85 -18 -10 -24 -8 -40 11 -21 26 -23 61 -6 78 17 17 55 15 62
-4z m-3494 -4 c0 -5 -2 -10 -4 -10 -3 0 -8 5 -11 10 -3 6 -1 10 4 10 6 0 11
-4 11 -10z m154 -6 c5 -12 2 -15 -9 -10 -10 3 -18 -1 -22 -11 -4 -9 -2 -18 4
-20 5 -2 18 -10 28 -17 15 -11 12 -14 -31 -31 -27 -10 -57 -24 -66 -32 -23
-20 -54 -13 -50 12 2 11 8 22 13 24 6 1 2 10 -8 18 -17 13 -17 14 4 8 16 -4
25 0 34 17 17 32 41 49 61 44 10 -2 21 0 24 5 7 13 11 11 18 -7z m-1079 -21
c-10 -14 -29 -37 -42 -49 -14 -13 -22 -28 -18 -33 3 -6 2 -11 -3 -11 -6 0 -12
-10 -16 -22 -11 -46 -77 -138 -98 -138 -17 0 -19 4 -13 31 5 22 2 36 -11 50
-13 14 -14 23 -7 30 13 13 35 3 31 -15 -2 -6 0 -13 5 -14 18 -5 27 -1 27 12 0
8 14 26 30 39 17 14 30 34 30 44 0 23 69 103 89 103 10 0 9 -6 -4 -27z m70 17
c3 -5 1 -10 -4 -10 -6 0 -11 5 -11 10 0 6 2 10 4 10 3 0 8 -4 11 -10z m1417
-5 c0 -5 -5 -11 -11 -13 -6 -2 -11 4 -11 13 0 9 5 15 11 13 6 -2 11 -8 11 -13z
m80 3 c-9 -9 -15 -9 -24 0 -9 9 -7 12 12 12 19 0 21 -3 12 -12z m-747 -24 c0
-22 -33 -64 -51 -64 -11 0 -24 21 -24 41 0 5 11 14 25 19 14 5 25 14 25 21 0
6 6 9 12 7 7 -3 13 -13 13 -24z m512 20 c-3 -3 -12 -4 -19 -1 -8 3 -5 6 6 6
11 1 17 -2 13 -5z m83 -4 c0 -5 -4 -10 -9 -10 -6 0 -13 5 -16 10 -3 6 1 10 9
10 9 0 16 -4 16 -10z m-2060 -16 c0 -8 -4 -12 -10 -9 -5 3 -10 10 -10 16 0 5
5 9 10 9 6 0 10 -7 10 -16z m1560 6 c0 -12 -28 -25 -36 -17 -9 9 6 27 22 27 8
0 14 -5 14 -10z m215 -12 c6 -4 2 -8 -7 -8 -10 0 -18 7 -18 17 0 9 3 12 8 7 4
-5 12 -12 17 -16z m555 12 c0 -5 -10 -11 -22 -12 -13 0 -35 -2 -50 -3 -18 -1
-25 2 -21 12 6 15 93 19 93 3z m-1205 -10 c-3 -5 -11 -10 -16 -10 -6 0 -7 5
-4 10 3 6 11 10 16 10 6 0 7 -4 4 -10z m770 -20 c-3 -5 -11 -10 -16 -10 -6 0
-7 5 -4 10 3 6 11 10 16 10 6 0 7 -4 4 -10z m-1860 -32 c-7 -18 -55 -31 -55
-15 0 5 10 18 22 29 23 20 43 12 33 -14z m675 22 c0 -4 -7 -13 -15 -20 -12
-10 -18 -10 -30 0 -8 7 -13 16 -10 20 6 10 55 10 55 0z m853 -30 c-4 -4 -30
-15 -58 -25 -27 -10 -56 -23 -62 -28 -9 -6 -13 -6 -13 2 0 9 35 34 95 68 21
11 54 -3 38 -17z m-1088 10 c3 -6 -1 -13 -10 -16 -19 -8 -30 0 -20 15 8 14 22
14 30 1z m305 7 c0 -2 -11 -17 -25 -33 -14 -16 -25 -32 -25 -36 0 -5 -16 -8
-35 -8 -19 0 -35 5 -35 10 0 6 4 10 9 10 5 0 16 6 23 13 21 21 88 54 88 44z
m540 -12 c-7 -8 -17 -15 -22 -15 -6 0 -5 7 2 15 7 8 17 15 22 15 6 0 5 -7 -2
-15z m697 -21 c-9 -9 -27 6 -27 22 0 13 2 13 16 -1 9 -9 14 -18 11 -21z
m-1377 16 c0 -5 -4 -10 -10 -10 -5 0 -10 5 -10 10 0 6 5 10 10 10 6 0 10 -4
10 -10z m550 -15 c-7 -9 -26 -25 -42 -36 -23 -17 -28 -18 -28 -5 0 8 17 27 37
40 39 27 55 27 33 1z m1035 16 c3 -6 -2 -14 -11 -19 -15 -8 -15 -10 0 -15 38
-15 12 -34 -58 -42 -36 -5 -45 -2 -64 20 -13 15 -17 25 -9 25 7 0 28 9 47 19
38 21 85 27 95 12z m195 0 c0 -15 -55 -23 -97 -14 l-38 7 35 7 c54 10 100 10
100 0z m-656 -17 c4 -9 5 -17 4 -18 -26 -10 -85 -43 -90 -51 -5 -7 -8 -7 -8 0
0 21 32 55 51 55 10 0 19 7 19 15 0 20 16 19 24 -1z m-1574 -3 c0 -12 -20 -25
-27 -18 -7 7 6 27 18 27 5 0 9 -4 9 -9z m1704 -12 c-7 -12 -44 -12 -44 0 0 5
6 11 13 14 17 6 38 -3 31 -14z m-1612 -11 c-7 -7 -12 -8 -12 -2 0 14 12 26 19
19 2 -3 -1 -11 -7 -17z m-245 -20 c-3 -8 -6 -5 -6 6 -1 11 2 17 5 13 3 -3 4
-12 1 -19z m70 -8 c-4 -18 -1 -34 7 -43 17 -16 3 -47 -21 -47 -13 0 -14 8 -9
52 7 52 12 68 23 68 3 0 3 -13 0 -30z m1091 -1 c-22 -16 -27 -26 -22 -45 5
-18 2 -24 -11 -24 -9 0 -25 -10 -35 -22 -26 -33 -36 -15 -11 20 12 17 21 33
21 37 0 20 38 54 60 54 l25 0 -27 -20z m137 9 c-6 -16 -61 -48 -69 -41 -8 8
33 38 71 52 1 1 0 -5 -2 -11z m-965 -8 c0 -6 -7 -13 -16 -17 -8 -3 -13 -12
-10 -20 6 -16 -18 -46 -28 -36 -14 14 -5 53 16 67 26 19 38 20 38 6z m1920
-10 c-20 -13 -57 -13 -44 -1 10 10 46 19 54 14 2 -2 -2 -8 -10 -13z m-1894
-43 c-5 -31 -38 -97 -48 -97 -4 0 -12 10 -19 22 -10 18 -8 24 9 37 12 9 26 29
31 44 12 32 33 27 27 -6z m-239 -59 c-3 -7 -5 -2 -5 12 0 14 2 19 5 13 2 -7 2
-19 0 -25z m1723 22 c0 -5 -9 -10 -20 -10 -11 0 -20 5 -20 10 0 6 9 10 20 10
11 0 20 -4 20 -10z m-265 -10 c-3 -5 -10 -10 -16 -10 -5 0 -9 5 -9 10 0 6 7
10 16 10 8 0 12 -4 9 -10z m145 0 c-20 -13 -43 -13 -35 0 3 6 16 10 28 10 18
0 19 -2 7 -10z m-1640 -21 c0 -6 -4 -7 -10 -4 -5 3 -10 11 -10 16 0 6 5 7 10
4 6 -3 10 -11 10 -16z m1131 -20 c-35 -28 -51 -22 -17 7 15 14 31 22 35 19 3
-4 -5 -15 -18 -26z m-96 1 c-10 -11 -23 -20 -28 -20 -6 0 -2 9 8 20 10 11 23
20 28 20 6 0 2 -9 -8 -20z m219 6 c-10 -8 -21 -12 -24 -10 -5 6 21 24 34 24 6
0 1 -6 -10 -14z m359 -23 c-7 -2 -19 -2 -25 0 -7 3 -2 5 12 5 14 0 19 -2 13
-5z m-1393 -7 c0 -3 -4 -8 -10 -11 -5 -3 -10 -1 -10 4 0 6 5 11 10 11 6 0 10
-2 10 -4z m1224 -5 c9 -14 -113 -73 -130 -63 -12 7 -7 12 23 25 21 10 49 24
63 32 29 17 37 18 44 6z m-204 -41 c-46 -38 -62 -38 -25 0 16 17 36 30 44 30
10 0 3 -11 -19 -30z m3760 14 c0 -8 -4 -12 -10 -9 -5 3 -10 10 -10 16 0 5 5 9
10 9 6 0 10 -7 10 -16z m-3961 -55 c-27 -21 -49 -24 -49 -8 0 6 14 16 30 22
17 6 30 16 31 22 0 5 3 4 6 -4 3 -8 -5 -22 -18 -32z m-206 -67 c-3 -12 -12
-22 -19 -22 -19 0 -18 10 4 30 21 21 23 20 15 -8z"/>
<path d="M8925 9820 c4 -6 11 -8 16 -5 14 9 11 15 -7 15 -8 0 -12 -5 -9 -10z"/>
<path d="M8730 9639 c0 -5 5 -7 10 -4 6 3 10 8 10 11 0 2 -4 4 -10 4 -5 0 -10
-5 -10 -11z"/>
<path d="M8763 9573 c-20 -8 -15 -23 7 -23 11 0 20 7 20 15 0 15 -6 17 -27 8z"/>
<path d="M9128 9463 c7 -3 16 -2 19 1 4 3 -2 6 -13 5 -11 0 -14 -3 -6 -6z"/>
<path d="M9395 9449 c-9 -13 12 -20 40 -13 21 5 25 3 25 -15 0 -16 6 -21 25
-21 25 0 32 15 17 36 -9 13 -100 25 -107 13z"/>
<path d="M8955 9180 c3 -5 13 -10 21 -10 8 0 14 5 14 10 0 6 -9 10 -21 10 -11
0 -17 -4 -14 -10z"/>
<path d="M9655 8720 c3 -5 10 -10 16 -10 5 0 9 5 9 10 0 6 -7 10 -16 10 -8 0
-12 -4 -9 -10z"/>
<path d="M6053 9423 c-16 -6 -17 -29 -3 -38 15 -9 50 4 50 20 0 14 -27 24 -47
18z"/>
<path d="M5960 9410 c0 -5 7 -10 15 -10 8 0 15 5 15 10 0 6 -7 10 -15 10 -8 0
-15 -4 -15 -10z"/>
<path d="M6160 9400 c0 -5 7 -10 15 -10 8 0 15 5 15 10 0 6 -7 10 -15 10 -8 0
-15 -4 -15 -10z"/>
<path d="M6134 9339 c-9 -15 23 -40 42 -32 10 4 12 0 8 -11 -3 -9 -2 -16 2
-16 19 0 94 46 91 55 -5 15 -134 19 -143 4z"/>
<path d="M5850 9260 c-8 -5 -11 -12 -7 -16 4 -4 15 0 24 9 18 18 8 23 -17 7z"/>
<path d="M6097 9211 c-3 -14 -11 -17 -31 -14 -19 4 -26 1 -26 -10 0 -8 12 -17
27 -20 21 -4 33 1 50 19 13 14 23 29 23 35 0 17 -38 9 -43 -10z"/>
<path d="M5717 8501 c-3 -12 -1 -24 4 -27 13 -8 24 25 12 37 -7 7 -12 3 -16
-10z"/>
<path d="M5712 8298 c3 -7 13 -15 22 -16 12 -3 17 1 14 10 -3 7 -13 15 -22 16
-12 3 -17 -1 -14 -10z"/>
<path d="M5741 8242 c-5 -10 -6 -24 -1 -31 11 -19 40 -6 40 18 0 26 -27 35
-39 13z"/>
<path d="M5720 8055 c0 -8 4 -15 10 -15 5 0 7 7 4 15 -4 8 -8 15 -10 15 -2 0
-4 -7 -4 -15z"/>
<path d="M9730 8270 c0 -5 4 -10 9 -10 6 0 13 5 16 10 3 6 -1 10 -9 10 -9 0
-16 -4 -16 -10z"/>
<path d="M5735 6480 c-3 -5 -1 -10 4 -10 6 0 11 5 11 10 0 6 -2 10 -4 10 -3 0
-8 -4 -11 -10z"/>
<path d="M5840 6110 c-17 -4 -25 -13 -26 -28 -1 -19 2 -21 20 -15 11 3 41 12
66 19 27 8 36 13 22 13 -13 1 -31 5 -40 9 -9 5 -28 6 -42 2z"/>
<path d="M5000 5280 c0 -5 5 -10 10 -10 6 0 10 5 10 10 0 6 -4 10 -10 10 -5 0
-10 -4 -10 -10z"/>
<path d="M4835 5211 c-8 -27 -2 -36 19 -24 14 8 14 11 2 28 -13 18 -14 18 -21
-4z"/>
<path d="M4670 5200 c0 -6 7 -10 15 -10 8 0 15 2 15 4 0 2 -7 6 -15 10 -8 3
-15 1 -15 -4z"/>
<path d="M5119 4474 c-11 -30 -3 -46 11 -24 10 16 13 50 5 50 -3 0 -10 -12
-16 -26z"/>
<path d="M5087 4400 c-3 -11 -1 -20 4 -20 5 0 9 2 9 4 0 2 3 11 6 20 3 9 2 16
-4 16 -5 0 -12 -9 -15 -20z"/>
<path d="M5070 4355 c-9 -11 -10 -19 -3 -26 8 -8 13 -5 18 11 4 12 5 24 2 26
-2 2 -10 -3 -17 -11z"/>
<path d="M5790 4209 c0 -11 4 -18 10 -14 5 3 7 12 3 20 -7 21 -13 19 -13 -6z"/>
<path d="M5504 4168 c-4 -6 -2 -14 4 -16 7 -2 12 -10 12 -18 0 -8 5 -14 10
-14 6 0 8 -15 4 -39 -5 -29 -2 -39 9 -44 11 -4 17 5 22 40 6 43 4 49 -24 75
-21 19 -32 24 -37 16z"/>
<path d="M5605 4140 c-3 -10 1 -33 10 -49 8 -17 18 -52 22 -78 3 -27 10 -53
15 -60 5 -6 6 -28 2 -47 -6 -34 -5 -36 21 -36 22 0 25 3 20 20 -14 44 -13 90
1 90 8 0 14 -4 14 -10 0 -5 22 -34 48 -63 26 -29 54 -68 61 -87 28 -75 31 -77
28 -10 -5 84 -50 172 -83 164 -19 -5 -27 5 -57 70 -50 104 -88 140 -102 96z"/>
<path d="M4546 4134 c-4 -11 -13 -14 -27 -11 -17 5 -18 3 -8 -9 18 -22 68 -1
69 29 0 14 -28 7 -34 -9z"/>
<path d="M4790 4134 c0 -8 5 -12 10 -9 6 3 10 10 10 16 0 5 -4 9 -10 9 -5 0
-10 -7 -10 -16z"/>
<path d="M4480 4090 c6 -11 15 -18 21 -14 6 4 6 11 -2 20 -17 21 -31 17 -19
-6z"/>
<path d="M5464 4078 c-4 -6 -7 -31 -7 -55 0 -28 -5 -43 -13 -43 -16 0 -44 27
-44 43 -1 7 -9 -4 -18 -23 -11 -22 -24 -34 -35 -34 -10 1 -24 -10 -32 -27 -23
-44 -47 -28 -43 30 3 42 1 46 -19 47 -20 1 -23 -4 -23 -33 0 -21 10 -47 24
-66 30 -40 31 -48 22 -120 -5 -32 -6 -60 -3 -63 3 -3 16 4 30 16 22 19 24 26
15 52 -7 20 -7 33 0 40 18 18 34 -2 27 -33 -4 -19 -1 -36 12 -53 23 -33 41
-33 49 0 7 27 -1 119 -13 150 -4 12 -2 15 8 12 8 -2 15 -19 17 -37 2 -23 8
-31 20 -29 14 3 17 -8 20 -62 2 -36 8 -68 15 -72 6 -4 12 -15 12 -25 0 -12 9
-18 27 -20 26 -2 26 -1 33 83 6 62 4 93 -5 112 -8 15 -13 31 -11 36 1 5 -7 15
-17 22 -11 7 -22 25 -24 39 -5 24 1 29 30 26 19 -3 14 23 -8 37 -11 7 -20 21
-20 31 0 24 -16 36 -26 19z m-34 -123 c0 -8 -7 -15 -15 -15 -8 0 -15 7 -15 15
0 8 7 15 15 15 8 0 15 -7 15 -15z"/>
<path d="M5786 4083 c-8 -9 -7 -65 2 -79 4 -6 17 -13 29 -16 l23 -6 -20 25
c-13 16 -18 34 -14 48 6 22 -7 41 -20 28z"/>
<path d="M5165 4044 c-13 -21 -23 -25 -44 -21 l-27 6 1 -106 c0 -75 4 -108 13
-111 8 -2 12 9 12 35 0 22 8 48 20 63 11 14 20 37 20 52 0 17 8 31 20 38 11 6
20 17 20 25 0 8 5 15 11 15 8 0 8 5 -1 15 -17 21 -25 19 -45 -11z"/>
<path d="M4815 4040 c-3 -5 1 -10 10 -10 9 0 13 5 10 10 -3 6 -8 10 -10 10 -2
0 -7 -4 -10 -10z"/>
<path d="M4917 4043 c-4 -3 -7 -13 -7 -22 1 -13 3 -13 11 2 11 19 8 33 -4 20z"/>
<path d="M4960 4010 c0 -41 17 -90 32 -90 11 0 10 7 -4 29 -9 15 -9 26 0 45
13 29 6 56 -14 56 -10 0 -14 -12 -14 -40z"/>
<path d="M5017 4033 c-9 -8 -9 -58 -1 -66 13 -13 36 24 30 48 -6 25 -17 31
-29 18z"/>
<path d="M6000 4025 c0 -20 56 -131 70 -140 11 -7 7 25 -10 75 -5 14 -11 37
-14 53 -7 29 -46 40 -46 12z"/>
<path d="M5940 3948 c0 -9 4 -19 9 -22 4 -3 11 -28 15 -55 9 -69 31 -85 33
-23 2 39 -3 53 -27 82 -21 23 -30 29 -30 18z"/>
<path d="M5563 3935 c-4 -12 1 -24 15 -36 12 -9 22 -22 22 -27 0 -11 38 -27
46 -19 8 8 -31 69 -54 85 -20 13 -22 13 -29 -3z"/>
<path d="M5691 3814 c0 -11 3 -14 6 -6 3 7 2 16 -1 19 -3 4 -6 -2 -5 -13z"/>
<path d="M5584 3779 c-15 -25 29 -151 46 -133 5 5 5 28 1 52 -8 41 -1 59 19
47 5 -3 7 0 4 9 -7 19 -61 38 -70 25z"/>
<path d="M5702 3770 c0 -14 2 -19 5 -12 2 6 2 18 0 25 -3 6 -5 1 -5 -13z"/>
<path d="M5721 3714 c0 -11 3 -14 6 -6 3 7 2 16 -1 19 -3 4 -6 -2 -5 -13z"/>
<path d="M6079 3723 c0 -5 -2 -44 -5 -88 -3 -50 -9 -84 -18 -90 -19 -15 -38
-54 -31 -66 9 -14 35 9 35 30 0 10 6 25 13 35 13 18 14 18 21 0 6 -15 9 -16
16 -4 6 10 4 20 -6 31 -11 12 -12 19 -4 24 7 5 9 21 5 46 -4 25 -3 45 5 54 6
8 9 19 5 25 -7 12 -35 14 -36 3z"/>
<path d="M5835 3671 c-3 -5 6 -18 20 -29 29 -23 32 -48 7 -54 -13 -4 -18 0
-18 16 1 11 -6 22 -16 24 -14 3 -16 -6 -13 -55 2 -58 15 -74 26 -31 4 16 12
22 27 21 17 -2 22 4 28 35 4 20 12 40 17 44 18 11 -13 38 -44 38 -15 0 -30 -4
-34 -9z"/>
<path d="M6000 3575 c0 -14 2 -25 4 -25 2 0 6 11 8 25 3 14 1 25 -3 25 -5 0
-9 -11 -9 -25z"/>
<path d="M6188 3544 c-4 -3 -13 -7 -22 -8 -28 -4 -66 -45 -66 -72 0 -14 -7
-32 -15 -40 -17 -18 -20 -34 -5 -34 6 0 10 4 10 8 0 5 9 20 21 33 11 13 32 39
47 56 14 18 34 35 44 39 10 3 18 10 18 15 0 10 -23 12 -32 3z"/>
<path d="M5992 3500 c0 -14 2 -19 5 -12 2 6 2 18 0 25 -3 6 -5 1 -5 -13z"/>
<path d="M5536 3485 c-3 -8 -1 -15 4 -15 6 0 10 7 10 15 0 8 -2 15 -4 15 -2 0
-6 -7 -10 -15z"/>
<path d="M5525 3401 c-3 -5 -1 -12 5 -16 5 -3 10 1 10 9 0 18 -6 21 -15 7z"/>
<path d="M6013 3330 c-40 -45 -53 -70 -35 -70 22 1 94 102 81 114 -2 2 -23
-18 -46 -44z"/>
<path d="M5805 3280 c-3 -5 -1 -10 4 -10 6 0 11 5 11 10 0 6 -2 10 -4 10 -3 0
-8 -4 -11 -10z"/>
<path d="M4940 3245 c-8 -9 -8 -15 -2 -15 12 0 26 19 19 26 -2 2 -10 -2 -17
-11z"/>
<path d="M5715 3242 c-48 -28 -70 -62 -40 -62 8 0 15 5 15 10 0 6 6 10 13 10
14 0 57 41 57 53 0 11 -13 8 -45 -11z"/>
<path d="M4075 3240 c-3 -5 -1 -10 4 -10 6 0 11 5 11 10 0 6 -2 10 -4 10 -3 0
-8 -4 -11 -10z"/>
<path d="M5764 3185 c-17 -13 -17 -14 -2 -15 9 0 20 5 23 11 11 17 0 20 -21 4z"/>
<path d="M4836 3144 c-21 -24 -36 -48 -31 -52 7 -7 85 74 85 89 0 17 -15 7
-54 -37z"/>
<path d="M5863 3133 c-9 -16 -23 -34 -32 -41 -12 -9 -12 -15 -3 -24 20 -20 14
-35 -17 -41 -16 -4 -41 -17 -56 -30 -55 -49 -65 -57 -79 -57 -7 0 -19 -6 -25
-14 -16 -20 10 -39 43 -30 20 5 26 2 26 -10 0 -20 -34 -38 -57 -29 -16 6 -16
5 -5 -10 8 -9 11 -21 7 -28 -5 -8 -1 -9 16 -4 31 10 79 44 79 56 0 5 5 9 11 9
7 0 43 18 81 40 39 22 76 40 83 40 7 0 15 9 18 20 3 11 1 20 -4 20 -14 0 -161
-70 -190 -91 l-26 -18 5 24 c3 17 13 27 31 31 14 4 36 16 49 28 13 11 46 32
75 46 28 14 52 31 55 38 5 16 -30 16 -46 0 -20 -20 -14 7 9 36 11 14 16 26 10
26 -5 0 -13 9 -16 20 -9 27 -21 25 -42 -7z"/>
<path d="M5076 3111 c-4 -7 -5 -15 -2 -18 9 -9 19 4 14 18 -4 11 -6 11 -12 0z"/>
<path d="M5130 3070 c0 -5 5 -10 11 -10 5 0 7 5 4 10 -3 6 -8 10 -11 10 -2 0
-4 -4 -4 -10z"/>
<path d="M5752 3060 c-12 -19 -47 -39 -82 -46 -8 -2 -33 -12 -55 -24 -23 -12
-43 -16 -48 -11 -12 12 0 31 21 31 12 0 17 9 18 30 1 19 -3 27 -10 23 -42 -25
-67 -51 -80 -84 -11 -26 -24 -41 -41 -45 -14 -3 -25 -10 -25 -15 0 -5 -7 -9
-15 -9 -31 0 -13 -15 20 -17 25 -1 35 2 35 13 0 11 4 12 19 2 15 -9 24 -8 48
7 46 32 106 62 136 69 17 4 31 16 37 31 5 14 21 30 35 35 15 6 23 14 20 20 -9
15 -19 12 -33 -10z m-202 -108 c0 -4 -9 -13 -20 -20 -22 -13 -27 -3 -8 16 14
14 28 16 28 4z"/>
<path d="M4931 3014 c-39 -33 -41 -53 -2 -22 26 20 47 48 36 48 -2 0 -17 -12
-34 -26z"/>
<path d="M5080 3005 c-13 -14 -20 -25 -16 -25 12 0 56 32 56 41 0 16 -16 10
-40 -16z"/>
<path d="M5893 2912 c-41 -26 -72 -66 -61 -78 4 -3 16 4 27 15 12 12 23 21 26
21 14 0 65 45 65 57 0 19 -10 16 -57 -15z"/>
<path d="M5126 2905 c-16 -12 -17 -15 -4 -15 8 0 21 7 28 15 16 19 1 19 -24 0z"/>
<path d="M5150 2852 c-27 -25 -41 -45 -38 -58 2 -16 13 -9 60 39 44 43 53 57
38 57 -10 0 -38 -17 -60 -38z"/>
<path d="M5528 2853 c7 -3 16 -2 19 1 4 3 -2 6 -13 5 -11 0 -14 -3 -6 -6z"/>
<path d="M5582 2834 c-4 -6 -21 -19 -39 -29 -31 -18 -35 -35 -8 -35 17 0 105
58 105 70 0 12 -51 7 -58 -6z"/>
<path d="M4875 2830 c-3 -6 1 -7 9 -4 18 7 21 14 7 14 -6 0 -13 -4 -16 -10z"/>
<path d="M5419 2793 c-13 -16 -12 -17 4 -4 16 13 21 21 13 21 -2 0 -10 -8 -17
-17z"/>
<path d="M4485 2759 c-4 -6 -5 -13 -2 -16 7 -7 27 6 27 18 0 12 -17 12 -25 -2z"/>
<path d="M5911 2725 c-15 -15 -21 -29 -17 -40 8 -21 28 -15 32 9 1 10 7 23 13
29 13 13 14 27 4 26 -5 0 -19 -11 -32 -24z"/>
<path d="M5043 2702 c-23 -20 -44 -46 -47 -57 -4 -14 12 -4 49 31 30 29 55 55
55 58 0 14 -17 4 -57 -32z"/>
<path d="M4953 2627 c4 -10 2 -28 -4 -40 -12 -22 -12 -22 10 -3 17 16 19 22 9
35 -20 26 -22 27 -15 8z"/>
<path d="M5368 2622 c-21 -2 -38 -7 -38 -12 0 -5 -13 -16 -30 -25 -36 -19 -39
-40 -5 -43 24 -2 59 33 49 50 -3 4 8 8 25 8 16 0 33 5 36 11 9 14 6 15 -37 11z"/>
<path d="M4915 2611 c-3 -5 -1 -12 4 -15 5 -3 11 1 15 9 6 16 -9 21 -19 6z"/>
<path d="M5220 2573 c-14 -25 -24 -33 -29 -24 -8 13 -54 1 -65 -17 -8 -13 3
-42 16 -42 5 0 7 4 3 9 -3 5 -1 12 5 16 5 3 10 -1 10 -9 0 -9 6 -16 13 -16 8
0 7 -4 -3 -10 -25 -16 7 -12 40 5 39 20 39 39 1 30 -17 -3 -32 -2 -36 4 -3 6
2 11 12 11 27 1 49 21 57 53 9 37 2 34 -24 -10z"/>
<path d="M5135 2590 c-3 -5 -2 -10 4 -10 5 0 13 5 16 10 3 6 2 10 -4 10 -5 0
-13 -4 -16 -10z"/>
<path d="M4900 2505 c0 -8 5 -15 10 -15 6 0 10 7 10 15 0 8 -4 15 -10 15 -5 0
-10 -7 -10 -15z"/>
<path d="M5345 2500 c-3 -5 -1 -10 4 -10 6 0 11 5 11 10 0 6 -2 10 -4 10 -3 0
-8 -4 -11 -10z"/>
<path d="M4860 2470 c0 -5 5 -10 11 -10 5 0 7 5 4 10 -3 6 -8 10 -11 10 -2 0
-4 -4 -4 -10z"/>
<path d="M5107 2473 c-10 -9 -9 -23 1 -23 5 0 9 7 9 15 0 17 -1 18 -10 8z"/>
<path d="M4999 2443 c-19 -15 -36 -28 -38 -29 -1 -2 0 -7 4 -13 4 -7 20 3 42
24 44 43 38 56 -8 18z"/>
<path d="M5050 2409 c0 -5 5 -7 10 -4 6 3 10 8 10 11 0 2 -4 4 -10 4 -5 0 -10
-5 -10 -11z"/>
<path d="M5245 2349 c-11 -17 0 -20 21 -4 17 13 17 14 2 15 -9 0 -20 -5 -23
-11z"/>
<path d="M4616 2328 c-17 -24 -21 -48 -8 -48 8 0 16 14 40 63 9 17 -18 5 -32
-15z"/>
<path d="M5137 2333 c-4 -3 -7 -11 -7 -17 0 -6 5 -5 12 2 6 6 9 14 7 17 -3 3
-9 2 -12 -2z"/>
<path d="M5180 2270 c0 -5 5 -10 11 -10 5 0 7 5 4 10 -3 6 -8 10 -11 10 -2 0
-4 -4 -4 -10z"/>
<path d="M5059 2257 c-8 -7 -18 -20 -22 -30 -6 -16 -4 -16 23 3 16 11 32 25
35 30 9 14 -17 12 -36 -3z"/>
<path d="M4740 2199 c0 -5 5 -7 10 -4 6 3 10 8 10 11 0 2 -4 4 -10 4 -5 0 -10
-5 -10 -11z"/>
<path d="M5200 2200 c0 -5 5 -10 10 -10 6 0 10 5 10 10 0 6 -4 10 -10 10 -5 0
-10 -4 -10 -10z"/>
<path d="M3823 2173 c-18 -7 -16 -43 2 -43 9 0 15 9 15 25 0 14 -1 25 -2 24
-2 0 -9 -3 -15 -6z"/>
<path d="M5082 2160 c-14 -11 -22 -28 -20 -39 3 -20 5 -19 45 7 24 15 43 33
43 40 0 18 -42 14 -68 -8z"/>
<path d="M4880 2159 c0 -5 5 -7 10 -4 6 3 10 8 10 11 0 2 -4 4 -10 4 -5 0 -10
-5 -10 -11z"/>
<path d="M4821 2115 c-17 -15 -31 -35 -31 -45 0 -11 -8 -20 -22 -22 -12 -2
-23 -9 -26 -16 -3 -9 7 -12 33 -10 20 1 39 6 41 10 3 5 24 18 47 29 62 32 85
59 49 59 -9 0 -26 -11 -36 -25 -10 -14 -27 -25 -38 -25 -19 0 -18 1 2 31 29
40 20 46 -19 14z"/>
<path d="M4965 2119 c-4 -6 -5 -13 -2 -16 7 -7 27 6 27 18 0 12 -17 12 -25 -2z"/>
<path d="M4736 2104 c-9 -24 -7 -28 9 -14 17 14 20 30 6 30 -5 0 -12 -7 -15
-16z"/>
<path d="M5283 2081 c-18 -9 -33 -22 -33 -28 0 -19 16 -16 55 10 57 36 41 50
-22 18z"/>
<path d="M5050 2035 c-10 -12 -9 -15 8 -15 11 0 25 7 32 15 10 12 9 15 -8 15
-11 0 -25 -7 -32 -15z"/>
<path d="M4720 1999 c0 -5 5 -7 10 -4 6 3 10 8 10 11 0 2 -4 4 -10 4 -5 0 -10
-5 -10 -11z"/>
<path d="M4925 2000 c-4 -6 -15 -8 -25 -5 -20 6 -46 -27 -35 -45 10 -16 19
-12 61 25 27 24 34 35 22 35 -9 0 -20 -5 -23 -10z"/>
<path d="M5335 2000 c-3 -6 1 -7 9 -4 18 7 21 14 7 14 -6 0 -13 -4 -16 -10z"/>
<path d="M5618 1973 c-28 -7 -21 -21 7 -15 14 2 22 8 19 13 -3 5 -6 8 -7 8 -1
-1 -10 -3 -19 -6z"/>
<path d="M4765 1950 c-3 -5 -1 -10 4 -10 6 0 11 5 11 10 0 6 -2 10 -4 10 -3 0
-8 -4 -11 -10z"/>
<path d="M4701 1917 c-21 -23 -29 -57 -13 -57 12 0 52 44 52 58 0 22 -17 21
-39 -1z"/>
<path d="M5467 1919 c-9 -6 -21 -8 -26 -5 -4 3 -27 -11 -50 -32 -30 -27 -40
-43 -35 -55 5 -14 16 -9 68 35 33 29 63 53 65 55 12 9 -7 10 -22 2z"/>
<path d="M4995 1910 c-3 -5 -1 -10 4 -10 6 0 11 5 11 10 0 6 -2 10 -4 10 -3 0
-8 -4 -11 -10z"/>
<path d="M4947 1855 c-15 -19 -23 -35 -16 -35 14 0 59 47 59 61 0 18 -15 9
-43 -26z"/>
<path d="M5310 1869 c-31 -43 -92 -99 -109 -99 -17 0 -61 -39 -61 -53 0 -14
19 -7 44 16 13 12 34 23 47 24 26 2 59 32 63 56 1 9 12 28 24 42 12 14 22 27
22 30 0 12 -17 3 -30 -16z"/>
<path d="M4485 1860 c-3 -5 -1 -10 4 -10 6 0 11 5 11 10 0 6 -2 10 -4 10 -3 0
-8 -4 -11 -10z"/>
<path d="M5755 1857 c-13 -11 -15 -16 -6 -22 8 -4 21 1 34 14 17 16 18 21 6
21 -8 0 -23 -6 -34 -13z"/>
<path d="M4629 1843 c-1 -5 -1 -12 0 -17 1 -5 -5 -6 -13 -3 -9 4 -16 -3 -19
-19 -6 -35 18 -30 37 8 9 17 16 33 16 35 0 7 -20 3 -21 -4z"/>
<path d="M4260 1765 c0 -8 -4 -15 -9 -15 -5 0 -11 -7 -14 -14 -8 -21 21 -8 33
15 13 23 13 29 0 29 -5 0 -10 -7 -10 -15z"/>
<path d="M4333 1768 c-22 -29 -24 -41 -3 -20 12 13 20 25 17 28 -2 2 -9 -1
-14 -8z"/>
<path d="M5578 1756 c-35 -19 -52 -56 -27 -56 17 0 52 22 71 44 34 42 16 47
-44 12z"/>
<path d="M6090 1720 c-22 -14 0 -44 34 -48 30 -4 32 4 10 36 -17 24 -22 26
-44 12z"/>
<path d="M4477 1671 c-9 -16 -17 -33 -17 -38 0 -10 49 49 50 60 0 17 -17 5
-33 -22z"/>
<path d="M5120 1685 c0 -8 5 -15 10 -15 6 0 10 7 10 15 0 8 -4 15 -10 15 -5 0
-10 -7 -10 -15z"/>
<path d="M4980 1675 c0 -8 8 -15 19 -15 10 0 24 7 31 15 11 13 8 15 -19 15
-21 0 -31 -5 -31 -15z"/>
<path d="M5270 1671 c0 -5 -10 -13 -21 -16 -12 -4 -37 -16 -57 -28 -31 -18
-33 -22 -16 -28 12 -4 23 -1 31 8 6 8 26 23 44 32 33 18 50 41 30 41 -6 0 -11
-4 -11 -9z"/>
<path d="M5700 1670 c-9 -6 -10 -10 -3 -10 6 0 15 5 18 10 8 12 4 12 -15 0z"/>
<path d="M6176 1665 c4 -9 13 -15 21 -13 23 5 20 23 -4 26 -18 3 -21 0 -17
-13z"/>
<path d="M6263 1653 c-18 -7 -16 -23 2 -23 8 0 15 -9 15 -20 0 -40 31 -17 38
28 2 17 -2 22 -20 21 -13 0 -29 -3 -35 -6z"/>
<path d="M5390 1640 c0 -5 7 -10 15 -10 8 0 15 5 15 10 0 6 -7 10 -15 10 -8 0
-15 -4 -15 -10z"/>
<path d="M4960 1633 c-16 -7 -39 -33 -40 -45 0 -15 20 -8 45 14 36 31 33 45
-5 31z"/>
<path d="M5131 1631 c-11 -7 -11 -13 3 -32 l16 -23 0 32 c0 36 0 35 -19 23z"/>
<path d="M6063 1618 c2 -7 16 -13 32 -13 16 0 30 6 33 13 2 8 -8 12 -33 12
-25 0 -35 -4 -32 -12z"/>
<path d="M5543 1561 c-18 -16 -33 -34 -33 -40 0 -6 -4 -11 -10 -11 -5 0 -10
-6 -10 -13 0 -14 -48 -76 -87 -112 -67 -62 -152 -138 -177 -158 -18 -15 -25
-26 -18 -30 6 -4 17 0 25 8 9 8 20 15 25 15 5 0 29 19 53 43 45 43 49 44 146
38 32 -2 18 -31 -16 -31 -14 0 -35 -7 -45 -15 -17 -13 -17 -15 -3 -15 48 0
-72 -96 -129 -103 -32 -5 -84 -27 -84 -37 0 -3 -8 -15 -17 -26 -50 -55 -50
-56 -7 -49 21 4 51 15 66 26 33 23 45 25 28 4 -10 -12 -10 -15 3 -15 23 0 167
139 167 161 0 22 31 56 57 61 10 2 17 10 16 16 -2 7 3 12 11 12 8 0 26 14 39
30 14 17 30 30 36 30 6 0 11 7 11 16 0 12 -9 8 -36 -16 -20 -17 -38 -29 -41
-26 -7 7 7 44 23 61 28 27 -11 18 -46 -11 -17 -15 -34 -24 -37 -20 -3 3 -12 1
-20 -5 -9 -9 -13 -8 -13 0 0 6 3 11 8 11 4 0 12 10 17 23 6 12 18 22 27 22 25
0 64 45 48 55 -7 5 -9 16 -5 29 5 16 12 20 27 15 14 -4 18 -2 14 5 -4 6 4 16
19 23 16 7 24 17 20 26 -3 7 -5 18 -5 23 0 16 -14 10 -47 -20z"/>
<path d="M5745 1580 c-3 -5 -4 -14 -1 -19 4 -5 0 -11 -6 -14 -7 -2 -10 -8 -6
-12 8 -8 68 13 68 24 0 23 -43 40 -55 21z"/>
<path d="M5932 1576 c-19 -6 -39 -21 -45 -31 -14 -27 -35 -38 -77 -42 -69 -7
-210 -83 -210 -115 0 -4 9 -8 21 -8 11 0 18 4 15 9 -9 14 14 26 84 46 36 10
69 22 75 27 15 13 35 9 35 -7 0 -8 7 -15 16 -15 26 0 114 54 114 70 0 11 -3
11 -12 2 -7 -7 -22 -12 -34 -12 -13 0 -26 -4 -29 -10 -3 -5 -14 -10 -23 -9
-16 0 -15 1 1 12 20 14 113 97 106 96 -2 0 -19 -6 -37 -13z"/>
<path d="M4595 1561 c-3 -5 -1 -12 5 -16 5 -3 10 1 10 9 0 18 -6 21 -15 7z"/>
<path d="M5038 1563 c-10 -2 -18 -10 -18 -18 0 -7 -9 -15 -20 -18 -11 -3 -20
-10 -20 -16 0 -17 40 -13 47 5 3 8 16 20 29 25 44 16 28 34 -18 22z"/>
<path d="M5649 1551 c-20 -16 -22 -22 -11 -33 10 -10 16 -10 30 0 9 7 27 17
40 22 13 5 20 14 17 20 -10 16 -51 11 -76 -9z"/>
<path d="M4517 1542 c-18 -20 -22 -42 -8 -42 8 0 41 43 41 55 0 11 -18 4 -33
-13z"/>
<path d="M5266 1541 c-9 -9 -13 -21 -9 -24 3 -4 2 -7 -4 -7 -6 0 -30 -16 -54
-35 -31 -24 -50 -33 -66 -29 -13 4 -23 2 -23 -5 0 -16 34 -30 51 -21 30 17
139 129 130 134 -4 3 -16 -3 -25 -13z"/>
<path d="M5343 1540 c-38 -17 -41 -26 -13 -33 22 -6 69 29 54 41 -5 4 -24 1
-41 -8z"/>
<path d="M5440 1550 c0 -5 6 -10 14 -10 8 0 18 5 21 10 3 6 -3 10 -14 10 -12
0 -21 -4 -21 -10z"/>
<path d="M6080 1553 c-37 -5 -60 -19 -60 -35 0 -6 15 -8 38 -4 20 4 56 9 80
12 23 4 42 10 42 15 0 5 -6 9 -12 9 -7 0 -22 2 -33 4 -11 2 -36 1 -55 -1z"/>
<path d="M4839 1537 c-8 -8 -21 -16 -29 -20 -13 -5 -13 -6 1 -6 19 -1 56 25
48 34 -4 3 -13 0 -20 -8z"/>
<path d="M5975 1540 c3 -5 8 -10 11 -10 2 0 4 5 4 10 0 6 -5 10 -11 10 -5 0
-7 -4 -4 -10z"/>
<path d="M4345 1507 c-4 -10 -3 -23 4 -30 16 -16 23 -3 12 24 -8 22 -10 22
-16 6z"/>
<path d="M6275 1510 c-3 -5 1 -10 10 -10 9 0 13 5 10 10 -3 6 -8 10 -10 10 -2
0 -7 -4 -10 -10z"/>
<path d="M6067 1484 c-9 -9 2 -24 17 -24 7 0 21 7 32 15 18 14 17 14 -12 15
-17 0 -34 -3 -37 -6z"/>
<path d="M4825 1442 l-30 -37 34 26 c19 14 37 31 39 37 7 23 -13 10 -43 -26z"/>
<path d="M4540 1420 c-6 -12 -9 -24 -7 -27 3 -2 11 5 17 17 6 12 9 24 7 27 -3
2 -11 -5 -17 -17z"/>
<path d="M5871 1420 c-47 -26 -58 -38 -40 -45 8 -3 32 4 54 15 21 11 45 20 53
20 21 0 8 25 -14 26 -10 1 -34 -6 -53 -16z"/>
<path d="M5986 1414 c-3 -9 -6 -20 -6 -25 0 -14 44 -11 66 6 19 14 19 14 -3
15 -12 0 -25 5 -28 10 -9 15 -22 12 -29 -6z"/>
<path d="M4598 1397 c-28 -23 -37 -47 -18 -47 6 0 10 5 10 10 0 6 11 22 25 35
30 31 19 32 -17 2z"/>
<path d="M4942 1403 c-19 -9 -45 -34 -58 -55 -27 -42 -28 -48 -14 -48 6 0 10
6 10 13 0 24 72 61 80 41 4 -10 12 -8 35 10 17 13 27 28 22 32 -4 4 -13 2 -19
-4 -7 -7 -16 -12 -22 -12 -6 0 -5 5 2 12 13 13 16 28 5 28 -5 0 -23 -8 -41
-17z"/>
<path d="M6095 1409 c-15 -23 24 -39 53 -20 10 6 6 11 -17 19 -19 7 -33 7 -36
1z"/>
<path d="M4667 1358 c-9 -23 -15 -44 -12 -46 9 -9 35 20 35 39 0 10 5 21 10
24 14 9 12 25 -3 25 -8 0 -21 -19 -30 -42z"/>
<path d="M5231 1379 c-22 -13 -42 -18 -60 -14 -19 4 -36 -1 -60 -19 -28 -21
-30 -25 -12 -23 11 1 21 5 21 9 0 4 7 5 15 2 8 -4 22 -1 29 5 8 7 25 9 38 6
18 -5 30 1 53 25 33 35 24 39 -24 9z"/>
<path d="M5675 1375 c-34 -27 -19 -33 26 -10 16 9 27 20 24 25 -9 15 -17 12
-50 -15z"/>
<path d="M6220 1359 c0 -5 5 -7 10 -4 6 3 10 8 10 11 0 2 -4 4 -10 4 -5 0 -10
-5 -10 -11z"/>
<path d="M5738 1316 c-24 -24 -50 -56 -58 -72 -29 -56 -104 -134 -129 -134
-25 0 -85 -24 -106 -43 -12 -11 -32 -16 -55 -15 -30 3 -35 0 -38 -20 -3 -16
-8 -22 -19 -18 -19 8 -55 -12 -47 -26 8 -12 -35 -51 -75 -68 -26 -10 -58 -56
-47 -67 7 -7 50 21 75 50 13 15 32 27 43 27 10 0 21 7 24 15 4 8 10 15 15 15
5 0 9 -7 9 -15 0 -8 -4 -15 -10 -15 -5 0 -10 -6 -10 -14 0 -8 -7 -16 -15 -20
-19 -7 -20 -26 0 -26 22 0 87 61 81 76 -3 9 16 30 47 55 29 22 59 46 68 53 13
11 21 11 39 1 15 -8 19 -15 11 -19 -6 -4 -15 -4 -21 -1 -5 3 -10 -1 -10 -9 0
-8 -8 -19 -17 -25 -10 -5 -14 -13 -10 -17 8 -8 76 21 78 33 1 5 3 18 4 30 3
29 114 153 137 153 13 0 18 8 18 26 0 28 40 74 64 74 7 0 21 9 32 21 16 17 16
22 4 29 -26 16 -38 11 -82 -34z"/>
<path d="M5910 1349 c0 -5 5 -7 10 -4 6 3 10 8 10 11 0 2 -4 4 -10 4 -5 0 -10
-5 -10 -11z"/>
<path d="M6280 1351 c0 -11 21 -19 38 -14 21 8 13 23 -13 23 -14 0 -25 -4 -25
-9z"/>
<path d="M4505 1341 c-3 -5 -1 -12 5 -16 5 -3 10 1 10 9 0 18 -6 21 -15 7z"/>
<path d="M6010 1331 c-8 -5 -33 -17 -55 -26 -22 -10 -54 -28 -72 -41 -17 -13
-43 -24 -57 -24 -19 0 -26 -5 -26 -19 0 -17 7 -20 43 -19 23 0 50 7 60 16 13
12 20 13 29 4 21 -21 42 -12 77 33 35 44 55 55 103 55 15 0 29 4 32 9 3 5 -11
9 -32 9 -20 0 -48 2 -62 6 -14 3 -32 2 -40 -3z"/>
<path d="M4717 1290 c-27 -32 -43 -82 -31 -101 8 -14 24 8 24 35 0 10 11 27
25 38 14 11 30 28 35 39 18 32 -24 24 -53 -11z"/>
<path d="M5202 1289 c-12 -19 -11 -19 8 -9 11 6 20 15 20 20 0 17 -15 11 -28
-11z"/>
<path d="M4478 1278 c-10 -15 -14 -29 -9 -32 13 -8 33 20 29 41 -3 14 -6 12
-20 -9z"/>
<path d="M5840 1290 c0 -5 5 -10 10 -10 6 0 10 5 10 10 0 6 -4 10 -10 10 -5 0
-10 -4 -10 -10z"/>
<path d="M4847 1283 c-4 -3 -7 -13 -7 -22 1 -13 3 -13 11 2 11 19 8 33 -4 20z"/>
<path d="M5010 1280 c0 -5 7 -10 15 -10 8 0 15 5 15 10 0 6 -7 10 -15 10 -8 0
-15 -4 -15 -10z"/>
<path d="M5575 1260 c-16 -11 -36 -18 -43 -15 -20 8 -116 -71 -106 -86 5 -8
67 27 105 58 8 7 28 13 42 13 15 0 27 4 27 10 0 5 12 16 28 24 l27 15 -25 1
c-14 0 -38 -9 -55 -20z"/>
<path d="M4988 1201 c-48 -16 -58 -34 -22 -39 10 -1 35 11 54 27 39 34 36 35
-32 12z"/>
<path d="M5165 1210 c-3 -5 -1 -10 4 -10 6 0 11 5 11 10 0 6 -2 10 -4 10 -3 0
-8 -4 -11 -10z"/>
<path d="M5290 1195 c-13 -14 -19 -25 -14 -25 14 0 54 30 54 41 0 16 -16 10
-40 -16z"/>
<path d="M4905 1200 c-3 -5 -1 -10 4 -10 6 0 11 5 11 10 0 6 -2 10 -4 10 -3 0
-8 -4 -11 -10z"/>
<path d="M5119 1173 c-13 -17 -13 -17 6 -3 11 8 22 16 24 17 2 2 0 3 -6 3 -6
0 -17 -8 -24 -17z"/>
<path d="M5156 1163 c-3 -10 -9 -25 -12 -33 -5 -10 0 -9 15 4 21 19 29 46 12
46 -5 0 -11 -8 -15 -17z"/>
<path d="M4735 1160 c-3 -5 -2 -10 4 -10 5 0 13 5 16 10 3 6 2 10 -4 10 -5 0
-13 -4 -16 -10z"/>
<path d="M5802 1140 c-18 -11 -35 -27 -39 -36 -4 -12 -14 -14 -46 -9 -28 5
-38 4 -33 -4 4 -6 14 -11 22 -11 10 0 13 -7 8 -25 -3 -14 -2 -25 3 -25 12 0
43 33 43 45 0 9 31 34 43 35 5 0 5 -4 2 -10 -15 -23 34 -7 60 20 21 22 25 30
13 30 -9 0 -22 2 -30 5 -7 3 -28 -4 -46 -15z"/>
<path d="M4985 1104 c-27 -35 -27 -36 -4 -23 36 19 63 59 40 59 -5 0 -21 -16
-36 -36z"/>
<path d="M5623 1084 c-29 -32 -29 -50 -1 -57 45 -12 70 21 48 64 -14 25 -20
24 -47 -7z m47 -18 c0 -17 -27 -29 -35 -16 -4 6 -3 15 0 20 9 15 35 12 35 -4z"/>
<path d="M5570 1010 c0 -11 4 -20 9 -20 11 0 22 26 14 34 -12 12 -23 5 -23
-14z"/>
<path d="M4852 960 c-38 -51 -27 -66 22 -27 20 16 27 29 23 40 -9 24 -20 21
-45 -13z"/>
<path d="M5450 971 c0 -5 -9 -13 -20 -16 -11 -3 -20 -11 -20 -16 0 -14 12 -11
39 10 16 12 20 21 12 25 -6 4 -11 3 -11 -3z"/>
<path d="M5671 907 c-11 -14 -6 -27 10 -27 5 0 13 9 19 20 8 16 8 20 -3 20 -8
0 -20 -6 -26 -13z"/>
<path d="M6065 740 c-3 -5 -2 -10 4 -10 5 0 13 5 16 10 3 6 2 10 -4 10 -5 0
-13 -4 -16 -10z"/>
<path d="M6690 10350 c0 -5 9 -10 20 -10 11 0 20 5 20 10 0 6 -9 10 -20 10
-11 0 -20 -4 -20 -10z"/>
<path d="M9757 7749 c7 -7 15 -10 18 -7 3 3 -2 9 -12 12 -14 6 -15 5 -6 -5z"/>
<path d="M9800 7741 c0 -12 5 -21 10 -21 6 0 10 6 10 14 0 8 -4 18 -10 21 -5
3 -10 -3 -10 -14z"/>
<path d="M9800 7581 c-11 -22 2 -71 20 -71 13 0 13 13 -2 45 -10 22 -9 28 3
36 9 6 10 9 2 9 -7 0 -17 -9 -23 -19z"/>
<path d="M9810 7340 c0 -5 7 -10 15 -10 8 0 15 5 15 10 0 6 -7 10 -15 10 -8 0
-15 -4 -15 -10z"/>
<path d="M9832 7099 c2 -6 8 -10 13 -10 5 0 11 4 13 10 2 6 -4 11 -13 11 -9 0
-15 -5 -13 -11z"/>
<path d="M9688 6953 c7 -3 16 -2 19 1 4 3 -2 6 -13 5 -11 0 -14 -3 -6 -6z"/>
<path d="M9660 6920 c0 -5 10 -10 23 -10 18 0 19 2 7 10 -19 13 -30 13 -30 0z"/>
<path d="M9728 6923 c-6 -11 30 -44 36 -34 3 5 -3 16 -13 25 -11 10 -21 14
-23 9z"/>
<path d="M5310 6316 c0 -9 7 -16 16 -16 9 0 14 5 12 12 -6 18 -28 21 -28 4z"/>
<path d="M9535 5710 c3 -5 8 -10 11 -10 2 0 4 5 4 10 0 6 -5 10 -11 10 -5 0
-7 -4 -4 -10z"/>
<path d="M9402 5558 c-18 -18 -14 -38 8 -38 13 0 20 7 20 19 0 25 -13 34 -28
19z"/>
<path d="M9143 5455 c-9 -24 1 -27 15 -5 8 13 8 20 2 20 -6 0 -13 -7 -17 -15z"/>
<path d="M8790 5266 c0 -14 4 -27 8 -30 5 -3 9 8 9 24 0 17 -4 30 -9 30 -4 0
-8 -11 -8 -24z"/>
<path d="M4260 5040 c0 -5 5 -10 10 -10 6 0 10 5 10 10 0 6 -4 10 -10 10 -5 0
-10 -4 -10 -10z"/>
<path d="M9044 4536 c-9 -24 12 -44 28 -28 10 10 8 16 -5 29 -15 15 -17 15
-23 -1z"/>
<path d="M9278 4333 c-16 -2 -28 -9 -28 -15 0 -11 -41 -7 -72 7 -15 6 -18 2
-18 -23 0 -34 18 -82 32 -82 4 0 8 4 8 9 0 5 11 11 23 15 13 3 32 18 43 32 10
15 27 35 37 46 9 10 14 17 10 17 -5 -1 -20 -4 -35 -6z"/>
<path d="M9127 4211 c-3 -12 -1 -24 4 -27 13 -8 24 25 12 37 -7 7 -12 3 -16
-10z"/>
<path d="M3326 3515 c-3 -9 0 -15 9 -15 16 0 20 16 6 24 -5 3 -11 -1 -15 -9z"/>
<path d="M2825 3290 c3 -5 17 -10 31 -10 13 0 24 5 24 10 0 6 -14 10 -31 10
-17 0 -28 -4 -24 -10z"/>
<path d="M2973 3234 c-5 -10 -9 -35 -9 -54 1 -26 -8 -44 -38 -77 -22 -24 -45
-43 -53 -43 -7 0 -16 -7 -19 -15 -4 -8 -12 -15 -19 -15 -19 0 -65 -44 -65 -62
0 -29 37 -42 66 -23 20 13 28 14 40 4 12 -10 17 -8 28 6 15 20 41 11 32 -11
-7 -18 23 -34 59 -31 22 2 30 -3 37 -25 7 -21 6 -32 -6 -44 -24 -23 -20 -43 7
-39 82 14 152 50 126 65 -19 12 -2 40 24 40 14 0 30 7 37 15 7 8 18 15 25 15
7 0 24 11 39 25 33 30 41 31 68 5 28 -26 38 -25 38 1 0 15 -5 19 -15 15 -24
-9 -17 21 10 42 14 11 25 24 25 30 0 5 7 12 15 16 10 3 15 -1 15 -12 0 -14 2
-15 10 -2 6 9 5 17 -2 21 -9 6 -8 12 1 23 21 25 -53 15 -84 -12 -22 -19 -95
-51 -117 -52 -12 0 -9 38 3 45 6 4 8 13 5 21 -3 8 4 22 15 33 13 12 21 33 22
62 2 43 2 44 -28 41 -16 -2 -37 -10 -46 -18 -10 -9 -38 -14 -76 -14 -33 0 -77
-7 -96 -15 -41 -17 -59 -19 -37 -5 10 7 12 12 4 18 -6 4 -15 16 -21 26 -10 19
-11 19 -20 0z m164 -360 c-3 -3 -12 -4 -19 -1 -8 3 -5 6 6 6 11 1 17 -2 13 -5z"/>
<path d="M2785 3120 c-3 -5 -1 -10 4 -10 6 0 11 5 11 10 0 6 -2 10 -4 10 -3 0
-8 -4 -11 -10z"/>
<path d="M2701 3072 c-6 -10 -11 -12 -11 -4 0 21 -30 13 -39 -10 -12 -31 -8
-35 33 -30 22 3 36 10 36 18 0 8 5 14 10 14 15 0 12 17 -5 24 -8 3 -19 -2 -24
-12z"/>
<path d="M3410 3030 c-15 -28 -4 -39 17 -17 13 12 14 20 6 28 -8 8 -14 5 -23
-11z"/>
<path d="M8490 2936 c0 -9 5 -16 10 -16 6 0 10 4 10 9 0 6 -4 13 -10 16 -5 3
-10 -1 -10 -9z"/>
<path d="M3307 2883 c-11 -11 -8 -20 9 -27 23 -9 37 3 23 20 -13 15 -22 18
-32 7z"/>
<path d="M3237 2833 c-7 -41 3 -67 14 -37 11 27 11 74 0 74 -4 0 -11 -16 -14
-37z"/>
<path d="M3358 2837 c-15 -18 -28 -40 -28 -50 0 -27 34 -17 38 11 2 12 10 22
18 22 8 0 14 10 14 25 0 33 -9 31 -42 -8z"/>
<path d="M8466 2835 c4 -8 8 -15 10 -15 2 0 4 7 4 15 0 8 -4 15 -10 15 -5 0
-7 -7 -4 -15z"/>
<path d="M3376 2763 c-4 -5 -14 -23 -21 -40 -8 -18 -19 -33 -24 -33 -6 0 -11
-7 -11 -15 0 -8 -4 -15 -10 -15 -5 0 -10 -9 -10 -20 0 -38 32 -8 61 58 28 61
32 82 15 65z"/>
<path d="M8187 2723 c-13 -12 -7 -33 8 -33 8 0 15 9 15 20 0 20 -11 26 -23 13z"/>
<path d="M8645 2700 c3 -5 8 -10 11 -10 2 0 4 5 4 10 0 6 -5 10 -11 10 -5 0
-7 -4 -4 -10z"/>
<path d="M7770 2665 c0 -8 5 -15 10 -15 6 0 10 7 10 15 0 8 -4 15 -10 15 -5 0
-10 -7 -10 -15z"/>
<path d="M3163 2650 c-3 -11 -11 -20 -18 -20 -14 0 -31 -37 -22 -46 8 -9 57
50 57 68 0 24 -11 23 -17 -2z"/>
<path d="M8030 2519 c0 -5 5 -7 10 -4 6 3 10 8 10 11 0 2 -4 4 -10 4 -5 0 -10
-5 -10 -11z"/>
<path d="M8156 2494 c-4 -10 -2 -22 3 -27 7 -7 13 -5 17 7 4 10 2 22 -3 27 -7
7 -13 5 -17 -7z"/>
<path d="M8270 2490 c0 -19 3 -21 12 -12 9 9 9 15 0 24 -9 9 -12 7 -12 -12z"/>
<path d="M3370 2485 c-8 -9 -8 -15 -2 -15 12 0 26 19 19 26 -2 2 -10 -2 -17
-11z"/>
<path d="M3305 2480 c-3 -5 -2 -10 4 -10 5 0 13 5 16 10 3 6 2 10 -4 10 -5 0
-13 -4 -16 -10z"/>
<path d="M3352 2440 c0 -14 2 -19 5 -12 2 6 2 18 0 25 -3 6 -5 1 -5 -13z"/>
<path d="M8275 2440 c-3 -5 -1 -10 4 -10 6 0 11 5 11 10 0 6 -2 10 -4 10 -3 0
-8 -4 -11 -10z"/>
<path d="M7791 2404 c0 -11 3 -14 6 -6 3 7 2 16 -1 19 -3 4 -6 -2 -5 -13z"/>
<path d="M3278 2309 c-22 -12 -23 -29 -3 -29 8 0 19 9 25 20 12 22 4 25 -22 9z"/>
<path d="M3247 2223 c-4 -3 -7 -11 -7 -17 0 -6 5 -5 12 2 6 6 9 14 7 17 -3 3
-9 2 -12 -2z"/>
<path d="M8070 1625 c-7 -9 -10 -18 -7 -21 3 -3 10 4 17 15 13 25 8 27 -10 6z"/>
<path d="M8140 1620 c0 -5 5 -10 10 -10 6 0 10 5 10 10 0 6 -4 10 -10 10 -5 0
-10 -4 -10 -10z"/>
<path d="M8046 1575 c-3 -8 -1 -15 4 -15 6 0 10 7 10 15 0 8 -2 15 -4 15 -2 0
-6 -7 -10 -15z"/>
<path d="M8080 1506 c0 -9 5 -16 10 -16 6 0 10 4 10 9 0 6 -4 13 -10 16 -5 3
-10 -1 -10 -9z"/>
<path d="M8120 1265 c0 -8 9 -19 20 -25 17 -9 20 -8 20 9 0 10 -7 22 -16 25
-22 8 -24 8 -24 -9z"/>
<path d="M8156 1173 c-4 -9 -2 -21 4 -27 7 -7 10 -2 10 17 0 31 -5 34 -14 10z"/>
<path d="M8130 1094 c0 -8 5 -12 10 -9 6 3 10 10 10 16 0 5 -4 9 -10 9 -5 0
-10 -7 -10 -16z"/>
<path d="M8150 1060 c0 -5 5 -10 10 -10 6 0 10 5 10 10 0 6 -4 10 -10 10 -5 0
-10 -4 -10 -10z"/>
<path d="M8775 1040 c10 -11 20 -18 23 -16 5 6 -23 36 -34 36 -4 0 1 -9 11
-20z"/>
<path d="M8290 1037 c0 -19 16 -31 24 -18 3 5 -1 14 -9 21 -12 10 -15 10 -15
-3z"/>
<path d="M3087 993 c-4 -22 -2 -39 3 -41 16 -6 11 -40 -6 -50 -11 -6 -13 -11
-5 -16 6 -4 11 -14 11 -23 0 -11 -6 -14 -25 -9 -20 5 -25 3 -25 -13 0 -21 26
-36 36 -20 14 23 23 -9 15 -56 -5 -28 -9 -44 -10 -37 -2 21 -41 -10 -41 -34 0
-11 -7 -44 -16 -73 -13 -45 -18 -51 -36 -45 -14 4 -18 3 -14 -5 8 -12 -30 -81
-44 -81 -5 0 -25 -25 -45 -55 -38 -57 -55 -62 -55 -19 0 14 -10 48 -22 76 -19
45 -20 55 -9 92 26 86 31 166 12 166 -5 0 -16 -19 -25 -43 -21 -56 -53 -90
-78 -84 -24 7 -52 -34 -43 -62 3 -11 2 -28 -3 -37 -10 -18 5 -84 20 -84 12 0
10 -24 -6 -55 -14 -27 -17 -26 -41 19 -15 29 -28 24 -36 -11 -12 -58 -59 -89
-59 -39 0 13 -7 29 -15 36 -15 12 -15 16 2 143 4 28 2 37 -10 37 -10 0 -25
-32 -47 -102 -18 -57 -38 -110 -46 -119 -8 -8 -14 -21 -14 -27 0 -7 -7 -12
-15 -12 -8 0 -15 -9 -15 -20 0 -17 -5 -19 -25 -14 -18 4 -27 1 -31 -10 -8 -21
-30 -21 -42 0 -8 14 -10 12 -16 -10 -5 -19 -13 -26 -31 -26 -16 0 -25 -6 -25
-15 0 -21 -30 -31 -41 -14 -5 8 -9 48 -8 89 1 102 1 100 -16 100 -8 0 -15 7
-15 15 0 8 -6 15 -14 15 -21 0 -24 20 -11 60 29 84 33 100 25 105 -5 3 -7 12
-4 20 5 13 2 13 -22 0 -16 -8 -27 -16 -24 -17 2 -2 -4 -17 -15 -35 -34 -58
-70 -54 -62 6 4 36 3 37 -28 39 -36 3 -50 -10 -58 -53 -3 -16 -13 -59 -23 -93
l-17 -64 -36 5 c-20 3 -29 3 -20 1 11 -4 15 -13 11 -32 -3 -15 -1 -24 3 -20 4
4 22 1 40 -7 19 -7 36 -11 39 -8 2 3 2 -5 -1 -16 -3 -12 -9 -24 -14 -27 -5 -3
-9 -16 -9 -29 0 -13 -5 -27 -11 -31 -6 -3 -9 -15 -6 -25 7 -25 -24 -87 -60
-121 -20 -19 -37 -26 -60 -24 -37 2 -57 16 -25 16 12 0 22 6 22 14 0 8 3 21 6
30 7 19 -5 20 -43 4 -15 -6 -31 -11 -35 -10 -13 3 -9 -26 5 -31 9 -4 9 -6 0
-6 -16 -1 -63 -45 -63 -59 0 -7 58 -11 180 -11 172 -1 180 0 180 18 0 11 -5
23 -11 26 -16 11 -7 117 13 146 10 15 22 38 28 53 14 38 40 34 40 -7 0 -17 -4
-46 -9 -63 -10 -34 -5 -47 22 -57 21 -8 22 -21 2 -37 -8 -7 -15 -18 -15 -25 0
-8 -12 -23 -26 -34 l-27 -21 635 0 635 0 -1 138 c-1 75 1 215 3 311 4 156 2
175 -13 183 -12 7 -14 13 -7 21 6 8 6 29 1 57 -5 25 -9 54 -9 65 0 19 1 18 12
-3 13 -22 13 -22 25 12 13 36 12 116 -1 116 -5 0 -5 23 -2 50 8 66 -6 64 -29
-5 -15 -43 -16 -57 -7 -69 9 -11 9 -16 0 -21 -6 -4 -14 -3 -18 3 -3 6 -18 13
-33 17 -15 4 -29 14 -32 22 -8 19 3 81 15 89 5 3 9 14 9 25 0 16 -7 19 -44 19
-42 0 -44 -1 -49 -37z m153 -418 c0 -8 -4 -15 -10 -15 -5 0 -10 7 -10 15 0 8
5 15 10 15 6 0 10 -7 10 -15z m15 -87 c5 -46 3 -70 -8 -90 l-14 -28 -11 25
c-9 20 -8 26 5 34 15 8 15 10 1 25 -21 20 -28 20 -28 1 0 -8 -5 -15 -11 -15
-7 0 -8 7 -3 18 4 9 8 27 8 40 1 12 7 22 14 22 6 0 12 7 12 15 0 8 6 15 14 15
10 0 16 -18 21 -62z m-71 -138 c-1 -71 -12 -98 -33 -86 -6 4 -11 16 -11 26 0
10 -4 20 -9 22 -4 2 -12 14 -16 28 -7 23 -6 24 9 11 15 -13 19 -13 27 0 5 8 9
26 9 40 0 27 8 41 19 34 4 -2 6 -36 5 -75z m73 8 c-3 -8 -6 -5 -6 6 -1 11 2
17 5 13 3 -3 4 -12 1 -19z m-696 -75 c-12 -20 -14 -14 -5 12 4 9 9 14 11 11 3
-2 0 -13 -6 -23z m-21 -125 c0 -34 -22 -88 -36 -88 -12 0 -14 8 -9 38 10 55
13 62 30 62 8 0 15 -6 15 -12z"/>
<path d="M8220 1020 c0 -6 7 -22 16 -35 9 -14 12 -25 8 -25 -5 0 -3 -4 3 -8
10 -6 10 -17 3 -42 -8 -27 -7 -36 5 -43 8 -4 15 -20 15 -35 -2 -120 1 -172 10
-172 5 0 10 -12 10 -27 0 -16 9 -41 20 -58 l20 -30 0 38 c0 20 -9 54 -20 74
-22 41 -26 73 -10 73 18 0 53 -38 45 -49 -3 -6 -2 -11 4 -11 22 0 14 111 -8
118 -6 2 -11 12 -11 21 0 10 -9 30 -20 44 -12 14 -20 40 -20 61 0 20 -4 36
-10 36 -5 0 -10 8 -10 18 -1 17 -32 62 -44 62 -3 0 -6 -5 -6 -10z"/>
<path d="M8310 996 c0 -4 11 -24 25 -46 14 -22 25 -44 25 -50 0 -5 5 -10 10
-10 14 0 2 49 -19 79 -16 24 -41 39 -41 27z"/>
<path d="M8640 981 c0 -12 5 -21 10 -21 6 0 10 6 10 14 0 8 -4 18 -10 21 -5 3
-10 -3 -10 -14z"/>
<path d="M8705 980 c3 -5 8 -10 11 -10 2 0 4 5 4 10 0 6 -5 10 -11 10 -5 0 -7
-4 -4 -10z"/>
<path d="M8610 943 c0 -19 11 -43 21 -43 13 0 11 14 -6 36 -8 10 -15 14 -15 7z"/>
<path d="M8550 860 c11 -20 30 -28 30 -12 0 11 -22 32 -32 32 -5 0 -4 -9 2
-20z"/>
<path d="M8675 870 c-3 -5 1 -10 9 -10 9 0 16 5 16 10 0 6 -4 10 -9 10 -6 0
-13 -4 -16 -10z"/>
<path d="M8700 804 c0 -5 7 -18 15 -28 8 -11 15 -16 15 -10 0 5 -7 18 -15 28
-8 11 -15 16 -15 10z"/>
<path d="M2910 780 c0 -11 4 -20 8 -20 4 0 8 9 8 20 0 11 -4 20 -8 20 -4 0 -8
-9 -8 -20z"/>
<path d="M8020 768 c0 -9 5 -20 10 -23 13 -8 13 5 0 25 -8 13 -10 13 -10 -2z"/>
<path d="M2944 678 c-3 -5 -3 -25 0 -44 l7 -34 30 22 c16 12 28 29 27 37 -4
18 -55 33 -64 19z"/>
<path d="M8107 612 c-10 -10 -17 -29 -17 -41 0 -20 4 -22 27 -16 23 5 25 4 13
-10 -10 -12 -10 -19 -2 -27 9 -9 15 -7 26 8 13 17 12 22 -7 42 -12 13 -21 32
-19 43 4 24 0 24 -21 1z"/>
<path d="M8510 611 c15 -30 30 -35 17 -6 -7 14 -16 25 -20 25 -4 0 -3 -9 3
-19z"/>
<path d="M2258 568 c-10 -10 -18 -20 -18 -23 0 -2 -11 -29 -25 -59 -14 -30
-25 -60 -25 -65 0 -15 25 -17 85 -7 11 2 28 4 37 5 13 1 16 9 13 39 -1 20 -3
44 -4 53 -1 8 -11 29 -23 45 -22 29 -24 29 -40 12z"/>
<path d="M1575 522 c-16 -2 -36 -13 -45 -25 -25 -37 -50 -90 -50 -108 0 -16
-53 -69 -69 -69 -4 0 -7 -9 -8 -20 -1 -13 4 -20 17 -20 23 0 31 -21 16 -46
-19 -36 -53 -74 -65 -74 -6 0 -11 -4 -11 -9 0 -5 -10 -13 -22 -17 -26 -8 -57
-43 -58 -64 0 -12 -10 -15 -40 -13 -22 1 -40 -2 -40 -8 0 -5 -11 -9 -23 -9
-13 0 -32 -9 -42 -20 -18 -20 -17 -20 91 -20 93 1 106 3 92 14 -10 7 -18 18
-18 24 0 14 41 43 52 36 5 -3 16 4 26 15 12 14 24 18 44 14 25 -5 27 -9 26
-49 -2 -38 -5 -44 -28 -47 -14 -2 9 -5 51 -6 68 -1 77 1 75 17 -1 11 6 17 21
17 37 1 39 15 2 16 -26 1 -28 3 -10 6 19 4 21 7 10 14 -12 7 -12 12 -1 29 8
14 9 26 3 39 -13 23 -3 61 15 61 8 0 17 7 20 15 7 17 34 21 34 5 0 -5 9 -10
20 -10 11 0 20 5 20 10 0 6 7 10 15 10 22 0 19 44 -5 65 -19 18 -20 17 -20 -3
0 -13 -6 -22 -15 -22 -9 0 -18 -7 -21 -15 -10 -26 -24 -16 -24 18 0 24 -3 28
-10 17 -9 -13 -11 -13 -20 0 -6 10 -5 17 5 23 19 10 19 32 -1 62 -14 22 -14
27 1 59 10 20 21 33 26 30 5 -3 6 1 3 9 -3 8 -1 18 5 22 29 17 4 33 -44 27z"/>
<path d="M975 490 c-3 -5 -1 -10 4 -10 6 0 11 5 11 10 0 6 -2 10 -4 10 -3 0
-8 -4 -11 -10z"/>
<path d="M2620 469 c0 -5 5 -7 10 -4 6 3 10 8 10 11 0 2 -4 4 -10 4 -5 0 -10
-5 -10 -11z"/>
<path d="M937 463 c-14 -13 -6 -33 12 -33 25 0 38 20 20 31 -17 11 -24 11 -32
2z"/>
<path d="M8545 440 c3 -5 11 -10 16 -10 6 0 7 5 4 10 -3 6 -11 10 -16 10 -6 0
-7 -4 -4 -10z"/>
<path d="M8110 370 c0 -11 5 -20 10 -20 6 0 10 9 10 20 0 11 -4 20 -10 20 -5
0 -10 -9 -10 -20z"/>
<path d="M8510 376 c0 -2 8 -10 18 -17 15 -13 16 -12 3 4 -13 16 -21 21 -21
13z"/>
<path d="M1067 322 c-45 -45 -47 -62 -7 -62 20 0 30 5 30 15 0 9 7 18 15 21
15 6 22 65 8 63 -5 -1 -25 -17 -46 -37z"/>
<path d="M8551 314 c0 -11 3 -14 6 -6 3 7 2 16 -1 19 -3 4 -6 -2 -5 -13z"/>
<path d="M4670 310 c0 -5 5 -10 10 -10 6 0 10 5 10 10 0 6 -4 10 -10 10 -5 0
-10 -4 -10 -10z"/>
<path d="M4513 294 c-22 -16 -21 -44 1 -44 13 0 56 41 56 53 0 12 -34 6 -57
-9z"/>
<path d="M1351 286 c-8 -10 -9 -16 -1 -21 5 -3 10 -1 10 4 0 6 7 11 16 11 8 0
12 5 9 10 -9 14 -20 12 -34 -4z"/>
<path d="M4410 191 c-15 -28 4 -35 36 -14 24 15 25 18 8 24 -29 11 -32 11 -44
-10z"/>
<path d="M4491 159 c-42 -39 -43 -41 -25 -60 l19 -21 9 24 c6 13 13 25 16 28
11 10 33 60 29 64 -3 3 -24 -13 -48 -35z"/>
<path d="M4558 146 c-18 -13 -25 -46 -10 -46 10 0 52 43 52 53 0 11 -24 7 -42
-7z"/>
<path d="M4420 84 c0 -9 5 -14 12 -12 18 6 21 28 4 28 -9 0 -16 -7 -16 -16z"/>
<path d="M4527 83 c-4 -3 -7 -11 -7 -17 0 -6 5 -5 12 2 6 6 9 14 7 17 -3 3 -9
2 -12 -2z"/>
<path d="M4445 49 c-4 -5 -14 -8 -22 -5 -11 4 -13 2 -10 -9 4 -8 2 -17 -3 -20
-4 -3 -10 1 -13 7 -2 7 -8 9 -13 5 -5 -4 -2 -12 6 -17 20 -13 120 -13 120 0 0
6 -12 10 -26 10 -19 0 -25 4 -21 15 7 17 -9 30 -18 14z"/>
<path d="M4556 31 c-4 -7 -5 -15 -2 -18 9 -9 19 4 14 18 -4 11 -6 11 -12 0z"/>
</g>
</svg>
