<?xml version="1.0" standalone="no"?>
<!DOCTYPE svg PUBLIC "-//W3C//DTD SVG 20010904//EN"
 "http://www.w3.org/TR/2001/REC-SVG-20010904/DTD/svg10.dtd">
<svg version="1.0" xmlns="http://www.w3.org/2000/svg"
 width="32.000000pt" height="32.000000pt" viewBox="0 0 64.000000 64.000000"
 preserveAspectRatio="xMidYMid meet">

<g transform="translate(0.000000,64.000000) scale(0.100000,-0.100000)"
fill="#0000" stroke="orange" stroke-width="30">
<path d="M482 519 c-13 -5 -41 -24 -63 -42 -33 -29 -46 -33 -99 -35 -75 -2
-117 -24 -126 -66 -3 -17 -11 -37 -17 -44 -15 -19 1 -28 23 -14 16 10 20 10
20 -2 0 -7 7 -19 15 -26 8 -7 15 -17 15 -22 0 -6 -8 -4 -17 3 -15 12 -16 12
-10 -3 4 -11 2 -15 -7 -12 -16 6 -28 -9 -52 -68 -10 -27 -25 -48 -31 -48 -7 0
-13 -4 -13 -10 0 -5 5 -10 10 -10 11 0 13 -70 2 -85 -7 -10 -14 -12 -52 -18
-11 -2 -23 -6 -26 -10 -13 -13 132 -7 145 6 11 9 13 9 7 -1 -6 -9 15 -12 88
-12 77 0 96 3 96 14 0 21 -17 29 -24 11 -10 -28 -24 -15 -22 21 2 19 -2 41 -8
47 -6 7 -20 24 -31 37 l-20 25 25 -21 c30 -26 69 -17 71 16 2 28 3 33 12 47 4
6 2 13 -4 15 -8 3 -6 13 6 31 10 15 20 47 23 70 2 25 12 47 22 54 23 16 80
120 80 145 0 20 -5 21 -38 7z m-70 -132 c12 -23 -5 -22 -26 2 -16 18 -17 19
-1 17 10 -1 21 -10 27 -19z m-142 4 c0 -5 -7 -11 -14 -14 -10 -4 -13 -1 -9 9
6 15 23 19 23 5z m-22 -213 c15 -15 16 -48 1 -48 -5 0 -7 -4 -4 -10 3 -5 1
-10 -5 -10 -8 0 -7 -6 1 -21 9 -17 13 -19 20 -8 7 11 9 9 9 -7 0 -38 -57 -42
-92 -6 -17 17 -17 21 -3 70 13 43 20 52 38 52 13 0 28 -5 35 -12z"/>
</g>
</svg>
